%TF.GenerationSoftware,KiCad,Pcbnew,9.0.7*%
%TF.CreationDate,2026-03-02T14:05:14-05:00*%
%TF.ProjectId,soft_robot_cam_usbcv2,736f6674-5f72-46f6-926f-745f63616d5f,rev?*%
%TF.SameCoordinates,Original*%
%TF.FileFunction,Legend,Bot*%
%TF.FilePolarity,Positive*%
%FSLAX46Y46*%
G04 Gerber Fmt 4.6, Leading zero omitted, Abs format (unit mm)*
G04 Created by KiCad (PCBNEW 9.0.7) date 2026-03-02 14:05:14*
%MOMM*%
%LPD*%
G01*
G04 APERTURE LIST*
%ADD10C,0.125000*%
%ADD11C,0.000000*%
G04 APERTURE END LIST*
D10*
X104584430Y-70798976D02*
X104584430Y-71203738D01*
X104584430Y-71203738D02*
X104608240Y-71251357D01*
X104608240Y-71251357D02*
X104632049Y-71275166D01*
X104632049Y-71275166D02*
X104679668Y-71298976D01*
X104679668Y-71298976D02*
X104751097Y-71298976D01*
X104751097Y-71298976D02*
X104798716Y-71275166D01*
X104584430Y-71108500D02*
X104632049Y-71132309D01*
X104632049Y-71132309D02*
X104727287Y-71132309D01*
X104727287Y-71132309D02*
X104774906Y-71108500D01*
X104774906Y-71108500D02*
X104798716Y-71084690D01*
X104798716Y-71084690D02*
X104822525Y-71037071D01*
X104822525Y-71037071D02*
X104822525Y-70894214D01*
X104822525Y-70894214D02*
X104798716Y-70846595D01*
X104798716Y-70846595D02*
X104774906Y-70822785D01*
X104774906Y-70822785D02*
X104727287Y-70798976D01*
X104727287Y-70798976D02*
X104632049Y-70798976D01*
X104632049Y-70798976D02*
X104584430Y-70822785D01*
X104346335Y-71132309D02*
X104346335Y-70798976D01*
X104346335Y-70632309D02*
X104370144Y-70656119D01*
X104370144Y-70656119D02*
X104346335Y-70679928D01*
X104346335Y-70679928D02*
X104322525Y-70656119D01*
X104322525Y-70656119D02*
X104346335Y-70632309D01*
X104346335Y-70632309D02*
X104346335Y-70679928D01*
X104179668Y-70798976D02*
X103989192Y-70798976D01*
X104108240Y-70632309D02*
X104108240Y-71060880D01*
X104108240Y-71060880D02*
X104084430Y-71108500D01*
X104084430Y-71108500D02*
X104036811Y-71132309D01*
X104036811Y-71132309D02*
X103989192Y-71132309D01*
X103822526Y-71132309D02*
X103822526Y-70632309D01*
X103608240Y-71132309D02*
X103608240Y-70870404D01*
X103608240Y-70870404D02*
X103632050Y-70822785D01*
X103632050Y-70822785D02*
X103679669Y-70798976D01*
X103679669Y-70798976D02*
X103751097Y-70798976D01*
X103751097Y-70798976D02*
X103798716Y-70822785D01*
X103798716Y-70822785D02*
X103822526Y-70846595D01*
X103155859Y-70798976D02*
X103155859Y-71132309D01*
X103370145Y-70798976D02*
X103370145Y-71060880D01*
X103370145Y-71060880D02*
X103346335Y-71108500D01*
X103346335Y-71108500D02*
X103298716Y-71132309D01*
X103298716Y-71132309D02*
X103227288Y-71132309D01*
X103227288Y-71132309D02*
X103179669Y-71108500D01*
X103179669Y-71108500D02*
X103155859Y-71084690D01*
X102917764Y-71132309D02*
X102917764Y-70632309D01*
X102917764Y-70822785D02*
X102870145Y-70798976D01*
X102870145Y-70798976D02*
X102774907Y-70798976D01*
X102774907Y-70798976D02*
X102727288Y-70822785D01*
X102727288Y-70822785D02*
X102703478Y-70846595D01*
X102703478Y-70846595D02*
X102679669Y-70894214D01*
X102679669Y-70894214D02*
X102679669Y-71037071D01*
X102679669Y-71037071D02*
X102703478Y-71084690D01*
X102703478Y-71084690D02*
X102727288Y-71108500D01*
X102727288Y-71108500D02*
X102774907Y-71132309D01*
X102774907Y-71132309D02*
X102870145Y-71132309D01*
X102870145Y-71132309D02*
X102917764Y-71108500D01*
X102465383Y-71084690D02*
X102441573Y-71108500D01*
X102441573Y-71108500D02*
X102465383Y-71132309D01*
X102465383Y-71132309D02*
X102489192Y-71108500D01*
X102489192Y-71108500D02*
X102465383Y-71084690D01*
X102465383Y-71084690D02*
X102465383Y-71132309D01*
X102013002Y-71108500D02*
X102060621Y-71132309D01*
X102060621Y-71132309D02*
X102155859Y-71132309D01*
X102155859Y-71132309D02*
X102203478Y-71108500D01*
X102203478Y-71108500D02*
X102227288Y-71084690D01*
X102227288Y-71084690D02*
X102251097Y-71037071D01*
X102251097Y-71037071D02*
X102251097Y-70894214D01*
X102251097Y-70894214D02*
X102227288Y-70846595D01*
X102227288Y-70846595D02*
X102203478Y-70822785D01*
X102203478Y-70822785D02*
X102155859Y-70798976D01*
X102155859Y-70798976D02*
X102060621Y-70798976D01*
X102060621Y-70798976D02*
X102013002Y-70822785D01*
X101727288Y-71132309D02*
X101774907Y-71108500D01*
X101774907Y-71108500D02*
X101798717Y-71084690D01*
X101798717Y-71084690D02*
X101822526Y-71037071D01*
X101822526Y-71037071D02*
X101822526Y-70894214D01*
X101822526Y-70894214D02*
X101798717Y-70846595D01*
X101798717Y-70846595D02*
X101774907Y-70822785D01*
X101774907Y-70822785D02*
X101727288Y-70798976D01*
X101727288Y-70798976D02*
X101655860Y-70798976D01*
X101655860Y-70798976D02*
X101608241Y-70822785D01*
X101608241Y-70822785D02*
X101584431Y-70846595D01*
X101584431Y-70846595D02*
X101560622Y-70894214D01*
X101560622Y-70894214D02*
X101560622Y-71037071D01*
X101560622Y-71037071D02*
X101584431Y-71084690D01*
X101584431Y-71084690D02*
X101608241Y-71108500D01*
X101608241Y-71108500D02*
X101655860Y-71132309D01*
X101655860Y-71132309D02*
X101727288Y-71132309D01*
X101346336Y-71132309D02*
X101346336Y-70798976D01*
X101346336Y-70846595D02*
X101322526Y-70822785D01*
X101322526Y-70822785D02*
X101274907Y-70798976D01*
X101274907Y-70798976D02*
X101203479Y-70798976D01*
X101203479Y-70798976D02*
X101155860Y-70822785D01*
X101155860Y-70822785D02*
X101132050Y-70870404D01*
X101132050Y-70870404D02*
X101132050Y-71132309D01*
X101132050Y-70870404D02*
X101108241Y-70822785D01*
X101108241Y-70822785D02*
X101060622Y-70798976D01*
X101060622Y-70798976D02*
X100989193Y-70798976D01*
X100989193Y-70798976D02*
X100941574Y-70822785D01*
X100941574Y-70822785D02*
X100917764Y-70870404D01*
X100917764Y-70870404D02*
X100917764Y-71132309D01*
X100322526Y-70608500D02*
X100751097Y-71251357D01*
X100203478Y-70798976D02*
X100108240Y-71132309D01*
X100108240Y-71132309D02*
X100013002Y-70894214D01*
X100013002Y-70894214D02*
X99917764Y-71132309D01*
X99917764Y-71132309D02*
X99822526Y-70798976D01*
X99560620Y-71132309D02*
X99608239Y-71108500D01*
X99608239Y-71108500D02*
X99632049Y-71060880D01*
X99632049Y-71060880D02*
X99632049Y-70632309D01*
X99155858Y-71132309D02*
X99155858Y-70870404D01*
X99155858Y-70870404D02*
X99179668Y-70822785D01*
X99179668Y-70822785D02*
X99227287Y-70798976D01*
X99227287Y-70798976D02*
X99322525Y-70798976D01*
X99322525Y-70798976D02*
X99370144Y-70822785D01*
X99155858Y-71108500D02*
X99203477Y-71132309D01*
X99203477Y-71132309D02*
X99322525Y-71132309D01*
X99322525Y-71132309D02*
X99370144Y-71108500D01*
X99370144Y-71108500D02*
X99393953Y-71060880D01*
X99393953Y-71060880D02*
X99393953Y-71013261D01*
X99393953Y-71013261D02*
X99370144Y-70965642D01*
X99370144Y-70965642D02*
X99322525Y-70941833D01*
X99322525Y-70941833D02*
X99203477Y-70941833D01*
X99203477Y-70941833D02*
X99155858Y-70918023D01*
X98989191Y-70798976D02*
X98798715Y-70798976D01*
X98917763Y-70632309D02*
X98917763Y-71060880D01*
X98917763Y-71060880D02*
X98893953Y-71108500D01*
X98893953Y-71108500D02*
X98846334Y-71132309D01*
X98846334Y-71132309D02*
X98798715Y-71132309D01*
X98632049Y-71132309D02*
X98632049Y-70798976D01*
X98632049Y-70632309D02*
X98655858Y-70656119D01*
X98655858Y-70656119D02*
X98632049Y-70679928D01*
X98632049Y-70679928D02*
X98608239Y-70656119D01*
X98608239Y-70656119D02*
X98632049Y-70632309D01*
X98632049Y-70632309D02*
X98632049Y-70679928D01*
X98465382Y-70798976D02*
X98274906Y-70798976D01*
X98393954Y-71132309D02*
X98393954Y-70703738D01*
X98393954Y-70703738D02*
X98370144Y-70656119D01*
X98370144Y-70656119D02*
X98322525Y-70632309D01*
X98322525Y-70632309D02*
X98274906Y-70632309D01*
X98108240Y-70941833D02*
X97727288Y-70941833D01*
X97274906Y-71108500D02*
X97322525Y-71132309D01*
X97322525Y-71132309D02*
X97417763Y-71132309D01*
X97417763Y-71132309D02*
X97465382Y-71108500D01*
X97465382Y-71108500D02*
X97489192Y-71084690D01*
X97489192Y-71084690D02*
X97513001Y-71037071D01*
X97513001Y-71037071D02*
X97513001Y-70894214D01*
X97513001Y-70894214D02*
X97489192Y-70846595D01*
X97489192Y-70846595D02*
X97465382Y-70822785D01*
X97465382Y-70822785D02*
X97417763Y-70798976D01*
X97417763Y-70798976D02*
X97322525Y-70798976D01*
X97322525Y-70798976D02*
X97274906Y-70822785D01*
X97060621Y-71132309D02*
X97060621Y-70798976D01*
X97060621Y-70846595D02*
X97036811Y-70822785D01*
X97036811Y-70822785D02*
X96989192Y-70798976D01*
X96989192Y-70798976D02*
X96917764Y-70798976D01*
X96917764Y-70798976D02*
X96870145Y-70822785D01*
X96870145Y-70822785D02*
X96846335Y-70870404D01*
X96846335Y-70870404D02*
X96846335Y-71132309D01*
X96846335Y-70870404D02*
X96822526Y-70822785D01*
X96822526Y-70822785D02*
X96774907Y-70798976D01*
X96774907Y-70798976D02*
X96703478Y-70798976D01*
X96703478Y-70798976D02*
X96655859Y-70822785D01*
X96655859Y-70822785D02*
X96632049Y-70870404D01*
X96632049Y-70870404D02*
X96632049Y-71132309D01*
X96441573Y-70798976D02*
X96322525Y-71132309D01*
X96203478Y-70798976D02*
X96322525Y-71132309D01*
X96322525Y-71132309D02*
X96370144Y-71251357D01*
X96370144Y-71251357D02*
X96393954Y-71275166D01*
X96393954Y-71275166D02*
X96441573Y-71298976D01*
X96013002Y-71132309D02*
X96013002Y-70632309D01*
X95965383Y-70941833D02*
X95822526Y-71132309D01*
X95822526Y-70798976D02*
X96013002Y-70989452D01*
X95251097Y-70608500D02*
X95679668Y-71251357D01*
X95084430Y-70798976D02*
X95084430Y-71298976D01*
X95084430Y-70822785D02*
X95036811Y-70798976D01*
X95036811Y-70798976D02*
X94941573Y-70798976D01*
X94941573Y-70798976D02*
X94893954Y-70822785D01*
X94893954Y-70822785D02*
X94870144Y-70846595D01*
X94870144Y-70846595D02*
X94846335Y-70894214D01*
X94846335Y-70894214D02*
X94846335Y-71037071D01*
X94846335Y-71037071D02*
X94870144Y-71084690D01*
X94870144Y-71084690D02*
X94893954Y-71108500D01*
X94893954Y-71108500D02*
X94941573Y-71132309D01*
X94941573Y-71132309D02*
X95036811Y-71132309D01*
X95036811Y-71132309D02*
X95084430Y-71108500D01*
X94417763Y-71108500D02*
X94465382Y-71132309D01*
X94465382Y-71132309D02*
X94560620Y-71132309D01*
X94560620Y-71132309D02*
X94608239Y-71108500D01*
X94608239Y-71108500D02*
X94632049Y-71084690D01*
X94632049Y-71084690D02*
X94655858Y-71037071D01*
X94655858Y-71037071D02*
X94655858Y-70894214D01*
X94655858Y-70894214D02*
X94632049Y-70846595D01*
X94632049Y-70846595D02*
X94608239Y-70822785D01*
X94608239Y-70822785D02*
X94560620Y-70798976D01*
X94560620Y-70798976D02*
X94465382Y-70798976D01*
X94465382Y-70798976D02*
X94417763Y-70822785D01*
X94203478Y-71132309D02*
X94203478Y-70632309D01*
X94203478Y-70822785D02*
X94155859Y-70798976D01*
X94155859Y-70798976D02*
X94060621Y-70798976D01*
X94060621Y-70798976D02*
X94013002Y-70822785D01*
X94013002Y-70822785D02*
X93989192Y-70846595D01*
X93989192Y-70846595D02*
X93965383Y-70894214D01*
X93965383Y-70894214D02*
X93965383Y-71037071D01*
X93965383Y-71037071D02*
X93989192Y-71084690D01*
X93989192Y-71084690D02*
X94013002Y-71108500D01*
X94013002Y-71108500D02*
X94060621Y-71132309D01*
X94060621Y-71132309D02*
X94155859Y-71132309D01*
X94155859Y-71132309D02*
X94203478Y-71108500D01*
X93774906Y-71108500D02*
X93727287Y-71132309D01*
X93727287Y-71132309D02*
X93632049Y-71132309D01*
X93632049Y-71132309D02*
X93584430Y-71108500D01*
X93584430Y-71108500D02*
X93560621Y-71060880D01*
X93560621Y-71060880D02*
X93560621Y-71037071D01*
X93560621Y-71037071D02*
X93584430Y-70989452D01*
X93584430Y-70989452D02*
X93632049Y-70965642D01*
X93632049Y-70965642D02*
X93703478Y-70965642D01*
X93703478Y-70965642D02*
X93751097Y-70941833D01*
X93751097Y-70941833D02*
X93774906Y-70894214D01*
X93774906Y-70894214D02*
X93774906Y-70870404D01*
X93774906Y-70870404D02*
X93751097Y-70822785D01*
X93751097Y-70822785D02*
X93703478Y-70798976D01*
X93703478Y-70798976D02*
X93632049Y-70798976D01*
X93632049Y-70798976D02*
X93584430Y-70822785D01*
X92989192Y-70608500D02*
X93417763Y-71251357D01*
X92846334Y-71108500D02*
X92798715Y-71132309D01*
X92798715Y-71132309D02*
X92703477Y-71132309D01*
X92703477Y-71132309D02*
X92655858Y-71108500D01*
X92655858Y-71108500D02*
X92632049Y-71060880D01*
X92632049Y-71060880D02*
X92632049Y-71037071D01*
X92632049Y-71037071D02*
X92655858Y-70989452D01*
X92655858Y-70989452D02*
X92703477Y-70965642D01*
X92703477Y-70965642D02*
X92774906Y-70965642D01*
X92774906Y-70965642D02*
X92822525Y-70941833D01*
X92822525Y-70941833D02*
X92846334Y-70894214D01*
X92846334Y-70894214D02*
X92846334Y-70870404D01*
X92846334Y-70870404D02*
X92822525Y-70822785D01*
X92822525Y-70822785D02*
X92774906Y-70798976D01*
X92774906Y-70798976D02*
X92703477Y-70798976D01*
X92703477Y-70798976D02*
X92655858Y-70822785D01*
X92346334Y-71132309D02*
X92393953Y-71108500D01*
X92393953Y-71108500D02*
X92417763Y-71084690D01*
X92417763Y-71084690D02*
X92441572Y-71037071D01*
X92441572Y-71037071D02*
X92441572Y-70894214D01*
X92441572Y-70894214D02*
X92417763Y-70846595D01*
X92417763Y-70846595D02*
X92393953Y-70822785D01*
X92393953Y-70822785D02*
X92346334Y-70798976D01*
X92346334Y-70798976D02*
X92274906Y-70798976D01*
X92274906Y-70798976D02*
X92227287Y-70822785D01*
X92227287Y-70822785D02*
X92203477Y-70846595D01*
X92203477Y-70846595D02*
X92179668Y-70894214D01*
X92179668Y-70894214D02*
X92179668Y-71037071D01*
X92179668Y-71037071D02*
X92203477Y-71084690D01*
X92203477Y-71084690D02*
X92227287Y-71108500D01*
X92227287Y-71108500D02*
X92274906Y-71132309D01*
X92274906Y-71132309D02*
X92346334Y-71132309D01*
X92036810Y-70798976D02*
X91846334Y-70798976D01*
X91965382Y-71132309D02*
X91965382Y-70703738D01*
X91965382Y-70703738D02*
X91941572Y-70656119D01*
X91941572Y-70656119D02*
X91893953Y-70632309D01*
X91893953Y-70632309D02*
X91846334Y-70632309D01*
X91751096Y-70798976D02*
X91560620Y-70798976D01*
X91679668Y-70632309D02*
X91679668Y-71060880D01*
X91679668Y-71060880D02*
X91655858Y-71108500D01*
X91655858Y-71108500D02*
X91608239Y-71132309D01*
X91608239Y-71132309D02*
X91560620Y-71132309D01*
X91393954Y-71132309D02*
X91393954Y-70798976D01*
X91393954Y-70894214D02*
X91370144Y-70846595D01*
X91370144Y-70846595D02*
X91346335Y-70822785D01*
X91346335Y-70822785D02*
X91298716Y-70798976D01*
X91298716Y-70798976D02*
X91251097Y-70798976D01*
X91013001Y-71132309D02*
X91060620Y-71108500D01*
X91060620Y-71108500D02*
X91084430Y-71084690D01*
X91084430Y-71084690D02*
X91108239Y-71037071D01*
X91108239Y-71037071D02*
X91108239Y-70894214D01*
X91108239Y-70894214D02*
X91084430Y-70846595D01*
X91084430Y-70846595D02*
X91060620Y-70822785D01*
X91060620Y-70822785D02*
X91013001Y-70798976D01*
X91013001Y-70798976D02*
X90941573Y-70798976D01*
X90941573Y-70798976D02*
X90893954Y-70822785D01*
X90893954Y-70822785D02*
X90870144Y-70846595D01*
X90870144Y-70846595D02*
X90846335Y-70894214D01*
X90846335Y-70894214D02*
X90846335Y-71037071D01*
X90846335Y-71037071D02*
X90870144Y-71084690D01*
X90870144Y-71084690D02*
X90893954Y-71108500D01*
X90893954Y-71108500D02*
X90941573Y-71132309D01*
X90941573Y-71132309D02*
X91013001Y-71132309D01*
X90632049Y-71132309D02*
X90632049Y-70632309D01*
X90632049Y-70822785D02*
X90584430Y-70798976D01*
X90584430Y-70798976D02*
X90489192Y-70798976D01*
X90489192Y-70798976D02*
X90441573Y-70822785D01*
X90441573Y-70822785D02*
X90417763Y-70846595D01*
X90417763Y-70846595D02*
X90393954Y-70894214D01*
X90393954Y-70894214D02*
X90393954Y-71037071D01*
X90393954Y-71037071D02*
X90417763Y-71084690D01*
X90417763Y-71084690D02*
X90441573Y-71108500D01*
X90441573Y-71108500D02*
X90489192Y-71132309D01*
X90489192Y-71132309D02*
X90584430Y-71132309D01*
X90584430Y-71132309D02*
X90632049Y-71108500D01*
X90108239Y-71132309D02*
X90155858Y-71108500D01*
X90155858Y-71108500D02*
X90179668Y-71084690D01*
X90179668Y-71084690D02*
X90203477Y-71037071D01*
X90203477Y-71037071D02*
X90203477Y-70894214D01*
X90203477Y-70894214D02*
X90179668Y-70846595D01*
X90179668Y-70846595D02*
X90155858Y-70822785D01*
X90155858Y-70822785D02*
X90108239Y-70798976D01*
X90108239Y-70798976D02*
X90036811Y-70798976D01*
X90036811Y-70798976D02*
X89989192Y-70822785D01*
X89989192Y-70822785D02*
X89965382Y-70846595D01*
X89965382Y-70846595D02*
X89941573Y-70894214D01*
X89941573Y-70894214D02*
X89941573Y-71037071D01*
X89941573Y-71037071D02*
X89965382Y-71084690D01*
X89965382Y-71084690D02*
X89989192Y-71108500D01*
X89989192Y-71108500D02*
X90036811Y-71132309D01*
X90036811Y-71132309D02*
X90108239Y-71132309D01*
X89798715Y-70798976D02*
X89608239Y-70798976D01*
X89727287Y-70632309D02*
X89727287Y-71060880D01*
X89727287Y-71060880D02*
X89703477Y-71108500D01*
X89703477Y-71108500D02*
X89655858Y-71132309D01*
X89655858Y-71132309D02*
X89608239Y-71132309D01*
X89441573Y-70798976D02*
X89441573Y-71298976D01*
X89441573Y-70822785D02*
X89393954Y-70798976D01*
X89393954Y-70798976D02*
X89298716Y-70798976D01*
X89298716Y-70798976D02*
X89251097Y-70822785D01*
X89251097Y-70822785D02*
X89227287Y-70846595D01*
X89227287Y-70846595D02*
X89203478Y-70894214D01*
X89203478Y-70894214D02*
X89203478Y-71037071D01*
X89203478Y-71037071D02*
X89227287Y-71084690D01*
X89227287Y-71084690D02*
X89251097Y-71108500D01*
X89251097Y-71108500D02*
X89298716Y-71132309D01*
X89298716Y-71132309D02*
X89393954Y-71132309D01*
X89393954Y-71132309D02*
X89441573Y-71108500D01*
X88774906Y-71108500D02*
X88822525Y-71132309D01*
X88822525Y-71132309D02*
X88917763Y-71132309D01*
X88917763Y-71132309D02*
X88965382Y-71108500D01*
X88965382Y-71108500D02*
X88989192Y-71084690D01*
X88989192Y-71084690D02*
X89013001Y-71037071D01*
X89013001Y-71037071D02*
X89013001Y-70894214D01*
X89013001Y-70894214D02*
X88989192Y-70846595D01*
X88989192Y-70846595D02*
X88965382Y-70822785D01*
X88965382Y-70822785D02*
X88917763Y-70798976D01*
X88917763Y-70798976D02*
X88822525Y-70798976D01*
X88822525Y-70798976D02*
X88774906Y-70822785D01*
X88560621Y-71132309D02*
X88560621Y-70632309D01*
X88560621Y-70822785D02*
X88513002Y-70798976D01*
X88513002Y-70798976D02*
X88417764Y-70798976D01*
X88417764Y-70798976D02*
X88370145Y-70822785D01*
X88370145Y-70822785D02*
X88346335Y-70846595D01*
X88346335Y-70846595D02*
X88322526Y-70894214D01*
X88322526Y-70894214D02*
X88322526Y-71037071D01*
X88322526Y-71037071D02*
X88346335Y-71084690D01*
X88346335Y-71084690D02*
X88370145Y-71108500D01*
X88370145Y-71108500D02*
X88417764Y-71132309D01*
X88417764Y-71132309D02*
X88513002Y-71132309D01*
X88513002Y-71132309D02*
X88560621Y-71108500D01*
D11*
%TO.C,G\u002A\u002A\u002A*%
G36*
X99577981Y-65183082D02*
G01*
X99563265Y-65197798D01*
X99548549Y-65183082D01*
X99563265Y-65168366D01*
X99577981Y-65183082D01*
G37*
G36*
X99666278Y-64888760D02*
G01*
X99651561Y-64903476D01*
X99636845Y-64888760D01*
X99651561Y-64874044D01*
X99666278Y-64888760D01*
G37*
G36*
X100196057Y-67684820D02*
G01*
X100181341Y-67699536D01*
X100166625Y-67684820D01*
X100181341Y-67670104D01*
X100196057Y-67684820D01*
G37*
G36*
X100254922Y-67655388D02*
G01*
X100240206Y-67670104D01*
X100225490Y-67655388D01*
X100240206Y-67640672D01*
X100254922Y-67655388D01*
G37*
G36*
X100284354Y-67802549D02*
G01*
X100269638Y-67817265D01*
X100254922Y-67802549D01*
X100269638Y-67787833D01*
X100284354Y-67802549D01*
G37*
G36*
X100284354Y-69009270D02*
G01*
X100269638Y-69023986D01*
X100254922Y-69009270D01*
X100269638Y-68994554D01*
X100284354Y-69009270D01*
G37*
G36*
X100313786Y-67684820D02*
G01*
X100299070Y-67699536D01*
X100284354Y-67684820D01*
X100299070Y-67670104D01*
X100313786Y-67684820D01*
G37*
G36*
X100313786Y-67890846D02*
G01*
X100299070Y-67905562D01*
X100284354Y-67890846D01*
X100299070Y-67876130D01*
X100313786Y-67890846D01*
G37*
G36*
X100343218Y-67831981D02*
G01*
X100328502Y-67846697D01*
X100313786Y-67831981D01*
X100328502Y-67817265D01*
X100343218Y-67831981D01*
G37*
G36*
X100372651Y-69009270D02*
G01*
X100357935Y-69023986D01*
X100343218Y-69009270D01*
X100357935Y-68994554D01*
X100372651Y-69009270D01*
G37*
G36*
X100431515Y-68244032D02*
G01*
X100416799Y-68258748D01*
X100402083Y-68244032D01*
X100416799Y-68229316D01*
X100431515Y-68244032D01*
G37*
G36*
X100725837Y-68891541D02*
G01*
X100711121Y-68906257D01*
X100696405Y-68891541D01*
X100711121Y-68876825D01*
X100725837Y-68891541D01*
G37*
G36*
X100784702Y-67743685D02*
G01*
X100769986Y-67758401D01*
X100755269Y-67743685D01*
X100769986Y-67728968D01*
X100784702Y-67743685D01*
G37*
G36*
X100990727Y-68685515D02*
G01*
X100976011Y-68700232D01*
X100961295Y-68685515D01*
X100976011Y-68670799D01*
X100990727Y-68685515D01*
G37*
G36*
X101020159Y-69450753D02*
G01*
X101005443Y-69465469D01*
X100990727Y-69450753D01*
X101005443Y-69436037D01*
X101020159Y-69450753D01*
G37*
G36*
X101343914Y-69362456D02*
G01*
X101329198Y-69377172D01*
X101314481Y-69362456D01*
X101329198Y-69347740D01*
X101343914Y-69362456D01*
G37*
G36*
X101373346Y-68773812D02*
G01*
X101358630Y-68788528D01*
X101343914Y-68773812D01*
X101358630Y-68759096D01*
X101373346Y-68773812D01*
G37*
G36*
X101402778Y-68891541D02*
G01*
X101388062Y-68906257D01*
X101373346Y-68891541D01*
X101388062Y-68876825D01*
X101402778Y-68891541D01*
G37*
G36*
X101461643Y-69391889D02*
G01*
X101446926Y-69406605D01*
X101432210Y-69391889D01*
X101446926Y-69377172D01*
X101461643Y-69391889D01*
G37*
G36*
X101667668Y-58972885D02*
G01*
X101652952Y-58987601D01*
X101638236Y-58972885D01*
X101652952Y-58958169D01*
X101667668Y-58972885D01*
G37*
G36*
X101932558Y-58855156D02*
G01*
X101917842Y-58869872D01*
X101903126Y-58855156D01*
X101917842Y-58840440D01*
X101932558Y-58855156D01*
G37*
G36*
X102168016Y-66007184D02*
G01*
X102153300Y-66021900D01*
X102138583Y-66007184D01*
X102153300Y-65992468D01*
X102168016Y-66007184D01*
G37*
G36*
X102226880Y-58766860D02*
G01*
X102212164Y-58781576D01*
X102197448Y-58766860D01*
X102212164Y-58752143D01*
X102226880Y-58766860D01*
G37*
G36*
X102226880Y-66036616D02*
G01*
X102212164Y-66051332D01*
X102197448Y-66036616D01*
X102212164Y-66021900D01*
X102226880Y-66036616D01*
G37*
G36*
X102521202Y-58855156D02*
G01*
X102506486Y-58869872D01*
X102491770Y-58855156D01*
X102506486Y-58840440D01*
X102521202Y-58855156D01*
G37*
G36*
X102550634Y-66183777D02*
G01*
X102535918Y-66198493D01*
X102521202Y-66183777D01*
X102535918Y-66169061D01*
X102550634Y-66183777D01*
G37*
G36*
X102756660Y-59061182D02*
G01*
X102741944Y-59075898D01*
X102727228Y-59061182D01*
X102741944Y-59046466D01*
X102756660Y-59061182D01*
G37*
G36*
X103374736Y-69450753D02*
G01*
X103360020Y-69465469D01*
X103345304Y-69450753D01*
X103360020Y-69436037D01*
X103374736Y-69450753D01*
G37*
G36*
X103374736Y-70009965D02*
G01*
X103360020Y-70024681D01*
X103345304Y-70009965D01*
X103360020Y-69995249D01*
X103374736Y-70009965D01*
G37*
G36*
X103786787Y-69951101D02*
G01*
X103772071Y-69965817D01*
X103757355Y-69951101D01*
X103772071Y-69936384D01*
X103786787Y-69951101D01*
G37*
G36*
X104139974Y-69951101D02*
G01*
X104125258Y-69965817D01*
X104110542Y-69951101D01*
X104125258Y-69936384D01*
X104139974Y-69951101D01*
G37*
G36*
X104404864Y-69862804D02*
G01*
X104390148Y-69877520D01*
X104375432Y-69862804D01*
X104390148Y-69848088D01*
X104404864Y-69862804D01*
G37*
G36*
X105523288Y-59326072D02*
G01*
X105508572Y-59340788D01*
X105493856Y-59326072D01*
X105508572Y-59311356D01*
X105523288Y-59326072D01*
G37*
G36*
X105641017Y-69686211D02*
G01*
X105626301Y-69700927D01*
X105611585Y-69686211D01*
X105626301Y-69671495D01*
X105641017Y-69686211D01*
G37*
G36*
X105699881Y-59355504D02*
G01*
X105685165Y-59370220D01*
X105670449Y-59355504D01*
X105685165Y-59340788D01*
X105699881Y-59355504D01*
G37*
G36*
X105847042Y-69038702D02*
G01*
X105832326Y-69053418D01*
X105817610Y-69038702D01*
X105832326Y-69023986D01*
X105847042Y-69038702D01*
G37*
G36*
X105994203Y-63623175D02*
G01*
X105979487Y-63637891D01*
X105964771Y-63623175D01*
X105979487Y-63608459D01*
X105994203Y-63623175D01*
G37*
G36*
X106082500Y-63799768D02*
G01*
X106067784Y-63814484D01*
X106053068Y-63799768D01*
X106067784Y-63785052D01*
X106082500Y-63799768D01*
G37*
G36*
X106082500Y-68361761D02*
G01*
X106067784Y-68376477D01*
X106053068Y-68361761D01*
X106067784Y-68347045D01*
X106082500Y-68361761D01*
G37*
G36*
X106111932Y-59443800D02*
G01*
X106097216Y-59458517D01*
X106082500Y-59443800D01*
X106097216Y-59429084D01*
X106111932Y-59443800D01*
G37*
G36*
X106111932Y-69774507D02*
G01*
X106097216Y-69789223D01*
X106082500Y-69774507D01*
X106097216Y-69759791D01*
X106111932Y-69774507D01*
G37*
G36*
X106229661Y-63093395D02*
G01*
X106214945Y-63108111D01*
X106200229Y-63093395D01*
X106214945Y-63078679D01*
X106229661Y-63093395D01*
G37*
G36*
X107406950Y-67066744D02*
G01*
X107392233Y-67081460D01*
X107377517Y-67066744D01*
X107392233Y-67052028D01*
X107406950Y-67066744D01*
G37*
G36*
X107465814Y-66213210D02*
G01*
X107451098Y-66227926D01*
X107436382Y-66213210D01*
X107451098Y-66198493D01*
X107465814Y-66213210D01*
G37*
G36*
X108407645Y-69215295D02*
G01*
X108392929Y-69230011D01*
X108378213Y-69215295D01*
X108392929Y-69200579D01*
X108407645Y-69215295D01*
G37*
G36*
X108878560Y-68567787D02*
G01*
X108863844Y-68582503D01*
X108849128Y-68567787D01*
X108863844Y-68553070D01*
X108878560Y-68567787D01*
G37*
G36*
X108966857Y-68508922D02*
G01*
X108952141Y-68523638D01*
X108937425Y-68508922D01*
X108952141Y-68494206D01*
X108966857Y-68508922D01*
G37*
G36*
X100961295Y-69494901D02*
G01*
X100959171Y-69510483D01*
X100941673Y-69514523D01*
X100938151Y-69510209D01*
X100941673Y-69475280D01*
X100950526Y-69470675D01*
X100961295Y-69494901D01*
G37*
G36*
X101314481Y-68847393D02*
G01*
X101312357Y-68862974D01*
X101294860Y-68867014D01*
X101291338Y-68862700D01*
X101294860Y-68827771D01*
X101303713Y-68823167D01*
X101314481Y-68847393D01*
G37*
G36*
X102952875Y-67827076D02*
G01*
X102957479Y-67835929D01*
X102933253Y-67846697D01*
X102917672Y-67844573D01*
X102913632Y-67827076D01*
X102917946Y-67823553D01*
X102952875Y-67827076D01*
G37*
G36*
X105964771Y-68670799D02*
G01*
X105962647Y-68686381D01*
X105945150Y-68690421D01*
X105941627Y-68686107D01*
X105945150Y-68651178D01*
X105954002Y-68646573D01*
X105964771Y-68670799D01*
G37*
G36*
X106671144Y-60047161D02*
G01*
X106669020Y-60062742D01*
X106651523Y-60066782D01*
X106648000Y-60062469D01*
X106651523Y-60027539D01*
X106660375Y-60022935D01*
X106671144Y-60047161D01*
G37*
G36*
X106671144Y-60576941D02*
G01*
X106669020Y-60592522D01*
X106651523Y-60596562D01*
X106648000Y-60592248D01*
X106651523Y-60557319D01*
X106660375Y-60552715D01*
X106671144Y-60576941D01*
G37*
G36*
X108348780Y-68523638D02*
G01*
X108346656Y-68539220D01*
X108329159Y-68543260D01*
X108325636Y-68538946D01*
X108329159Y-68504017D01*
X108338012Y-68499412D01*
X108348780Y-68523638D01*
G37*
G36*
X100444535Y-67761146D02*
G01*
X100434575Y-67771669D01*
X100385630Y-67787833D01*
X100351770Y-67784060D01*
X100351116Y-67769432D01*
X100402123Y-67749862D01*
X100435117Y-67746104D01*
X100444535Y-67761146D01*
G37*
G36*
X104927706Y-61534374D02*
G01*
X104920841Y-61576158D01*
X104911048Y-61586908D01*
X104871181Y-61589510D01*
X104858236Y-61576368D01*
X104872724Y-61539486D01*
X104899235Y-61523121D01*
X104927706Y-61534374D01*
G37*
G36*
X105163296Y-66145434D02*
G01*
X105140669Y-66169061D01*
X105114008Y-66185563D01*
X105086161Y-66195533D01*
X105096521Y-66169061D01*
X105102821Y-66161045D01*
X105149764Y-66140080D01*
X105163296Y-66145434D01*
G37*
G36*
X106111280Y-67810907D02*
G01*
X106101776Y-67860144D01*
X106089600Y-67881983D01*
X106053742Y-67905562D01*
X106040545Y-67894402D01*
X106059062Y-67848036D01*
X106091975Y-67808359D01*
X106111280Y-67810907D01*
G37*
G36*
X103215843Y-69466823D02*
G01*
X103242291Y-69494901D01*
X103246890Y-69506302D01*
X103229312Y-69524333D01*
X103220769Y-69523202D01*
X103198143Y-69494901D01*
X103198481Y-69488241D01*
X103211122Y-69465469D01*
X103215843Y-69466823D01*
G37*
G36*
X105009925Y-69819980D02*
G01*
X105037656Y-69848088D01*
X105043139Y-69858508D01*
X105041130Y-69877520D01*
X105035956Y-69876196D01*
X105008224Y-69848088D01*
X105002742Y-69837667D01*
X105004750Y-69818656D01*
X105009925Y-69819980D01*
G37*
G36*
X105823082Y-69501380D02*
G01*
X105832326Y-69524333D01*
X105826294Y-69532457D01*
X105788178Y-69553766D01*
X105780304Y-69552618D01*
X105744030Y-69524333D01*
X105746399Y-69505963D01*
X105788178Y-69494901D01*
X105823082Y-69501380D01*
G37*
G36*
X100053518Y-69288881D02*
G01*
X100101146Y-69300436D01*
X100096757Y-69328427D01*
X100041538Y-69364322D01*
X99985592Y-69387103D01*
X99965898Y-69380450D01*
X99977772Y-69337237D01*
X99996383Y-69311381D01*
X100052045Y-69288876D01*
X100053518Y-69288881D01*
G37*
G36*
X102683628Y-61241965D02*
G01*
X102685113Y-61280023D01*
X102676571Y-61291273D01*
X102638931Y-61312746D01*
X102614272Y-61304786D01*
X102588804Y-61265649D01*
X102599065Y-61223110D01*
X102607128Y-61216915D01*
X102649109Y-61215291D01*
X102683628Y-61241965D01*
G37*
G36*
X108532065Y-68409879D02*
G01*
X108554806Y-68433387D01*
X108532614Y-68455601D01*
X108473867Y-68473125D01*
X108416841Y-68482696D01*
X108386494Y-68489796D01*
X108385565Y-68486032D01*
X108397001Y-68450058D01*
X108427114Y-68422081D01*
X108480949Y-68407013D01*
X108532065Y-68409879D01*
G37*
G36*
X103950593Y-61741248D02*
G01*
X104009262Y-61771130D01*
X104041018Y-61797910D01*
X104043328Y-61810321D01*
X103992813Y-61800964D01*
X103936199Y-61791102D01*
X103853010Y-61784063D01*
X103811744Y-61777358D01*
X103786787Y-61754229D01*
X103787476Y-61749148D01*
X103818396Y-61728639D01*
X103879870Y-61726545D01*
X103950593Y-61741248D01*
G37*
G36*
X105264462Y-61773069D02*
G01*
X105205382Y-61841205D01*
X105133899Y-61898082D01*
X105032966Y-61927223D01*
X104919928Y-61901390D01*
X104892674Y-61887363D01*
X104900346Y-61877673D01*
X104961298Y-61874027D01*
X105057543Y-61853013D01*
X105161898Y-61795405D01*
X105173684Y-61786561D01*
X105245047Y-61741992D01*
X105276495Y-61738746D01*
X105264462Y-61773069D01*
G37*
G36*
X101248042Y-69300125D02*
G01*
X101235349Y-69315133D01*
X101169784Y-69342411D01*
X101049592Y-69384285D01*
X101011094Y-69396654D01*
X100921636Y-69421131D01*
X100859100Y-69432496D01*
X100822979Y-69432174D01*
X100823585Y-69416155D01*
X100865315Y-69371775D01*
X100918790Y-69332964D01*
X100996484Y-69309557D01*
X101114671Y-69297978D01*
X101121821Y-69297616D01*
X101209615Y-69295061D01*
X101248042Y-69300125D01*
G37*
G36*
X101246437Y-68825845D02*
G01*
X101201946Y-68841221D01*
X101176343Y-68812365D01*
X101177592Y-68803244D01*
X101196753Y-68803244D01*
X101211469Y-68817960D01*
X101226185Y-68803244D01*
X101211469Y-68788528D01*
X101196753Y-68803244D01*
X101177592Y-68803244D01*
X101185404Y-68746218D01*
X101233679Y-68681814D01*
X101311003Y-68667285D01*
X101418732Y-68702539D01*
X101535223Y-68759230D01*
X101425821Y-68743295D01*
X101375604Y-68738071D01*
X101317123Y-68747706D01*
X101278938Y-68787376D01*
X101265532Y-68803244D01*
X101246437Y-68825845D01*
G37*
G36*
X103016551Y-61491720D02*
G01*
X103013215Y-61498924D01*
X102971252Y-61541276D01*
X102902068Y-61584948D01*
X102886271Y-61592755D01*
X102812506Y-61623835D01*
X102763073Y-61636455D01*
X102704423Y-61624788D01*
X102623334Y-61593145D01*
X102548488Y-61553193D01*
X102505197Y-61516686D01*
X102503763Y-61514225D01*
X102510128Y-61504554D01*
X102552302Y-61528399D01*
X102642634Y-61566804D01*
X102759810Y-61578442D01*
X102874192Y-61560480D01*
X102961247Y-61513794D01*
X102969568Y-61506231D01*
X103008732Y-61479023D01*
X103016551Y-61491720D01*
G37*
G36*
X100401121Y-68827063D02*
G01*
X100458773Y-68859488D01*
X100478149Y-68893372D01*
X100457829Y-68922900D01*
X100439810Y-68930856D01*
X100443476Y-68910716D01*
X100442998Y-68891962D01*
X100410041Y-68885152D01*
X100362185Y-68895081D01*
X100321903Y-68920028D01*
X100316216Y-68929874D01*
X100340408Y-68921144D01*
X100364139Y-68911097D01*
X100360745Y-68931142D01*
X100340470Y-68949390D01*
X100282617Y-68965121D01*
X100250063Y-68970403D01*
X100225490Y-68994554D01*
X100224239Y-69002759D01*
X100194074Y-69023986D01*
X100182086Y-69016672D01*
X100179744Y-68974780D01*
X100198209Y-68913815D01*
X100232696Y-68854751D01*
X100252910Y-68838096D01*
X100322487Y-68819722D01*
X100401121Y-68827063D01*
G37*
G36*
X100848694Y-68588700D02*
G01*
X100906031Y-68612947D01*
X100928925Y-68643428D01*
X100909338Y-68688342D01*
X100905283Y-68693523D01*
X100861377Y-68722103D01*
X100801455Y-68741257D01*
X100748586Y-68745719D01*
X100725837Y-68730224D01*
X100733798Y-68714716D01*
X100781006Y-68696452D01*
X100850924Y-68696746D01*
X100856414Y-68696686D01*
X100872998Y-68670799D01*
X100870245Y-68658473D01*
X100836324Y-68642144D01*
X100779728Y-68653538D01*
X100720797Y-68690077D01*
X100687633Y-68732573D01*
X100665107Y-68800448D01*
X100663486Y-68832533D01*
X100656100Y-68839733D01*
X100635813Y-68793694D01*
X100627617Y-68768094D01*
X100630964Y-68681456D01*
X100677193Y-68614717D01*
X100753904Y-68579818D01*
X100848694Y-68588700D01*
G37*
G36*
X104494442Y-69958247D02*
G01*
X104426938Y-70002743D01*
X104400410Y-70015758D01*
X104330000Y-70045761D01*
X104295981Y-70047858D01*
X104287135Y-70023733D01*
X104271902Y-69998279D01*
X104246025Y-69982270D01*
X104316567Y-69982270D01*
X104316854Y-69986384D01*
X104333891Y-69992866D01*
X104363526Y-69961269D01*
X104370687Y-69944821D01*
X104350547Y-69948290D01*
X104337472Y-69957376D01*
X104316567Y-69982270D01*
X104246025Y-69982270D01*
X104220913Y-69966734D01*
X104182270Y-69950151D01*
X104181284Y-69941045D01*
X104235629Y-69938250D01*
X104295199Y-69925952D01*
X104317018Y-69884878D01*
X104322565Y-69852018D01*
X104343291Y-69874146D01*
X104371276Y-69896729D01*
X104445853Y-69895659D01*
X104453047Y-69893957D01*
X104509399Y-69893079D01*
X104522564Y-69918101D01*
X104503847Y-69944821D01*
X104494442Y-69958247D01*
G37*
G36*
X100027722Y-67589165D02*
G01*
X100043133Y-67616797D01*
X100079142Y-67640672D01*
X100089242Y-67639273D01*
X100096943Y-67617547D01*
X100099009Y-67604146D01*
X100138208Y-67594421D01*
X100160929Y-67595101D01*
X100177302Y-67606750D01*
X100148417Y-67644530D01*
X100139701Y-67654603D01*
X100118509Y-67702427D01*
X100139237Y-67762220D01*
X100175405Y-67829800D01*
X100199499Y-67764668D01*
X100208356Y-67742051D01*
X100230918Y-67703523D01*
X100241472Y-67721589D01*
X100238663Y-67795191D01*
X100238319Y-67798680D01*
X100232833Y-67855134D01*
X100231326Y-67870639D01*
X100227368Y-67912920D01*
X100221692Y-67922924D01*
X100181341Y-67934994D01*
X100160752Y-67940122D01*
X100137193Y-67979142D01*
X100136292Y-68008575D01*
X100135982Y-68018686D01*
X100120623Y-68066118D01*
X100074192Y-68106025D01*
X100062428Y-68115738D01*
X100010973Y-68180529D01*
X99958662Y-68271170D01*
X99918061Y-68363741D01*
X99901735Y-68434321D01*
X99890755Y-68480303D01*
X99855918Y-68546522D01*
X99829838Y-68591707D01*
X99830090Y-68611935D01*
X99834482Y-68621068D01*
X99812282Y-68657476D01*
X99801906Y-68668396D01*
X99763728Y-68678430D01*
X99736333Y-68637823D01*
X99725142Y-68553070D01*
X99724524Y-68532124D01*
X99716679Y-68502161D01*
X99695710Y-68523638D01*
X99685394Y-68537484D01*
X99670855Y-68534927D01*
X99666278Y-68479490D01*
X99665279Y-68448672D01*
X99656858Y-68416790D01*
X99636845Y-68435342D01*
X99627483Y-68448381D01*
X99612259Y-68449935D01*
X99607864Y-68398551D01*
X99599485Y-68343018D01*
X99577981Y-68317613D01*
X99557205Y-68292132D01*
X99548549Y-68230765D01*
X99547479Y-68202695D01*
X99536914Y-68107010D01*
X99519736Y-68008575D01*
X99548549Y-68008575D01*
X99563265Y-68023291D01*
X99577981Y-68008575D01*
X99563265Y-67993858D01*
X99548549Y-68008575D01*
X99519736Y-68008575D01*
X99518705Y-68002665D01*
X99513902Y-67978489D01*
X99497243Y-67872806D01*
X99493967Y-67845389D01*
X100021996Y-67845389D01*
X100045244Y-67883978D01*
X100049120Y-67887781D01*
X100070681Y-67901887D01*
X100068256Y-67892583D01*
X100137193Y-67892583D01*
X100137479Y-67896697D01*
X100151121Y-67901887D01*
X100154517Y-67903179D01*
X100184152Y-67871582D01*
X100191313Y-67855134D01*
X100171173Y-67858603D01*
X100158098Y-67867688D01*
X100137193Y-67892583D01*
X100068256Y-67892583D01*
X100061720Y-67867502D01*
X100047042Y-67840035D01*
X100025148Y-67831202D01*
X100021996Y-67845389D01*
X99493967Y-67845389D01*
X99482314Y-67747877D01*
X99470056Y-67616645D01*
X99464578Y-67537659D01*
X99901735Y-67537659D01*
X99916451Y-67552375D01*
X99931167Y-67537659D01*
X99916451Y-67522943D01*
X99901735Y-67537659D01*
X99464578Y-67537659D01*
X99461414Y-67492049D01*
X99457330Y-67387029D01*
X99458746Y-67314528D01*
X99466605Y-67287485D01*
X99472812Y-67286333D01*
X99489684Y-67256316D01*
X99487373Y-67245671D01*
X99460252Y-67243337D01*
X99458563Y-67244137D01*
X99443794Y-67221436D01*
X99435165Y-67144413D01*
X99433143Y-67016974D01*
X99435467Y-66772422D01*
X99481195Y-66901861D01*
X99491540Y-66928237D01*
X99548099Y-67034200D01*
X99614995Y-67122603D01*
X99673850Y-67189632D01*
X99739963Y-67276016D01*
X99797883Y-67361387D01*
X99837710Y-67431067D01*
X99849544Y-67470377D01*
X99850490Y-67478093D01*
X99880014Y-67478564D01*
X99926793Y-67482398D01*
X99985344Y-67523592D01*
X99994435Y-67537659D01*
X100027722Y-67589165D01*
G37*
G36*
X105360082Y-65532468D02*
G01*
X105369336Y-65595442D01*
X105352971Y-65651022D01*
X105306574Y-65726772D01*
X105280361Y-65768174D01*
X105250461Y-65823592D01*
X105246868Y-65845307D01*
X105250844Y-65853765D01*
X105228966Y-65889455D01*
X105211452Y-65915460D01*
X105213387Y-65933603D01*
X105207609Y-65953002D01*
X105171346Y-66005473D01*
X105112360Y-66079423D01*
X105007919Y-66214566D01*
X104913161Y-66376424D01*
X104851456Y-66548160D01*
X104812911Y-66751990D01*
X104804368Y-66818268D01*
X104793627Y-66926141D01*
X104793966Y-67001091D01*
X104806240Y-67060253D01*
X104831304Y-67120761D01*
X104858325Y-67169160D01*
X104930469Y-67268116D01*
X105021524Y-67370687D01*
X105118480Y-67463807D01*
X105208324Y-67534408D01*
X105278045Y-67569423D01*
X105346048Y-67590799D01*
X105421936Y-67626403D01*
X105462284Y-67643253D01*
X105551537Y-67665043D01*
X105657394Y-67680019D01*
X105731636Y-67686823D01*
X105847049Y-67697412D01*
X105935339Y-67705527D01*
X105996876Y-67714809D01*
X106027780Y-67738214D01*
X106028070Y-67756100D01*
X106028592Y-67788213D01*
X106018456Y-67827076D01*
X106012585Y-67849588D01*
X105974588Y-67930412D01*
X105949802Y-67971449D01*
X105950580Y-67989684D01*
X105991706Y-67979935D01*
X106036637Y-67977129D01*
X106053048Y-68002366D01*
X106020493Y-68039949D01*
X106005397Y-68056254D01*
X106027851Y-68085383D01*
X106050062Y-68103456D01*
X106030994Y-68111137D01*
X106017484Y-68113369D01*
X105994203Y-68141019D01*
X106000261Y-68155420D01*
X106041259Y-68170452D01*
X106042280Y-68170455D01*
X106067518Y-68177732D01*
X106063180Y-68207737D01*
X106027535Y-68273464D01*
X106024646Y-68278373D01*
X105992134Y-68340934D01*
X105994225Y-68373147D01*
X106038867Y-68382787D01*
X106134006Y-68377629D01*
X106160142Y-68377379D01*
X106195872Y-68396825D01*
X106195847Y-68396908D01*
X106182137Y-68443007D01*
X106119290Y-68512708D01*
X106101346Y-68529701D01*
X106071644Y-68562809D01*
X106079689Y-68565613D01*
X106102713Y-68557363D01*
X106100027Y-68577955D01*
X106094565Y-68584618D01*
X106043211Y-68607069D01*
X105975704Y-68610662D01*
X105925784Y-68592569D01*
X105920323Y-68577715D01*
X105937741Y-68535461D01*
X105948123Y-68521782D01*
X105943895Y-68512479D01*
X105895576Y-68532399D01*
X105850093Y-68560803D01*
X105842030Y-68582149D01*
X105858671Y-68618037D01*
X105871349Y-68685515D01*
X105889280Y-68754999D01*
X105922749Y-68806489D01*
X105943656Y-68827973D01*
X105964771Y-68878337D01*
X105974925Y-68892266D01*
X106007456Y-68860376D01*
X106031476Y-68829488D01*
X106043186Y-68826674D01*
X106034335Y-68876825D01*
X106029874Y-68899139D01*
X106029588Y-68927517D01*
X106050064Y-68906257D01*
X106068618Y-68886296D01*
X106082049Y-68893013D01*
X106073574Y-68924168D01*
X106028890Y-68972877D01*
X105969487Y-68994554D01*
X105936008Y-68984438D01*
X105884675Y-68943047D01*
X105864236Y-68918691D01*
X105849347Y-68907869D01*
X105858432Y-68943047D01*
X105861635Y-68974401D01*
X105831402Y-68994554D01*
X105811977Y-68997532D01*
X105788178Y-69022296D01*
X105776557Y-69036558D01*
X105729313Y-69038702D01*
X105694303Y-69037436D01*
X105670449Y-69055108D01*
X105681476Y-69071225D01*
X105729313Y-69082850D01*
X105759139Y-69088579D01*
X105786453Y-69123766D01*
X105775669Y-69175252D01*
X105727076Y-69224578D01*
X105722124Y-69227726D01*
X105685418Y-69264396D01*
X105699047Y-69302587D01*
X105713465Y-69342055D01*
X105677272Y-69381879D01*
X105635803Y-69421834D01*
X105590248Y-69499197D01*
X105577899Y-69571914D01*
X105570497Y-69599582D01*
X105531035Y-69644524D01*
X105502485Y-69664184D01*
X105500958Y-69658516D01*
X105506813Y-69635099D01*
X105486242Y-69585906D01*
X105472722Y-69568225D01*
X105466440Y-69554104D01*
X105501214Y-69579444D01*
X105537178Y-69601127D01*
X105552720Y-69585878D01*
X105547614Y-69568113D01*
X105508572Y-69534977D01*
X105487762Y-69521351D01*
X105463493Y-69469678D01*
X105460413Y-69452842D01*
X105438399Y-69455357D01*
X105389913Y-69503901D01*
X105383464Y-69511354D01*
X105338870Y-69572056D01*
X105325164Y-69601063D01*
X105317625Y-69617018D01*
X105322898Y-69635205D01*
X105357855Y-69615581D01*
X105368861Y-69607297D01*
X105396063Y-69606310D01*
X105412638Y-69656126D01*
X105413891Y-69710993D01*
X105383329Y-69730359D01*
X105357724Y-69740041D01*
X105355223Y-69789223D01*
X105354070Y-69803940D01*
X105351758Y-69833435D01*
X105305082Y-69846015D01*
X105214711Y-69821141D01*
X105181301Y-69803940D01*
X105287830Y-69803940D01*
X105302546Y-69818656D01*
X105317262Y-69803940D01*
X105302546Y-69789223D01*
X105287830Y-69803940D01*
X105181301Y-69803940D01*
X105180551Y-69803554D01*
X105188329Y-69784358D01*
X105244143Y-69751898D01*
X105290863Y-69724983D01*
X105307655Y-69702761D01*
X105280251Y-69685246D01*
X105221676Y-69675134D01*
X105130920Y-69684362D01*
X105046433Y-69712604D01*
X104994330Y-69753617D01*
X104978018Y-69778008D01*
X104954268Y-69784561D01*
X104917687Y-69745075D01*
X104912266Y-69738229D01*
X104885190Y-69708725D01*
X104878378Y-69722884D01*
X104886616Y-69787894D01*
X104901976Y-69889576D01*
X104802082Y-69780536D01*
X104777423Y-69754390D01*
X104710170Y-69693543D01*
X104669342Y-69673761D01*
X104663728Y-69686211D01*
X104659401Y-69695807D01*
X104666444Y-69713726D01*
X104684809Y-69760447D01*
X104712469Y-69835609D01*
X104702142Y-69900251D01*
X104683074Y-69925870D01*
X104662644Y-69916618D01*
X104634244Y-69858243D01*
X104609090Y-69806006D01*
X104581553Y-69784570D01*
X104544052Y-69802648D01*
X104490531Y-69823154D01*
X104412187Y-69823855D01*
X104331283Y-69807798D01*
X104404864Y-69786728D01*
X104478444Y-69765659D01*
X104403392Y-69762725D01*
X104331421Y-69773422D01*
X104331265Y-69773542D01*
X104282011Y-69811450D01*
X104277868Y-69866390D01*
X104281094Y-69885926D01*
X104259115Y-69906952D01*
X104247082Y-69904562D01*
X104242987Y-69877520D01*
X104247702Y-69866222D01*
X104231745Y-69848088D01*
X104225053Y-69848719D01*
X104185522Y-69875256D01*
X104185492Y-69875303D01*
X104159500Y-69892236D01*
X104147154Y-69900279D01*
X104078695Y-69922199D01*
X104060109Y-69926691D01*
X104009136Y-69951655D01*
X104005525Y-69990685D01*
X104009623Y-70003192D01*
X104008832Y-70017883D01*
X103980127Y-69984944D01*
X103946212Y-69954869D01*
X103906475Y-69949890D01*
X103885793Y-69955183D01*
X103875588Y-69933317D01*
X103895557Y-69896290D01*
X103897773Y-69892236D01*
X103963381Y-69892236D01*
X103978097Y-69906952D01*
X103992813Y-69892236D01*
X103991290Y-69890713D01*
X104029212Y-69890713D01*
X104055239Y-69883820D01*
X104110651Y-69833256D01*
X104125194Y-69817272D01*
X104154288Y-69773542D01*
X104137468Y-69759791D01*
X104102060Y-69773777D01*
X104056718Y-69821522D01*
X104037768Y-69855067D01*
X104029212Y-69890713D01*
X103991290Y-69890713D01*
X103978097Y-69877520D01*
X103963381Y-69892236D01*
X103897773Y-69892236D01*
X103916825Y-69857386D01*
X103921746Y-69811192D01*
X103905516Y-69789223D01*
X103883859Y-69798963D01*
X103841898Y-69839021D01*
X103829383Y-69854733D01*
X103817202Y-69876591D01*
X103845652Y-69863735D01*
X103866813Y-69853909D01*
X103867034Y-69863682D01*
X103854530Y-69871452D01*
X103794499Y-69888235D01*
X103708491Y-69900094D01*
X103667993Y-69903187D01*
X103606451Y-69903009D01*
X103584314Y-69887827D01*
X103588183Y-69852321D01*
X103593951Y-69823803D01*
X103581494Y-69806292D01*
X103529455Y-69821377D01*
X103503878Y-69829135D01*
X103430643Y-69835170D01*
X103370354Y-69821686D01*
X103345304Y-69792213D01*
X103363644Y-69768385D01*
X103962259Y-69768385D01*
X103994407Y-69767588D01*
X104051722Y-69743710D01*
X104055298Y-69741705D01*
X104092427Y-69713726D01*
X104081110Y-69702420D01*
X104056862Y-69705045D01*
X103993665Y-69729209D01*
X103972819Y-69745075D01*
X103967471Y-69749145D01*
X103962259Y-69768385D01*
X103363644Y-69768385D01*
X103365490Y-69765986D01*
X103396830Y-69745075D01*
X103698491Y-69745075D01*
X103713207Y-69759791D01*
X103727923Y-69745075D01*
X103904516Y-69745075D01*
X103919232Y-69759791D01*
X103933948Y-69745075D01*
X103919232Y-69730359D01*
X103904516Y-69745075D01*
X103727923Y-69745075D01*
X103713207Y-69730359D01*
X103698491Y-69745075D01*
X103396830Y-69745075D01*
X103418885Y-69730359D01*
X103469334Y-69696665D01*
X103477356Y-69686211D01*
X103845652Y-69686211D01*
X103860368Y-69700927D01*
X103875084Y-69686211D01*
X104139974Y-69686211D01*
X104154690Y-69700927D01*
X104169406Y-69686211D01*
X104154690Y-69671495D01*
X104139974Y-69686211D01*
X103875084Y-69686211D01*
X103860368Y-69671495D01*
X103845652Y-69686211D01*
X103477356Y-69686211D01*
X103492465Y-69666521D01*
X103496100Y-69658277D01*
X104806847Y-69658277D01*
X104811483Y-69669805D01*
X104833663Y-69699048D01*
X104859157Y-69674579D01*
X104861674Y-69659671D01*
X104847541Y-69646016D01*
X105061178Y-69646016D01*
X105068297Y-69659671D01*
X105071421Y-69665663D01*
X105079481Y-69650344D01*
X105087003Y-69634328D01*
X105125953Y-69631419D01*
X105152005Y-69634482D01*
X105170101Y-69601063D01*
X105167992Y-69578468D01*
X105142871Y-69555858D01*
X105085575Y-69580245D01*
X105068038Y-69597685D01*
X105063828Y-69627346D01*
X105061178Y-69646016D01*
X104847541Y-69646016D01*
X104832961Y-69631929D01*
X104808168Y-69628398D01*
X104806847Y-69658277D01*
X103496100Y-69658277D01*
X103497409Y-69655309D01*
X103536614Y-69642062D01*
X103556913Y-69638816D01*
X103567617Y-69627346D01*
X104993508Y-69627346D01*
X105008224Y-69642062D01*
X105022940Y-69627346D01*
X105008224Y-69612630D01*
X104993508Y-69627346D01*
X103567617Y-69627346D01*
X103580762Y-69613261D01*
X103563111Y-69601306D01*
X103507181Y-69617985D01*
X103457319Y-69646876D01*
X103433601Y-69674688D01*
X103433321Y-69676428D01*
X103404991Y-69681683D01*
X103344362Y-69666756D01*
X103311385Y-69654037D01*
X103276649Y-69627865D01*
X103288032Y-69595996D01*
X103301678Y-69571018D01*
X103299142Y-69521075D01*
X103291556Y-69504558D01*
X103307990Y-69504746D01*
X103328989Y-69508711D01*
X103371764Y-69483766D01*
X103388749Y-69449739D01*
X103363004Y-69409080D01*
X103335258Y-69392080D01*
X103302039Y-69405175D01*
X103290258Y-69417873D01*
X103238817Y-69436037D01*
X103219244Y-69431861D01*
X103213656Y-69405315D01*
X103217255Y-69377926D01*
X103193319Y-69326085D01*
X103175349Y-69299329D01*
X103184894Y-69296038D01*
X103212245Y-69294914D01*
X103251366Y-69257540D01*
X103258088Y-69246487D01*
X103271374Y-69209637D01*
X103244697Y-69200579D01*
X103236116Y-69199164D01*
X103193875Y-69164657D01*
X103153977Y-69101540D01*
X103128791Y-69033349D01*
X103130685Y-68983621D01*
X103129437Y-68972867D01*
X103095270Y-68994554D01*
X103070185Y-69013937D01*
X103049886Y-69021502D01*
X103059128Y-68987549D01*
X103066266Y-68959106D01*
X103057281Y-68939528D01*
X103032697Y-68941707D01*
X102986527Y-68923356D01*
X102978857Y-68862109D01*
X102977438Y-68813395D01*
X102960094Y-68788528D01*
X102944665Y-68777927D01*
X102933253Y-68730587D01*
X102924772Y-68693258D01*
X102887349Y-68690262D01*
X102854489Y-68691188D01*
X102825139Y-68645521D01*
X102809205Y-68610133D01*
X102782746Y-68599287D01*
X102767376Y-68597839D01*
X102756660Y-68558777D01*
X102739653Y-68497434D01*
X102697795Y-68427310D01*
X102656585Y-68357912D01*
X102638931Y-68293349D01*
X102634985Y-68271212D01*
X102678704Y-68271212D01*
X102682066Y-68313539D01*
X102717767Y-68368418D01*
X102741560Y-68386279D01*
X102806064Y-68402495D01*
X102813640Y-68401984D01*
X102840896Y-68396908D01*
X102811187Y-68386203D01*
X102782082Y-68369654D01*
X102747720Y-68316036D01*
X102733325Y-68283267D01*
X102700551Y-68258748D01*
X102678704Y-68271212D01*
X102634985Y-68271212D01*
X102632536Y-68257474D01*
X102602141Y-68218902D01*
X102585424Y-68198316D01*
X102617543Y-68161197D01*
X102642582Y-68139591D01*
X102649008Y-68116739D01*
X102602826Y-68097863D01*
X102535918Y-68076914D01*
X102609499Y-68053036D01*
X102678557Y-68036453D01*
X102771376Y-68024681D01*
X102797818Y-68021378D01*
X102854544Y-67997164D01*
X102918769Y-67942033D01*
X103002610Y-67846655D01*
X103011142Y-67835929D01*
X105793384Y-67835929D01*
X105817610Y-67846697D01*
X105833191Y-67844573D01*
X105837232Y-67827076D01*
X105832918Y-67823553D01*
X105797989Y-67827076D01*
X105793384Y-67835929D01*
X103011142Y-67835929D01*
X103060265Y-67774176D01*
X105858610Y-67774176D01*
X105887044Y-67796885D01*
X105889011Y-67797619D01*
X105942809Y-67797175D01*
X105964771Y-67756100D01*
X105946206Y-67741778D01*
X105901376Y-67744253D01*
X105861341Y-67763724D01*
X105858610Y-67774176D01*
X103060265Y-67774176D01*
X103124456Y-67693482D01*
X103227800Y-67547475D01*
X103296068Y-67425941D01*
X103333742Y-67320733D01*
X103345304Y-67223704D01*
X103344075Y-67166141D01*
X103320477Y-66972262D01*
X103269640Y-66807616D01*
X103195207Y-66685277D01*
X103173095Y-66659056D01*
X103127851Y-66596826D01*
X103109846Y-66557769D01*
X103107358Y-66548925D01*
X103074008Y-66505570D01*
X103014192Y-66451129D01*
X102997547Y-66437751D01*
X102925398Y-66377954D01*
X102872923Y-66331840D01*
X102868395Y-66327788D01*
X102806422Y-66285961D01*
X102725762Y-66244850D01*
X102703280Y-66234506D01*
X102663104Y-66209612D01*
X102668363Y-66198602D01*
X102684672Y-66188459D01*
X102660792Y-66166870D01*
X102611483Y-66141624D01*
X102551948Y-66120491D01*
X102497391Y-66111240D01*
X102457212Y-66104299D01*
X102445561Y-66084099D01*
X102442910Y-66048465D01*
X102394013Y-66008949D01*
X102307654Y-65976927D01*
X102251981Y-65955682D01*
X102226880Y-65930413D01*
X102209109Y-65913265D01*
X102154223Y-65904171D01*
X102104331Y-65895264D01*
X102097487Y-65862682D01*
X102097559Y-65835806D01*
X102059773Y-65802319D01*
X102057819Y-65801598D01*
X102011311Y-65771637D01*
X101960866Y-65722831D01*
X101918320Y-65669830D01*
X101895510Y-65627286D01*
X101904272Y-65609849D01*
X101904766Y-65609845D01*
X101917071Y-65589318D01*
X101887281Y-65530415D01*
X101887258Y-65530381D01*
X101856196Y-65467578D01*
X101857579Y-65464604D01*
X105265614Y-65464604D01*
X105273114Y-65492120D01*
X105279161Y-65500833D01*
X105306020Y-65521552D01*
X105310046Y-65519636D01*
X105302546Y-65492120D01*
X105296500Y-65483408D01*
X105269640Y-65462688D01*
X105265614Y-65464604D01*
X101857579Y-65464604D01*
X101869180Y-65439666D01*
X101883620Y-65430702D01*
X101903126Y-65384918D01*
X101907265Y-65365931D01*
X101934342Y-65360778D01*
X101953854Y-65359628D01*
X102005369Y-65327199D01*
X102069058Y-65266860D01*
X102110885Y-65224167D01*
X102148652Y-65194913D01*
X102156984Y-65203881D01*
X102151375Y-65229245D01*
X102166381Y-65239791D01*
X102220935Y-65220265D01*
X102285169Y-65187813D01*
X102351967Y-65143397D01*
X102386914Y-65120837D01*
X102403473Y-65134372D01*
X102401495Y-65145719D01*
X102369136Y-65168366D01*
X102357292Y-65169859D01*
X102353708Y-65187276D01*
X102372720Y-65191344D01*
X102417478Y-65168956D01*
X102444267Y-65151470D01*
X102462338Y-65155553D01*
X102464007Y-65158815D01*
X102491901Y-65146500D01*
X102543276Y-65104284D01*
X102570639Y-65080840D01*
X102639628Y-65035282D01*
X102700705Y-65010020D01*
X102740388Y-65009475D01*
X102745192Y-65038068D01*
X102740579Y-65051960D01*
X102745510Y-65076575D01*
X102786098Y-65066536D01*
X102867742Y-65021095D01*
X102914206Y-64993301D01*
X102965615Y-64967390D01*
X102982316Y-64972052D01*
X102973528Y-65005969D01*
X102969760Y-65017588D01*
X102975511Y-65034000D01*
X103013124Y-65030784D01*
X103094491Y-65008154D01*
X103126787Y-64998602D01*
X103192598Y-64982431D01*
X103218452Y-64985771D01*
X103216093Y-65008674D01*
X103211422Y-65039403D01*
X103234643Y-65047620D01*
X103280553Y-65015318D01*
X103307692Y-64996129D01*
X103316808Y-65022676D01*
X103316958Y-65026671D01*
X103327470Y-65043768D01*
X103358998Y-65010900D01*
X103392105Y-64980923D01*
X103431643Y-64975846D01*
X103444553Y-64981357D01*
X103463033Y-64967520D01*
X103468437Y-64961245D01*
X103512106Y-64962253D01*
X103585285Y-64981912D01*
X103616896Y-64991917D01*
X103696185Y-65009321D01*
X103746219Y-65009188D01*
X103763814Y-65005582D01*
X103802298Y-65022490D01*
X103807320Y-65029229D01*
X103849126Y-65050637D01*
X103857264Y-65049508D01*
X103863490Y-65026256D01*
X103873482Y-65017024D01*
X103927299Y-65012057D01*
X104013611Y-65015574D01*
X104062999Y-65019259D01*
X104133757Y-65020187D01*
X104162825Y-65009373D01*
X104161589Y-64984422D01*
X104160412Y-64981243D01*
X104162569Y-64952143D01*
X104208398Y-64955106D01*
X104250843Y-64970312D01*
X104322071Y-65013523D01*
X104358561Y-65035691D01*
X104402145Y-65037601D01*
X104403433Y-65036882D01*
X104450075Y-65037543D01*
X104517360Y-65062647D01*
X104525448Y-65066826D01*
X104578490Y-65090907D01*
X104594585Y-65079983D01*
X104587523Y-65027060D01*
X104572894Y-64947624D01*
X104639142Y-65006489D01*
X104717648Y-65049915D01*
X104834733Y-65062531D01*
X104871576Y-65062762D01*
X104937828Y-65070188D01*
X104964076Y-65084605D01*
X104964082Y-65084899D01*
X104990358Y-65102285D01*
X105052373Y-65109502D01*
X105053458Y-65109504D01*
X105115089Y-65117962D01*
X105140669Y-65137910D01*
X105143273Y-65148025D01*
X105172338Y-65197305D01*
X105223262Y-65262997D01*
X105235519Y-65278149D01*
X105299027Y-65378455D01*
X105345436Y-65483956D01*
X105356208Y-65519636D01*
X105360082Y-65532468D01*
G37*
G36*
X106374202Y-61975783D02*
G01*
X106399062Y-62035468D01*
X106415675Y-62096501D01*
X106414410Y-62127317D01*
X106389511Y-62125427D01*
X106368803Y-62121188D01*
X106347390Y-62137772D01*
X106351079Y-62149641D01*
X106387777Y-62166280D01*
X106394552Y-62167483D01*
X106425317Y-62205448D01*
X106447617Y-62287938D01*
X106454523Y-62343096D01*
X106453297Y-62410744D01*
X106436125Y-62431866D01*
X106405105Y-62400886D01*
X106396847Y-62389396D01*
X106382588Y-62390841D01*
X106379596Y-62445886D01*
X106379797Y-62452907D01*
X106385756Y-62498702D01*
X106396376Y-62497209D01*
X106396768Y-62496242D01*
X106419257Y-62464878D01*
X106435915Y-62480726D01*
X106442705Y-62532346D01*
X106435589Y-62608296D01*
X106428241Y-62645539D01*
X106404038Y-62726804D01*
X106377321Y-62752368D01*
X106346240Y-62724640D01*
X106340550Y-62716036D01*
X106323229Y-62704927D01*
X106318408Y-62747566D01*
X106325035Y-62788878D01*
X106349373Y-62813789D01*
X106364764Y-62825769D01*
X106362276Y-62871819D01*
X106337478Y-62935137D01*
X106295827Y-62997046D01*
X106262519Y-63025437D01*
X106226590Y-63032633D01*
X106203494Y-63045901D01*
X106182317Y-63099549D01*
X106175695Y-63124772D01*
X106144787Y-63201784D01*
X106111095Y-63237673D01*
X106081403Y-63224066D01*
X106072661Y-63217860D01*
X106039450Y-63240414D01*
X105992447Y-63310969D01*
X105969589Y-63348138D01*
X105921339Y-63408172D01*
X105884034Y-63431865D01*
X105866778Y-63427832D01*
X105864569Y-63397886D01*
X105870866Y-63382657D01*
X105852143Y-63383588D01*
X105803107Y-63415399D01*
X105732634Y-63473034D01*
X105713290Y-63489366D01*
X105669699Y-63513806D01*
X105648445Y-63495695D01*
X105642069Y-63485247D01*
X105609784Y-63488662D01*
X105549777Y-63537698D01*
X105530573Y-63555185D01*
X105476924Y-63593812D01*
X105446283Y-63600129D01*
X105445257Y-63599256D01*
X105406741Y-63600022D01*
X105343754Y-63624696D01*
X105295207Y-63648251D01*
X105271485Y-63650788D01*
X105277054Y-63623522D01*
X105279628Y-63616660D01*
X105285657Y-63588630D01*
X105268880Y-63584369D01*
X105219972Y-63605876D01*
X105129607Y-63655153D01*
X105128660Y-63655682D01*
X105049996Y-63696234D01*
X105013135Y-63705308D01*
X105011320Y-63684585D01*
X105013695Y-63678013D01*
X105012974Y-63643131D01*
X104972694Y-63649019D01*
X104891524Y-63695803D01*
X104820954Y-63731188D01*
X104784356Y-63721129D01*
X104755784Y-63707938D01*
X104695840Y-63736991D01*
X104687931Y-63742436D01*
X104626565Y-63776922D01*
X104591854Y-63782816D01*
X104594797Y-63757847D01*
X104595649Y-63756418D01*
X104592539Y-63728822D01*
X104551151Y-63720719D01*
X104487994Y-63731756D01*
X104419580Y-63761582D01*
X104413746Y-63765041D01*
X104336797Y-63804636D01*
X104297893Y-63811626D01*
X104301851Y-63785052D01*
X104306244Y-63762666D01*
X104269103Y-63758946D01*
X104186038Y-63784323D01*
X104133795Y-63797361D01*
X104110542Y-63788631D01*
X104110525Y-63788140D01*
X104083811Y-63774412D01*
X104019190Y-63772549D01*
X103935749Y-63781648D01*
X103852572Y-63800809D01*
X103831726Y-63806781D01*
X103799773Y-63805433D01*
X103806176Y-63768773D01*
X103809621Y-63759347D01*
X103810134Y-63729613D01*
X103769823Y-63738298D01*
X103692823Y-63762485D01*
X103609958Y-63777242D01*
X103546936Y-63777756D01*
X103521897Y-63762271D01*
X103520398Y-63756862D01*
X103482101Y-63743766D01*
X103399663Y-63748184D01*
X103342671Y-63754156D01*
X103299643Y-63749905D01*
X103299793Y-63728392D01*
X103302523Y-63709922D01*
X103268577Y-63703516D01*
X103186189Y-63712596D01*
X103147755Y-63718105D01*
X103085744Y-63722773D01*
X103064095Y-63711424D01*
X103070319Y-63680610D01*
X103077749Y-63647489D01*
X103055157Y-63650027D01*
X103004989Y-63670560D01*
X102925701Y-63683257D01*
X102852589Y-63679829D01*
X102810583Y-63659328D01*
X102769506Y-63633058D01*
X102698869Y-63619496D01*
X102630253Y-63616551D01*
X102545755Y-63611589D01*
X102505281Y-63605436D01*
X102499274Y-63596082D01*
X102518177Y-63581519D01*
X102527398Y-63574053D01*
X102514927Y-63560046D01*
X102445578Y-63555481D01*
X102424058Y-63554958D01*
X102354855Y-63544908D01*
X102322062Y-63526101D01*
X102315634Y-63519109D01*
X102266845Y-63507569D01*
X102188636Y-63508634D01*
X102153303Y-63511401D01*
X102104393Y-63511171D01*
X102101793Y-63503185D01*
X102125012Y-63489843D01*
X102138950Y-63463924D01*
X102106304Y-63449227D01*
X102035571Y-63452283D01*
X101989260Y-63458162D01*
X101944306Y-63451955D01*
X101932558Y-63421000D01*
X101930334Y-63405712D01*
X101899190Y-63380203D01*
X101822187Y-63372550D01*
X101797979Y-63372058D01*
X101746363Y-63364165D01*
X101751074Y-63347214D01*
X101772681Y-63323964D01*
X101741309Y-63303516D01*
X101697299Y-63292244D01*
X101619376Y-63284704D01*
X101574882Y-63277278D01*
X101564655Y-63255272D01*
X101566294Y-63251576D01*
X101545870Y-63232915D01*
X101479833Y-63225840D01*
X101430576Y-63222508D01*
X101372918Y-63205862D01*
X101352737Y-63181638D01*
X101380521Y-63157097D01*
X101388027Y-63146610D01*
X101350348Y-63139867D01*
X101306093Y-63129792D01*
X101267280Y-63096051D01*
X101241896Y-63066245D01*
X101181472Y-63037019D01*
X101180045Y-63036646D01*
X101116379Y-62998664D01*
X101060765Y-62933447D01*
X101058487Y-62929659D01*
X101008594Y-62867384D01*
X100959534Y-62834233D01*
X100958726Y-62834012D01*
X100909782Y-62799565D01*
X100862689Y-62736481D01*
X100835209Y-62685752D01*
X100796043Y-62608566D01*
X103463033Y-62608566D01*
X103472593Y-62613901D01*
X103523226Y-62608729D01*
X103602836Y-62588216D01*
X103714494Y-62562447D01*
X103887954Y-62553983D01*
X104046658Y-62582407D01*
X104173774Y-62646015D01*
X104202817Y-62667408D01*
X104266764Y-62708923D01*
X104304629Y-62725346D01*
X104307296Y-62716916D01*
X104277746Y-62683361D01*
X104220694Y-62633654D01*
X104148092Y-62578003D01*
X104071895Y-62526616D01*
X104028044Y-62495459D01*
X104001706Y-62449478D01*
X104007595Y-62376521D01*
X104010641Y-62360502D01*
X104038279Y-62246466D01*
X104074221Y-62175263D01*
X104129338Y-62132580D01*
X104214500Y-62104107D01*
X104290063Y-62078966D01*
X104381412Y-62019239D01*
X104422411Y-61942672D01*
X104408973Y-61854507D01*
X104384142Y-61817772D01*
X104300902Y-61757114D01*
X104185024Y-61712266D01*
X104053005Y-61685889D01*
X103921341Y-61680644D01*
X103806529Y-61699192D01*
X103725065Y-61744193D01*
X103690081Y-61790486D01*
X103676426Y-61870923D01*
X103717562Y-61948602D01*
X103811301Y-62016610D01*
X103886279Y-62058221D01*
X103952628Y-62113516D01*
X103981378Y-62179903D01*
X103977559Y-62271814D01*
X103946202Y-62403683D01*
X103911552Y-62436170D01*
X103826288Y-62475532D01*
X103698225Y-62517737D01*
X103659374Y-62529277D01*
X103559120Y-62562391D01*
X103489261Y-62590524D01*
X103463033Y-62608566D01*
X100796043Y-62608566D01*
X100769909Y-62557063D01*
X100731287Y-62466258D01*
X100721923Y-62419151D01*
X100720924Y-62404407D01*
X100690601Y-62368096D01*
X100669627Y-62351088D01*
X100688123Y-62343324D01*
X100704189Y-62336747D01*
X100707113Y-62298894D01*
X100694558Y-62279214D01*
X100660802Y-62273106D01*
X100651043Y-62272911D01*
X100640273Y-62231752D01*
X100641812Y-62140472D01*
X100644019Y-62084114D01*
X100640332Y-62012978D01*
X100629028Y-61981924D01*
X100624022Y-61972891D01*
X100628894Y-61922974D01*
X100651102Y-61845799D01*
X100661753Y-61813409D01*
X100686512Y-61715814D01*
X100696405Y-61639046D01*
X100698092Y-61621183D01*
X100727581Y-61541856D01*
X100756243Y-61499286D01*
X101635567Y-61499286D01*
X101673277Y-61592798D01*
X101677756Y-61598591D01*
X101707632Y-61646640D01*
X101706594Y-61666869D01*
X101701620Y-61674831D01*
X101729453Y-61703659D01*
X101755749Y-61728459D01*
X101777957Y-61768945D01*
X101784710Y-61780508D01*
X101831366Y-61812986D01*
X101907481Y-61848283D01*
X101950220Y-61866370D01*
X101993491Y-61891095D01*
X101991422Y-61902723D01*
X101974683Y-61909866D01*
X101998054Y-61923141D01*
X102051809Y-61938138D01*
X102121287Y-61950863D01*
X102191827Y-61957321D01*
X102200650Y-61957691D01*
X102258878Y-61968631D01*
X102271028Y-61989687D01*
X102265193Y-61999848D01*
X102261933Y-62015486D01*
X102288111Y-62010631D01*
X102357885Y-61999729D01*
X102454434Y-61985533D01*
X102477273Y-61982172D01*
X102606575Y-61957978D01*
X102715623Y-61924053D01*
X102816145Y-61873417D01*
X102919868Y-61799091D01*
X103038521Y-61694096D01*
X103183830Y-61551451D01*
X103219228Y-61514841D01*
X104581457Y-61514841D01*
X104584203Y-61540537D01*
X104610491Y-61630100D01*
X104658747Y-61747141D01*
X104721719Y-61876326D01*
X104758810Y-61942672D01*
X104792157Y-62002322D01*
X104862811Y-62109796D01*
X104956717Y-62221659D01*
X105073291Y-62317696D01*
X105183636Y-62361290D01*
X105190901Y-62362440D01*
X105264764Y-62377008D01*
X105354053Y-62397613D01*
X105373354Y-62402051D01*
X105439109Y-62409760D01*
X105464424Y-62398638D01*
X105465309Y-62395190D01*
X105499337Y-62378922D01*
X105567436Y-62372306D01*
X105580922Y-62372082D01*
X105644565Y-62363494D01*
X105670449Y-62346306D01*
X105684527Y-62326506D01*
X105735386Y-62303325D01*
X105772281Y-62287522D01*
X105779640Y-62265661D01*
X105777476Y-62261507D01*
X105795848Y-62230545D01*
X105849836Y-62189711D01*
X105853995Y-62187154D01*
X105915211Y-62135072D01*
X105922314Y-62086493D01*
X105918034Y-62058518D01*
X105940027Y-62016222D01*
X105949659Y-62008999D01*
X105960153Y-61974806D01*
X105937217Y-61910856D01*
X105915581Y-61859262D01*
X105898253Y-61799069D01*
X105882606Y-61715576D01*
X105864642Y-61591170D01*
X105846371Y-61531283D01*
X105807516Y-61456376D01*
X105806998Y-61455582D01*
X105778407Y-61397672D01*
X105777553Y-61362614D01*
X105781680Y-61343543D01*
X105759336Y-61298741D01*
X105757265Y-61296231D01*
X105737021Y-61262234D01*
X105760648Y-61253882D01*
X105767585Y-61251938D01*
X105762239Y-61223967D01*
X105720104Y-61171332D01*
X105707747Y-61157843D01*
X105660251Y-61092093D01*
X105641017Y-61040625D01*
X105637656Y-61016435D01*
X105611105Y-60973979D01*
X105601827Y-60965847D01*
X105598464Y-60927545D01*
X105599868Y-60923927D01*
X105580405Y-60893718D01*
X105523362Y-60860759D01*
X105514176Y-60856754D01*
X105456507Y-60823272D01*
X105435207Y-60795084D01*
X105435300Y-60793491D01*
X105409921Y-60767379D01*
X105348912Y-60741918D01*
X105344322Y-60740551D01*
X105283483Y-60715061D01*
X105258398Y-60690412D01*
X105239239Y-60673681D01*
X105183081Y-60665237D01*
X105134260Y-60657797D01*
X105128818Y-60631169D01*
X105129281Y-60630411D01*
X105128040Y-60609925D01*
X105079049Y-60617930D01*
X105027938Y-60632431D01*
X104976898Y-60645564D01*
X104975002Y-60646013D01*
X104963509Y-60651866D01*
X104923036Y-60672477D01*
X104861095Y-60719824D01*
X104809227Y-60770832D01*
X104787483Y-60808278D01*
X104787278Y-60811879D01*
X104773831Y-60863241D01*
X104745803Y-60936487D01*
X104727973Y-60980605D01*
X104688549Y-61092660D01*
X104649190Y-61219692D01*
X104614891Y-61344120D01*
X104590648Y-61448363D01*
X104581457Y-61514841D01*
X103219228Y-61514841D01*
X103221993Y-61511981D01*
X103297937Y-61426378D01*
X103350455Y-61356992D01*
X103369929Y-61315994D01*
X103375220Y-61234874D01*
X103390217Y-61139478D01*
X103410285Y-61055341D01*
X103430767Y-61006188D01*
X103444317Y-60973237D01*
X103462010Y-60895404D01*
X103476818Y-60794997D01*
X103483046Y-60651866D01*
X103457201Y-60517527D01*
X103391546Y-60416226D01*
X103282450Y-60339447D01*
X103257190Y-60328148D01*
X103175300Y-60302595D01*
X103078803Y-60282519D01*
X102982077Y-60269531D01*
X102899503Y-60265245D01*
X102845457Y-60271270D01*
X102834320Y-60289220D01*
X102824697Y-60304517D01*
X102774850Y-60312051D01*
X102723549Y-60318903D01*
X102683079Y-60341483D01*
X102679394Y-60345670D01*
X102632137Y-60363779D01*
X102556255Y-60371366D01*
X102521980Y-60372223D01*
X102478879Y-60380471D01*
X102489734Y-60398466D01*
X102502849Y-60410002D01*
X102490026Y-60428291D01*
X102423769Y-60445391D01*
X102403198Y-60449806D01*
X102346621Y-60470532D01*
X102332016Y-60492079D01*
X102333781Y-60508374D01*
X102306212Y-60532792D01*
X102302495Y-60536084D01*
X102280916Y-60548679D01*
X102271468Y-60577653D01*
X102272257Y-60583224D01*
X102243883Y-60609021D01*
X102179481Y-60636878D01*
X102159198Y-60643998D01*
X102106624Y-60671723D01*
X102108098Y-60694018D01*
X102125234Y-60712614D01*
X102096903Y-60733798D01*
X102074136Y-60747856D01*
X102050287Y-60793188D01*
X102050204Y-60795033D01*
X102023176Y-60834321D01*
X101962364Y-60871108D01*
X101955435Y-60874070D01*
X101902609Y-60905242D01*
X101895298Y-60918829D01*
X101888842Y-60930827D01*
X101882116Y-60958846D01*
X101846307Y-61020052D01*
X101836764Y-61033140D01*
X101788972Y-61098689D01*
X101785715Y-61102831D01*
X101754717Y-61150869D01*
X101693957Y-61245031D01*
X101643184Y-61380273D01*
X101635567Y-61499286D01*
X100756243Y-61499286D01*
X100783505Y-61458795D01*
X100807666Y-61429186D01*
X100853187Y-61363758D01*
X100871802Y-61321251D01*
X100892013Y-61277306D01*
X100939221Y-61221267D01*
X100946804Y-61213795D01*
X100976235Y-61180302D01*
X100968653Y-61177710D01*
X100960524Y-61182085D01*
X100935571Y-61186981D01*
X100943728Y-61157790D01*
X100948187Y-61150869D01*
X101020159Y-61150869D01*
X101034875Y-61165585D01*
X101049592Y-61150869D01*
X101034875Y-61136153D01*
X101020159Y-61150869D01*
X100948187Y-61150869D01*
X100986759Y-61091002D01*
X101029484Y-61033140D01*
X101049592Y-61033140D01*
X101064308Y-61047856D01*
X101079024Y-61033140D01*
X101064308Y-61018424D01*
X101049592Y-61033140D01*
X101029484Y-61033140D01*
X101066427Y-60983108D01*
X101074603Y-60972315D01*
X101097165Y-60941425D01*
X101118457Y-60941425D01*
X101134414Y-60959559D01*
X101143047Y-60958461D01*
X101182037Y-60930127D01*
X101186752Y-60918829D01*
X101170794Y-60900695D01*
X101162161Y-60901794D01*
X101123172Y-60930127D01*
X101118457Y-60941425D01*
X101097165Y-60941425D01*
X101141408Y-60880851D01*
X101193099Y-60804575D01*
X101219071Y-60759053D01*
X101223372Y-60748874D01*
X101269746Y-60674739D01*
X101355342Y-60571041D01*
X101391034Y-60532792D01*
X101402778Y-60532792D01*
X101417494Y-60547508D01*
X101432210Y-60532792D01*
X101417494Y-60518076D01*
X101402778Y-60532792D01*
X101391034Y-60532792D01*
X101483311Y-60433903D01*
X101538881Y-60372332D01*
X101582570Y-60313706D01*
X101593935Y-60282371D01*
X101593678Y-60281925D01*
X101606319Y-60251485D01*
X101654518Y-60210718D01*
X101711308Y-60159589D01*
X101756687Y-60089408D01*
X101791764Y-60035003D01*
X101858386Y-59983210D01*
X101908630Y-59951689D01*
X101932558Y-59916977D01*
X101932719Y-59914786D01*
X101957557Y-59874949D01*
X102011850Y-59826047D01*
X102079682Y-59770826D01*
X102136120Y-59716048D01*
X102171061Y-59684877D01*
X102218705Y-59664542D01*
X102232935Y-59662580D01*
X102256312Y-59638301D01*
X102275436Y-59616022D01*
X102331097Y-59593289D01*
X102377551Y-59573415D01*
X102389504Y-59548021D01*
X102388214Y-59542757D01*
X102413255Y-59514685D01*
X102475030Y-59484673D01*
X102492598Y-59477927D01*
X102548129Y-59449122D01*
X102563953Y-59426822D01*
X102563815Y-59426595D01*
X102575123Y-59401058D01*
X102625031Y-59379375D01*
X102693662Y-59370220D01*
X102737729Y-59356298D01*
X102793979Y-59311356D01*
X102843855Y-59273913D01*
X102940323Y-59252040D01*
X102967334Y-59251402D01*
X103007370Y-59243450D01*
X102994154Y-59224940D01*
X102981060Y-59213592D01*
X102993060Y-59195298D01*
X103058467Y-59178325D01*
X103072384Y-59175907D01*
X103147815Y-59169415D01*
X103193720Y-59176177D01*
X103204473Y-59180480D01*
X103232701Y-59163533D01*
X103248123Y-59153099D01*
X103311232Y-59132504D01*
X103410675Y-59108097D01*
X103533306Y-59082404D01*
X103665980Y-59057955D01*
X103795552Y-59037278D01*
X103908878Y-59022899D01*
X103992813Y-59017348D01*
X104072504Y-59022836D01*
X104181845Y-59040520D01*
X104296454Y-59066425D01*
X104400444Y-59096429D01*
X104477927Y-59126413D01*
X104513015Y-59152256D01*
X104524730Y-59168061D01*
X104569177Y-59173903D01*
X104595189Y-59172869D01*
X104611340Y-59212552D01*
X104615761Y-59241848D01*
X104633420Y-59233217D01*
X104646167Y-59224791D01*
X104697131Y-59228390D01*
X104762543Y-59252885D01*
X104820182Y-59288653D01*
X104847829Y-59326072D01*
X104849787Y-59333385D01*
X104877030Y-59348710D01*
X104909257Y-59362367D01*
X104955740Y-59407574D01*
X105003345Y-59454147D01*
X105053087Y-59482509D01*
X105054408Y-59482816D01*
X105104656Y-59510911D01*
X105163934Y-59563448D01*
X105168326Y-59568058D01*
X105221246Y-59615567D01*
X105257606Y-59635110D01*
X105276764Y-59646625D01*
X105302682Y-59694402D01*
X105319192Y-59727453D01*
X105345594Y-59738803D01*
X105349288Y-59737825D01*
X105381287Y-59757918D01*
X105423935Y-59805504D01*
X105461531Y-59860967D01*
X105478375Y-59904692D01*
X105479131Y-59907659D01*
X105506841Y-59941137D01*
X105561867Y-59989174D01*
X105571592Y-59997185D01*
X105618461Y-60051177D01*
X105629073Y-60094698D01*
X105627743Y-60100330D01*
X105646338Y-60146564D01*
X105701663Y-60200293D01*
X105715689Y-60211270D01*
X105763632Y-60262348D01*
X105775905Y-60301581D01*
X105775190Y-60303854D01*
X105784840Y-60351962D01*
X105822610Y-60414735D01*
X105827896Y-60421611D01*
X105861413Y-60477068D01*
X105865504Y-60509425D01*
X105863324Y-60513887D01*
X105872604Y-60556187D01*
X105905907Y-60621089D01*
X105915636Y-60637556D01*
X105943603Y-60699250D01*
X105945471Y-60733591D01*
X105942786Y-60755650D01*
X105967935Y-60802621D01*
X105978415Y-60815735D01*
X105993174Y-60839962D01*
X105968588Y-60828839D01*
X105959379Y-60833008D01*
X105973403Y-60874729D01*
X106011359Y-60946351D01*
X106044544Y-61006959D01*
X106065207Y-61056066D01*
X106059386Y-61066477D01*
X106039391Y-61060068D01*
X106041838Y-61090476D01*
X106053874Y-61112624D01*
X106087386Y-61136153D01*
X106096682Y-61138385D01*
X106097216Y-61165585D01*
X106092304Y-61176695D01*
X106105290Y-61195017D01*
X106116970Y-61199517D01*
X106131554Y-61237871D01*
X106128526Y-61256562D01*
X106107027Y-61265566D01*
X106098919Y-61262316D01*
X106082500Y-61281577D01*
X106084452Y-61291914D01*
X106116838Y-61312746D01*
X106128674Y-61314167D01*
X106132955Y-61330966D01*
X106130303Y-61349627D01*
X106156827Y-61391278D01*
X106183399Y-61436210D01*
X106163521Y-61490052D01*
X106143403Y-61542700D01*
X106168493Y-61584259D01*
X106195875Y-61606030D01*
X106188094Y-61584994D01*
X106181280Y-61567845D01*
X106192039Y-61548204D01*
X106192897Y-61548253D01*
X106219759Y-61574666D01*
X106249498Y-61634947D01*
X106261588Y-61669815D01*
X106265910Y-61713796D01*
X106239759Y-61730602D01*
X106225456Y-61734570D01*
X106214964Y-61753790D01*
X106245085Y-61798378D01*
X106273454Y-61829510D01*
X106275512Y-61822485D01*
X106270851Y-61807639D01*
X106284680Y-61771322D01*
X106306163Y-61779402D01*
X106325227Y-61828153D01*
X106326374Y-61881877D01*
X106295556Y-61901390D01*
X106290032Y-61901463D01*
X106267316Y-61911174D01*
X106289682Y-61946932D01*
X106316362Y-61970594D01*
X106346985Y-61960910D01*
X106351989Y-61956596D01*
X106373071Y-61974806D01*
X106374202Y-61975783D01*
G37*
G36*
X98850706Y-60374026D02*
G01*
X98918942Y-60418941D01*
X98952151Y-60476169D01*
X98946736Y-60544878D01*
X98898347Y-60606971D01*
X98845457Y-60632519D01*
X98784792Y-60625153D01*
X98739867Y-60581183D01*
X98722308Y-60507198D01*
X98722749Y-60491744D01*
X98743627Y-60414459D01*
X98789274Y-60373876D01*
X98850706Y-60374026D01*
G37*
G36*
X85347917Y-62406216D02*
G01*
X85437835Y-62453454D01*
X85505837Y-62535800D01*
X85535019Y-62636454D01*
X85524429Y-62741768D01*
X85477849Y-62836165D01*
X85399519Y-62904922D01*
X85388403Y-62910673D01*
X85291743Y-62934555D01*
X85196751Y-62919411D01*
X85112848Y-62872502D01*
X85049453Y-62801092D01*
X85015988Y-62712442D01*
X85021872Y-62613813D01*
X85026557Y-62597598D01*
X85052110Y-62527654D01*
X85085959Y-62481199D01*
X85142406Y-62437286D01*
X85152595Y-62430684D01*
X85248649Y-62397491D01*
X85347917Y-62406216D01*
G37*
G36*
X82528472Y-64764318D02*
G01*
X82598619Y-64807633D01*
X82693388Y-64907563D01*
X82751024Y-65038886D01*
X82758103Y-65070955D01*
X82758347Y-65202174D01*
X82717773Y-65328961D01*
X82641831Y-65439112D01*
X82535974Y-65520422D01*
X82461693Y-65551579D01*
X82327088Y-65571383D01*
X82197316Y-65547568D01*
X82081612Y-65482530D01*
X81989206Y-65378661D01*
X81938807Y-65271153D01*
X81919407Y-65145104D01*
X81937470Y-65024596D01*
X81987566Y-64915814D01*
X82064263Y-64824946D01*
X82162133Y-64758175D01*
X82275744Y-64721690D01*
X82399667Y-64721676D01*
X82528472Y-64764318D01*
G37*
G36*
X92943925Y-61273977D02*
G01*
X93035885Y-61279519D01*
X93101947Y-61287764D01*
X93178269Y-61303029D01*
X93178269Y-62372713D01*
X93178269Y-63442396D01*
X93105000Y-63515666D01*
X93103641Y-63517032D01*
X93045741Y-63601579D01*
X93035362Y-63685223D01*
X93071512Y-63761606D01*
X93153198Y-63824376D01*
X93193484Y-63840230D01*
X93273767Y-63842452D01*
X93341677Y-63809313D01*
X93391112Y-63749906D01*
X93415971Y-63673323D01*
X93410150Y-63588656D01*
X93367548Y-63504998D01*
X93362425Y-63498438D01*
X93350061Y-63480794D01*
X93339878Y-63459949D01*
X93331617Y-63431338D01*
X93325023Y-63390397D01*
X93319838Y-63332561D01*
X93315805Y-63253267D01*
X93312667Y-63147949D01*
X93310168Y-63012044D01*
X93308049Y-62840988D01*
X93306055Y-62630215D01*
X93303928Y-62375162D01*
X93302600Y-62184523D01*
X93301744Y-61920496D01*
X93302398Y-61702314D01*
X93304554Y-61530572D01*
X93308203Y-61405866D01*
X93313336Y-61328793D01*
X93319943Y-61299948D01*
X93326066Y-61297631D01*
X93373080Y-61291041D01*
X93451604Y-61286441D01*
X93548420Y-61284711D01*
X93752212Y-61284711D01*
X93758507Y-62768413D01*
X93764802Y-64252115D01*
X93239516Y-64252115D01*
X92714231Y-64252115D01*
X92714231Y-62762308D01*
X92714231Y-61272500D01*
X92869928Y-61272500D01*
X92943925Y-61273977D01*
G37*
G36*
X93861086Y-60508227D02*
G01*
X93837166Y-60676015D01*
X93822872Y-60716495D01*
X93762314Y-60823553D01*
X93676888Y-60926908D01*
X93579625Y-61012218D01*
X93483558Y-61065142D01*
X93431349Y-61078985D01*
X93333512Y-61094140D01*
X93232437Y-61100466D01*
X93072939Y-61085111D01*
X92913726Y-61027849D01*
X92779676Y-60928989D01*
X92672210Y-60789317D01*
X92642428Y-60734693D01*
X92619087Y-60671640D01*
X92609741Y-60600091D01*
X92609975Y-60532831D01*
X92988359Y-60532831D01*
X93025303Y-60623250D01*
X93104744Y-60694521D01*
X93198733Y-60730694D01*
X93289470Y-60721315D01*
X93379374Y-60663926D01*
X93426236Y-60616013D01*
X93452774Y-60561008D01*
X93459135Y-60483317D01*
X93450358Y-60399132D01*
X93414023Y-60324127D01*
X93376261Y-60289952D01*
X93285611Y-60248190D01*
X93189202Y-60245138D01*
X93099979Y-60279872D01*
X93030892Y-60351468D01*
X92995554Y-60430886D01*
X92988359Y-60532831D01*
X92609975Y-60532831D01*
X92610089Y-60500021D01*
X92612122Y-60449249D01*
X92623042Y-60338415D01*
X92646472Y-60254022D01*
X92688251Y-60179855D01*
X92754215Y-60099700D01*
X92755597Y-60098176D01*
X92890993Y-59983411D01*
X93046717Y-59911645D01*
X93216911Y-59884660D01*
X93395719Y-59904242D01*
X93409916Y-59907827D01*
X93562248Y-59971617D01*
X93687733Y-60070898D01*
X93782168Y-60198323D01*
X93841353Y-60346548D01*
X93858046Y-60483317D01*
X93861086Y-60508227D01*
G37*
G36*
X88825987Y-68402290D02*
G01*
X88824489Y-68512818D01*
X88822288Y-68587031D01*
X88819431Y-68618667D01*
X88808673Y-68626916D01*
X88778558Y-68633899D01*
X88725046Y-68639134D01*
X88643899Y-68642743D01*
X88530875Y-68644847D01*
X88381736Y-68645567D01*
X88192241Y-68645025D01*
X87958151Y-68643343D01*
X87109135Y-68636058D01*
X86959516Y-68566917D01*
X86844006Y-68504111D01*
X86702839Y-68387923D01*
X86602863Y-68245817D01*
X86543298Y-68076567D01*
X86524569Y-67890873D01*
X86941202Y-67890873D01*
X86972335Y-68018966D01*
X87025847Y-68117134D01*
X87102883Y-68193453D01*
X87211316Y-68246539D01*
X87215070Y-68247826D01*
X87270308Y-68260048D01*
X87355284Y-68269199D01*
X87474766Y-68275543D01*
X87633520Y-68279339D01*
X87836312Y-68280851D01*
X88368104Y-68281923D01*
X88361408Y-67872836D01*
X88354712Y-67463750D01*
X87878462Y-67456448D01*
X87694636Y-67454183D01*
X87535164Y-67454176D01*
X87411855Y-67457552D01*
X87318112Y-67465148D01*
X87247337Y-67477803D01*
X87192934Y-67496356D01*
X87148306Y-67521645D01*
X87106857Y-67554507D01*
X87022100Y-67645005D01*
X86958071Y-67765251D01*
X86941202Y-67890873D01*
X86524569Y-67890873D01*
X86523366Y-67878942D01*
X86524265Y-67808174D01*
X86532452Y-67711743D01*
X86552593Y-67630451D01*
X86588818Y-67543112D01*
X86672281Y-67403645D01*
X86804410Y-67268104D01*
X86974808Y-67162197D01*
X87109135Y-67097404D01*
X87963942Y-67097404D01*
X88818750Y-67097404D01*
X88825223Y-67842055D01*
X88825800Y-67915474D01*
X88826690Y-68097354D01*
X88826737Y-68261714D01*
X88826629Y-68281923D01*
X88825987Y-68402290D01*
G37*
G36*
X87927308Y-62067564D02*
G01*
X87927308Y-64252115D01*
X87389869Y-64252115D01*
X86852430Y-64252115D01*
X86858667Y-62072356D01*
X86863087Y-60527596D01*
X87170192Y-60527596D01*
X87189867Y-60594263D01*
X87243462Y-60665680D01*
X87316731Y-60738950D01*
X87316731Y-62094128D01*
X87316731Y-63449307D01*
X87243462Y-63510959D01*
X87219516Y-63534411D01*
X87175795Y-63615356D01*
X87173081Y-63703323D01*
X87212933Y-63784330D01*
X87259155Y-63825741D01*
X87333740Y-63852622D01*
X87408311Y-63844020D01*
X87475185Y-63806905D01*
X87526684Y-63748249D01*
X87555125Y-63675025D01*
X87552829Y-63594205D01*
X87512115Y-63512759D01*
X87505606Y-63504091D01*
X87496130Y-63488054D01*
X87488185Y-63466521D01*
X87481635Y-63435552D01*
X87476345Y-63391205D01*
X87472182Y-63329540D01*
X87469010Y-63246616D01*
X87466695Y-63138491D01*
X87465103Y-63001225D01*
X87464099Y-62830877D01*
X87463548Y-62623505D01*
X87463317Y-62375169D01*
X87463269Y-62081929D01*
X87463295Y-61960120D01*
X87463620Y-61676878D01*
X87464388Y-61437677D01*
X87465680Y-61239052D01*
X87467578Y-61077538D01*
X87470167Y-60949667D01*
X87473527Y-60851974D01*
X87477742Y-60780993D01*
X87482893Y-60733259D01*
X87489065Y-60705305D01*
X87496339Y-60693665D01*
X87532244Y-60659652D01*
X87570036Y-60590012D01*
X87585385Y-60515111D01*
X87585155Y-60509572D01*
X87561030Y-60448519D01*
X87508078Y-60386846D01*
X87441823Y-60339143D01*
X87377789Y-60320000D01*
X87311737Y-60339033D01*
X87243346Y-60390195D01*
X87191042Y-60458171D01*
X87170192Y-60527596D01*
X86863087Y-60527596D01*
X86864904Y-59892596D01*
X87396106Y-59887804D01*
X87927308Y-59883013D01*
X87927308Y-60515111D01*
X87927308Y-62067564D01*
G37*
G36*
X88830962Y-66938654D02*
G01*
X88061025Y-66938654D01*
X87912932Y-66938562D01*
X87723838Y-66937928D01*
X87573721Y-66936424D01*
X87456621Y-66933740D01*
X87366580Y-66929568D01*
X87297639Y-66923599D01*
X87243839Y-66915523D01*
X87199221Y-66905032D01*
X87157827Y-66891816D01*
X86993645Y-66810590D01*
X86850073Y-66690815D01*
X86740799Y-66542209D01*
X86716341Y-66496245D01*
X86691299Y-66436979D01*
X86677174Y-66375022D01*
X86670927Y-66295000D01*
X86669712Y-66197130D01*
X87100383Y-66197130D01*
X87113050Y-66321266D01*
X87164516Y-66423881D01*
X87259803Y-66516093D01*
X87349465Y-66584519D01*
X87845916Y-66592795D01*
X87933748Y-66594159D01*
X88083571Y-66595652D01*
X88193545Y-66595048D01*
X88269732Y-66592018D01*
X88318192Y-66586233D01*
X88344987Y-66577362D01*
X88356179Y-66565078D01*
X88357937Y-66557254D01*
X88361804Y-66505906D01*
X88363933Y-66419063D01*
X88364168Y-66306562D01*
X88362351Y-66178245D01*
X88354712Y-65827404D01*
X87895304Y-65820754D01*
X87785820Y-65819809D01*
X87630380Y-65820879D01*
X87498769Y-65824764D01*
X87399314Y-65831178D01*
X87340340Y-65839834D01*
X87287927Y-65859462D01*
X87195867Y-65929952D01*
X87132381Y-66034664D01*
X87102199Y-66167094D01*
X87100383Y-66197130D01*
X86669712Y-66197130D01*
X86669519Y-66181538D01*
X86669634Y-66145356D01*
X86672736Y-66038272D01*
X86682056Y-65960448D01*
X86700240Y-65896551D01*
X86729931Y-65831246D01*
X86785059Y-65741517D01*
X86909786Y-65611522D01*
X87071259Y-65512484D01*
X87077862Y-65509461D01*
X87111072Y-65495792D01*
X87147503Y-65484856D01*
X87192860Y-65476279D01*
X87252845Y-65469687D01*
X87333161Y-65464707D01*
X87439511Y-65460962D01*
X87577598Y-65458081D01*
X87753124Y-65455688D01*
X87971793Y-65453410D01*
X88144884Y-65451999D01*
X88348845Y-65451358D01*
X88509969Y-65452367D01*
X88631755Y-65455117D01*
X88717702Y-65459699D01*
X88771308Y-65466202D01*
X88796072Y-65474717D01*
X88801814Y-65481463D01*
X88810946Y-65505451D01*
X88818033Y-65548354D01*
X88823309Y-65615160D01*
X88827007Y-65710856D01*
X88829359Y-65840429D01*
X88830600Y-66008869D01*
X88830962Y-66221163D01*
X88830962Y-66306562D01*
X88830962Y-66938654D01*
G37*
G36*
X92944323Y-67327671D02*
G01*
X92988999Y-67447462D01*
X93024418Y-67544275D01*
X93047748Y-67610601D01*
X93056154Y-67638932D01*
X93056043Y-67639058D01*
X93029411Y-67640860D01*
X92959671Y-67642514D01*
X92852199Y-67643975D01*
X92712370Y-67645193D01*
X92545561Y-67646122D01*
X92357145Y-67646715D01*
X92152500Y-67646923D01*
X91951043Y-67646767D01*
X91750846Y-67646074D01*
X91591493Y-67644670D01*
X91468623Y-67642385D01*
X91377872Y-67639050D01*
X91314881Y-67634494D01*
X91275287Y-67628550D01*
X91254730Y-67621046D01*
X91248846Y-67611815D01*
X91251902Y-67598065D01*
X91270018Y-67542619D01*
X91302230Y-67452659D01*
X91346021Y-67335012D01*
X91357473Y-67305000D01*
X91758439Y-67305000D01*
X92150854Y-67305000D01*
X92239520Y-67304621D01*
X92360175Y-67302732D01*
X92456456Y-67299526D01*
X92520207Y-67295309D01*
X92543269Y-67290383D01*
X92543262Y-67290226D01*
X92534601Y-67262611D01*
X92511394Y-67196886D01*
X92476318Y-67100413D01*
X92432047Y-66980552D01*
X92381257Y-66844662D01*
X92331318Y-66710842D01*
X92282912Y-66579222D01*
X92242245Y-66466660D01*
X92212519Y-66382024D01*
X92196936Y-66334183D01*
X92194765Y-66326744D01*
X92174597Y-66275700D01*
X92156503Y-66254808D01*
X92152844Y-66259346D01*
X92133964Y-66299044D01*
X92102736Y-66373103D01*
X92062208Y-66473586D01*
X92015430Y-66592554D01*
X91965450Y-66722070D01*
X91915318Y-66854197D01*
X91868082Y-66980996D01*
X91826790Y-67094529D01*
X91794493Y-67186859D01*
X91774238Y-67250048D01*
X91758439Y-67305000D01*
X91357473Y-67305000D01*
X91398871Y-67196508D01*
X91458261Y-67043978D01*
X91458499Y-67043373D01*
X91534546Y-66849854D01*
X91619923Y-66632490D01*
X91707826Y-66408605D01*
X91791454Y-66195526D01*
X91864003Y-66010577D01*
X91888368Y-65948686D01*
X91945319Y-65805971D01*
X91996386Y-65680636D01*
X92038640Y-65579729D01*
X92069149Y-65510293D01*
X92084982Y-65479375D01*
X92088027Y-65475781D01*
X92137241Y-65449760D01*
X92191016Y-65465450D01*
X92236620Y-65519484D01*
X92244293Y-65535554D01*
X92272012Y-65600120D01*
X92310944Y-65695893D01*
X92357035Y-65812805D01*
X92406230Y-65940782D01*
X92418849Y-65973952D01*
X92481712Y-66137564D01*
X92553190Y-66321561D01*
X92625418Y-66505764D01*
X92690529Y-66670000D01*
X92729723Y-66768910D01*
X92783090Y-66905523D01*
X92838535Y-67049193D01*
X92893223Y-67192412D01*
X92930236Y-67290383D01*
X92944323Y-67327671D01*
G37*
G36*
X98009737Y-65730824D02*
G01*
X98011031Y-65978307D01*
X98012060Y-66249220D01*
X98012800Y-66539766D01*
X98013224Y-66846148D01*
X98013307Y-67164567D01*
X98012689Y-69258846D01*
X96425864Y-69258846D01*
X94839039Y-69258846D01*
X94839039Y-68732679D01*
X94839159Y-68696325D01*
X95230304Y-68696325D01*
X95242138Y-68781323D01*
X95289755Y-68856975D01*
X95295958Y-68863060D01*
X95340462Y-68900208D01*
X95369130Y-68913597D01*
X95446872Y-68896599D01*
X95506414Y-68869679D01*
X95560389Y-68823884D01*
X95626073Y-68758173D01*
X96518260Y-68745961D01*
X97410447Y-68733750D01*
X97461906Y-68664812D01*
X97463415Y-68662784D01*
X97473954Y-68647373D01*
X97482920Y-68629288D01*
X97490461Y-68604681D01*
X97496725Y-68569705D01*
X97501859Y-68520511D01*
X97506012Y-68453252D01*
X97509332Y-68364081D01*
X97511967Y-68249150D01*
X97514064Y-68104612D01*
X97515773Y-67926618D01*
X97517240Y-67711321D01*
X97518614Y-67454873D01*
X97520042Y-67153428D01*
X97526719Y-65710982D01*
X97587206Y-65639098D01*
X97602660Y-65619483D01*
X97642355Y-65535182D01*
X97633614Y-65454345D01*
X97576302Y-65373698D01*
X97564191Y-65362220D01*
X97477883Y-65311440D01*
X97388130Y-65306809D01*
X97302369Y-65348996D01*
X97296642Y-65353952D01*
X97255255Y-65421136D01*
X97241582Y-65508766D01*
X97255852Y-65598727D01*
X97298291Y-65672905D01*
X97351870Y-65729938D01*
X97356309Y-67142075D01*
X97356709Y-67318997D01*
X97356692Y-67577293D01*
X97355950Y-67814657D01*
X97354533Y-68027102D01*
X97352488Y-68210640D01*
X97349863Y-68361283D01*
X97346706Y-68475045D01*
X97343066Y-68547936D01*
X97338990Y-68575971D01*
X97318427Y-68580267D01*
X97253594Y-68585206D01*
X97150407Y-68589723D01*
X97014606Y-68593657D01*
X96851931Y-68596848D01*
X96668119Y-68599134D01*
X96468912Y-68600355D01*
X96265195Y-68600915D01*
X96078212Y-68601076D01*
X95930318Y-68600481D01*
X95816356Y-68598858D01*
X95731166Y-68595937D01*
X95669589Y-68591446D01*
X95626467Y-68585114D01*
X95596639Y-68576669D01*
X95574947Y-68565840D01*
X95556233Y-68552355D01*
X95489671Y-68517454D01*
X95411460Y-68501731D01*
X95367616Y-68507509D01*
X95297231Y-68547193D01*
X95250064Y-68614207D01*
X95230304Y-68696325D01*
X94839159Y-68696325D01*
X94839610Y-68559021D01*
X94841617Y-68419656D01*
X94845338Y-68319864D01*
X94851053Y-68254900D01*
X94859037Y-68220019D01*
X94869567Y-68210477D01*
X94874811Y-68210773D01*
X94920816Y-68211502D01*
X95008443Y-68212034D01*
X95132322Y-68212364D01*
X95287083Y-68212485D01*
X95467355Y-68212394D01*
X95667770Y-68212083D01*
X95882957Y-68211547D01*
X96865817Y-68208654D01*
X96872091Y-66529567D01*
X96878365Y-64850481D01*
X97430784Y-64843925D01*
X97983203Y-64837368D01*
X97998564Y-64953828D01*
X98000182Y-64977782D01*
X98002420Y-65051149D01*
X98004519Y-65166934D01*
X98006456Y-65321340D01*
X98008203Y-65510569D01*
X98008374Y-65535182D01*
X98009737Y-65730824D01*
G37*
G36*
X97397487Y-62072356D02*
G01*
X97403724Y-64252115D01*
X95852728Y-64252115D01*
X94301731Y-64252115D01*
X94301731Y-63739231D01*
X94301731Y-63699890D01*
X94692500Y-63699890D01*
X94705025Y-63773094D01*
X94735240Y-63833176D01*
X94783794Y-63872209D01*
X94862303Y-63899140D01*
X94936731Y-63893452D01*
X94975016Y-63871647D01*
X95026465Y-63831297D01*
X95033759Y-63824999D01*
X95051955Y-63813065D01*
X95077331Y-63803549D01*
X95115095Y-63796126D01*
X95170455Y-63790472D01*
X95248619Y-63786264D01*
X95354795Y-63783179D01*
X95494193Y-63780892D01*
X95672020Y-63779080D01*
X95893484Y-63777419D01*
X96130572Y-63774999D01*
X96336393Y-63771279D01*
X96506467Y-63766385D01*
X96637519Y-63760437D01*
X96726276Y-63753551D01*
X96769465Y-63745845D01*
X96774677Y-63743694D01*
X96801189Y-63732944D01*
X96823773Y-63721551D01*
X96842763Y-63705806D01*
X96858492Y-63682002D01*
X96871295Y-63646431D01*
X96881504Y-63595385D01*
X96889453Y-63525157D01*
X96895474Y-63432039D01*
X96899903Y-63312323D01*
X96903071Y-63162301D01*
X96905312Y-62978265D01*
X96906960Y-62756509D01*
X96908348Y-62493323D01*
X96909809Y-62185001D01*
X96910772Y-61990609D01*
X96912273Y-61716534D01*
X96913836Y-61485280D01*
X96915589Y-61293141D01*
X96917664Y-61136407D01*
X96920189Y-61011369D01*
X96923296Y-60914319D01*
X96927113Y-60841548D01*
X96931771Y-60789347D01*
X96937400Y-60754008D01*
X96944130Y-60731822D01*
X96952091Y-60719079D01*
X96961411Y-60712072D01*
X97000440Y-60675756D01*
X97035417Y-60617177D01*
X97048881Y-60563207D01*
X97037407Y-60474360D01*
X96990947Y-60396407D01*
X96917746Y-60341052D01*
X96826051Y-60320000D01*
X96812911Y-60321988D01*
X96761164Y-60351770D01*
X96706765Y-60405159D01*
X96663798Y-60466477D01*
X96646346Y-60520048D01*
X96647954Y-60535455D01*
X96669254Y-60598389D01*
X96707404Y-60667169D01*
X96768462Y-60757024D01*
X96767919Y-62132118D01*
X96767859Y-62261379D01*
X96767620Y-62536328D01*
X96767140Y-62768003D01*
X96766289Y-62960328D01*
X96764938Y-63117228D01*
X96762957Y-63242628D01*
X96760218Y-63340452D01*
X96756592Y-63414624D01*
X96751948Y-63469070D01*
X96746157Y-63507713D01*
X96739091Y-63534478D01*
X96730620Y-63553290D01*
X96720615Y-63568074D01*
X96673855Y-63628936D01*
X95884668Y-63631539D01*
X95095481Y-63634142D01*
X95017735Y-63576783D01*
X94926882Y-63530675D01*
X94838529Y-63522813D01*
X94763708Y-63550781D01*
X94711879Y-63611001D01*
X94692500Y-63699890D01*
X94301731Y-63699890D01*
X94301731Y-63226346D01*
X95290865Y-63226346D01*
X96280000Y-63226346D01*
X96281750Y-63134760D01*
X96281839Y-63128565D01*
X96282241Y-63076096D01*
X96282747Y-62980364D01*
X96283342Y-62845762D01*
X96284008Y-62676684D01*
X96284730Y-62477521D01*
X96285492Y-62252666D01*
X96286278Y-62006514D01*
X96287071Y-61743455D01*
X96287856Y-61467885D01*
X96292212Y-59892596D01*
X96841731Y-59892596D01*
X97391250Y-59892596D01*
X97393169Y-60563207D01*
X97397487Y-62072356D01*
G37*
G36*
X89468482Y-65490367D02*
G01*
X89469885Y-65859093D01*
X89471674Y-66346090D01*
X89473208Y-66787414D01*
X89474489Y-67184930D01*
X89475517Y-67540506D01*
X89476293Y-67856006D01*
X89476819Y-68133297D01*
X89477096Y-68374247D01*
X89477123Y-68580721D01*
X89476903Y-68754585D01*
X89476436Y-68897706D01*
X89475723Y-69011950D01*
X89474766Y-69099184D01*
X89473565Y-69161273D01*
X89472121Y-69200085D01*
X89470435Y-69217486D01*
X89466842Y-69226144D01*
X89457283Y-69234497D01*
X89438136Y-69241346D01*
X89405477Y-69246800D01*
X89355378Y-69250968D01*
X89283916Y-69253961D01*
X89187163Y-69255889D01*
X89061194Y-69256861D01*
X88902084Y-69256987D01*
X88705906Y-69256377D01*
X88468736Y-69255140D01*
X88186646Y-69253386D01*
X88092278Y-69252775D01*
X87824785Y-69250958D01*
X87600288Y-69249163D01*
X87414345Y-69247191D01*
X87262513Y-69244841D01*
X87140351Y-69241914D01*
X87043415Y-69238210D01*
X86967264Y-69233529D01*
X86907455Y-69227673D01*
X86859545Y-69220441D01*
X86819092Y-69211633D01*
X86781654Y-69201051D01*
X86742789Y-69188493D01*
X86572899Y-69120922D01*
X86354780Y-68993780D01*
X86171036Y-68834614D01*
X86024021Y-68646632D01*
X85916093Y-68433040D01*
X85849608Y-68197047D01*
X85826923Y-67941860D01*
X85830780Y-67879456D01*
X86377025Y-67879456D01*
X86377833Y-67991129D01*
X86383068Y-68075653D01*
X86395860Y-68142500D01*
X86419322Y-68207618D01*
X86456564Y-68286950D01*
X86482535Y-68335829D01*
X86601159Y-68499181D01*
X86750254Y-68632030D01*
X86921037Y-68726072D01*
X86922754Y-68726762D01*
X86960762Y-68741352D01*
X86998309Y-68753175D01*
X87040874Y-68762569D01*
X87093935Y-68769868D01*
X87162971Y-68775408D01*
X87253460Y-68779525D01*
X87370881Y-68782554D01*
X87520713Y-68784832D01*
X87708432Y-68786693D01*
X87939519Y-68788474D01*
X88005198Y-68788943D01*
X88231942Y-68790281D01*
X88416051Y-68790518D01*
X88562467Y-68789226D01*
X88676130Y-68785980D01*
X88761981Y-68780354D01*
X88824960Y-68771923D01*
X88870008Y-68760260D01*
X88902066Y-68744940D01*
X88926073Y-68725536D01*
X88946971Y-68701622D01*
X88949392Y-68697269D01*
X88955468Y-68671373D01*
X88960673Y-68622839D01*
X88965062Y-68548756D01*
X88968689Y-68446212D01*
X88971608Y-68312294D01*
X88973875Y-68144090D01*
X88975543Y-67938690D01*
X88976666Y-67693180D01*
X88977301Y-67404650D01*
X88977500Y-67070187D01*
X88977500Y-65477017D01*
X88913325Y-65400749D01*
X88849150Y-65324481D01*
X87966931Y-65331712D01*
X87759516Y-65333500D01*
X87566448Y-65335559D01*
X87412192Y-65337962D01*
X87291421Y-65341027D01*
X87198811Y-65345073D01*
X87129038Y-65350418D01*
X87076777Y-65357379D01*
X87036703Y-65366275D01*
X87003491Y-65377423D01*
X86971818Y-65391142D01*
X86845589Y-65464758D01*
X86703512Y-65595470D01*
X86594756Y-65758916D01*
X86586444Y-65775452D01*
X86557231Y-65838875D01*
X86538771Y-65896257D01*
X86528715Y-65961315D01*
X86524711Y-66047766D01*
X86524408Y-66169327D01*
X86524738Y-66209195D01*
X86528329Y-66329570D01*
X86536999Y-66417553D01*
X86552528Y-66486030D01*
X86576695Y-66547885D01*
X86593650Y-66581841D01*
X86681086Y-66714835D01*
X86791538Y-66837474D01*
X86908732Y-66930983D01*
X87006478Y-66992688D01*
X86850210Y-67075104D01*
X86698096Y-67173852D01*
X86550984Y-67321140D01*
X86440711Y-67500385D01*
X86425918Y-67532971D01*
X86400893Y-67600442D01*
X86386132Y-67670389D01*
X86379040Y-67758248D01*
X86377025Y-67879456D01*
X85830780Y-67879456D01*
X85839449Y-67739184D01*
X85885123Y-67536995D01*
X85966477Y-67353846D01*
X85983634Y-67324789D01*
X86078361Y-67195180D01*
X86187652Y-67085230D01*
X86298202Y-67008778D01*
X86390924Y-66960926D01*
X86283517Y-66856539D01*
X86192992Y-66757983D01*
X86086814Y-66595995D01*
X86017340Y-66414442D01*
X85982434Y-66207076D01*
X85979963Y-65967646D01*
X85984631Y-65887099D01*
X85994615Y-65785530D01*
X86011105Y-65704466D01*
X86038131Y-65626383D01*
X86079721Y-65533757D01*
X86122053Y-65451312D01*
X86242340Y-65273715D01*
X86390793Y-65127062D01*
X86573538Y-65005984D01*
X86796697Y-64905111D01*
X86800178Y-64903801D01*
X86832815Y-64892127D01*
X86866176Y-64882303D01*
X86904637Y-64874137D01*
X86952572Y-64867439D01*
X87014356Y-64862018D01*
X87094362Y-64857683D01*
X87196967Y-64854243D01*
X87326543Y-64851508D01*
X87487467Y-64849285D01*
X87684113Y-64847386D01*
X87920855Y-64845618D01*
X88202067Y-64843790D01*
X89465962Y-64835830D01*
X89468431Y-65477017D01*
X89468482Y-65490367D01*
G37*
G36*
X94318698Y-68850667D02*
G01*
X94379663Y-69008660D01*
X94427818Y-69132548D01*
X94460949Y-69216531D01*
X94461992Y-69219290D01*
X94463332Y-69231909D01*
X94453707Y-69241470D01*
X94427706Y-69248303D01*
X94379919Y-69252741D01*
X94304935Y-69255115D01*
X94197343Y-69255756D01*
X94051732Y-69254996D01*
X93862692Y-69253165D01*
X93247139Y-69246635D01*
X93069016Y-68794808D01*
X92890894Y-68342981D01*
X92137034Y-68336883D01*
X91383173Y-68330785D01*
X91214494Y-68764287D01*
X91213070Y-68767946D01*
X91159044Y-68905190D01*
X91109766Y-69027526D01*
X91068416Y-69127277D01*
X91038175Y-69196766D01*
X91022225Y-69228317D01*
X91022018Y-69228577D01*
X91000597Y-69238717D01*
X90952129Y-69246534D01*
X90872256Y-69252242D01*
X90756622Y-69256053D01*
X90600871Y-69258184D01*
X90400647Y-69258846D01*
X90302664Y-69258734D01*
X90131044Y-69257688D01*
X90001570Y-69255347D01*
X89909710Y-69251475D01*
X89850935Y-69245837D01*
X89820713Y-69238196D01*
X89814514Y-69228317D01*
X89825836Y-69199076D01*
X89852444Y-69130308D01*
X89891850Y-69028448D01*
X89941619Y-68899786D01*
X89995640Y-68760126D01*
X90494049Y-68760126D01*
X90534471Y-68839907D01*
X90558572Y-68863713D01*
X90631105Y-68897891D01*
X90708668Y-68895336D01*
X90781237Y-68862086D01*
X90838787Y-68804180D01*
X90871294Y-68727657D01*
X90868733Y-68638554D01*
X90868180Y-68635049D01*
X90874608Y-68587728D01*
X90896507Y-68505889D01*
X90930706Y-68398627D01*
X90974036Y-68275038D01*
X91023327Y-68144217D01*
X91075408Y-68015259D01*
X91127110Y-67897260D01*
X91174942Y-67793461D01*
X92149794Y-67793461D01*
X93124645Y-67793461D01*
X93149942Y-67860625D01*
X93156285Y-67877351D01*
X93180778Y-67941465D01*
X93217260Y-68036638D01*
X93261953Y-68153024D01*
X93311082Y-68280776D01*
X93335010Y-68343972D01*
X93379246Y-68466740D01*
X93414744Y-68573261D01*
X93438353Y-68653840D01*
X93446923Y-68698781D01*
X93451073Y-68736163D01*
X93486308Y-68813614D01*
X93547092Y-68870428D01*
X93620768Y-68892500D01*
X93674105Y-68881023D01*
X93740512Y-68842598D01*
X93792354Y-68789827D01*
X93813269Y-68736009D01*
X93795720Y-68659592D01*
X93751423Y-68594750D01*
X93693073Y-68560163D01*
X93646357Y-68549504D01*
X93602860Y-68538355D01*
X93590148Y-68527622D01*
X93570255Y-68496495D01*
X93542801Y-68441999D01*
X93506442Y-68360930D01*
X93459832Y-68250083D01*
X93401627Y-68106253D01*
X93330482Y-67926236D01*
X93245053Y-67706826D01*
X93143994Y-67444818D01*
X93117187Y-67375114D01*
X92963995Y-66977894D01*
X92827267Y-66625447D01*
X92706634Y-66316861D01*
X92601730Y-66051227D01*
X92512187Y-65827634D01*
X92437638Y-65645171D01*
X92377716Y-65502928D01*
X92332053Y-65399994D01*
X92300281Y-65335460D01*
X92282034Y-65308413D01*
X92230801Y-65287118D01*
X92161918Y-65277885D01*
X92117631Y-65282582D01*
X92026626Y-65326958D01*
X91948411Y-65417119D01*
X91884261Y-65551804D01*
X91873935Y-65579760D01*
X91840575Y-65667595D01*
X91791435Y-65795043D01*
X91728028Y-65958258D01*
X91651862Y-66153396D01*
X91564449Y-66376609D01*
X91467300Y-66624054D01*
X91361925Y-66891884D01*
X91249835Y-67176253D01*
X91132541Y-67473318D01*
X91011552Y-67779231D01*
X90888380Y-68090147D01*
X90764536Y-68402221D01*
X90742541Y-68451015D01*
X90700314Y-68506223D01*
X90640570Y-68537591D01*
X90615386Y-68547483D01*
X90538355Y-68602948D01*
X90496627Y-68677484D01*
X90494049Y-68760126D01*
X89995640Y-68760126D01*
X89999320Y-68750611D01*
X90062518Y-68587211D01*
X90096123Y-68500406D01*
X90176929Y-68292190D01*
X90262370Y-68072626D01*
X90346899Y-67855948D01*
X90424966Y-67656386D01*
X90491022Y-67488173D01*
X90515198Y-67426728D01*
X90587299Y-67243056D01*
X90669137Y-67034097D01*
X90755008Y-66814435D01*
X90839209Y-66598657D01*
X90916035Y-66401346D01*
X90969065Y-66264981D01*
X91076283Y-65989425D01*
X91167801Y-65754512D01*
X91244963Y-65556845D01*
X91309112Y-65393027D01*
X91361594Y-65259660D01*
X91403753Y-65153348D01*
X91436932Y-65070695D01*
X91462477Y-65008302D01*
X91481731Y-64962773D01*
X91496039Y-64930711D01*
X91506746Y-64908720D01*
X91543178Y-64838269D01*
X92171445Y-64838398D01*
X92799712Y-64838527D01*
X92901444Y-65113158D01*
X92928529Y-65185895D01*
X92976541Y-65313947D01*
X93035411Y-65470278D01*
X93101425Y-65645051D01*
X93170875Y-65828430D01*
X93240047Y-66010577D01*
X93294587Y-66154054D01*
X93362928Y-66334035D01*
X93428039Y-66505716D01*
X93486383Y-66659762D01*
X93534420Y-66786835D01*
X93568613Y-66877596D01*
X93635296Y-67054877D01*
X93719095Y-67276930D01*
X93807783Y-67511273D01*
X93899149Y-67752107D01*
X93990980Y-67993633D01*
X94081063Y-68230052D01*
X94167185Y-68455563D01*
X94247134Y-68664368D01*
X94274654Y-68736009D01*
X94318698Y-68850667D01*
G37*
G36*
X101189301Y-64252115D02*
G01*
X99613386Y-64252115D01*
X98037471Y-64252115D01*
X98044072Y-63745336D01*
X98044129Y-63740933D01*
X98437223Y-63740933D01*
X98484183Y-63822430D01*
X98521599Y-63857903D01*
X98606405Y-63898041D01*
X98695383Y-63890056D01*
X98784941Y-63833813D01*
X98792105Y-63827790D01*
X98810676Y-63816673D01*
X98837842Y-63807684D01*
X98878634Y-63800516D01*
X98938083Y-63794860D01*
X99021222Y-63790412D01*
X99133081Y-63786863D01*
X99278691Y-63783907D01*
X99463083Y-63781238D01*
X99691290Y-63778549D01*
X99779109Y-63777506D01*
X100024217Y-63773701D01*
X100223280Y-63769035D01*
X100378422Y-63763416D01*
X100491765Y-63756756D01*
X100565430Y-63748964D01*
X100601541Y-63739950D01*
X100618895Y-63730304D01*
X100641227Y-63714874D01*
X100660183Y-63694595D01*
X100676041Y-63665801D01*
X100689076Y-63624824D01*
X100699565Y-63567999D01*
X100707784Y-63491659D01*
X100714011Y-63392138D01*
X100718521Y-63265769D01*
X100721591Y-63108886D01*
X100723497Y-62917822D01*
X100724516Y-62688912D01*
X100724925Y-62418488D01*
X100725000Y-62102885D01*
X100724977Y-61910152D01*
X100724720Y-61621685D01*
X100723960Y-61376235D01*
X100722432Y-61170142D01*
X100719871Y-60999744D01*
X100716012Y-60861381D01*
X100710589Y-60751393D01*
X100703336Y-60666120D01*
X100693990Y-60601901D01*
X100682284Y-60555076D01*
X100667953Y-60521984D01*
X100650732Y-60498965D01*
X100630355Y-60482359D01*
X100606558Y-60468504D01*
X100595690Y-60464852D01*
X100534694Y-60456787D01*
X100426724Y-60450436D01*
X100273102Y-60445844D01*
X100075148Y-60443055D01*
X99834185Y-60442115D01*
X99111120Y-60442115D01*
X99018188Y-60344423D01*
X99003164Y-60328856D01*
X98944496Y-60276831D01*
X98891633Y-60252656D01*
X98825656Y-60246731D01*
X98825637Y-60246731D01*
X98718110Y-60266860D01*
X98634255Y-60321094D01*
X98580347Y-60400225D01*
X98562660Y-60495042D01*
X98587469Y-60596336D01*
X98595882Y-60612862D01*
X98654520Y-60683595D01*
X98739903Y-60722986D01*
X98860197Y-60735192D01*
X98924560Y-60731519D01*
X98984389Y-60710517D01*
X99039808Y-60661923D01*
X99108252Y-60588654D01*
X99804977Y-60588654D01*
X99988941Y-60588880D01*
X100156740Y-60589853D01*
X100285859Y-60591862D01*
X100381703Y-60595191D01*
X100449679Y-60600125D01*
X100495194Y-60606950D01*
X100523652Y-60615950D01*
X100540459Y-60627410D01*
X100551039Y-60642154D01*
X100560094Y-60668497D01*
X100566759Y-60710833D01*
X100571276Y-60774636D01*
X100573889Y-60865379D01*
X100574841Y-60988538D01*
X100574374Y-61149585D01*
X100572733Y-61353996D01*
X100566250Y-62041827D01*
X99908834Y-62048339D01*
X99829468Y-62049104D01*
X99649140Y-62050505D01*
X99509594Y-62050718D01*
X99404970Y-62049414D01*
X99329407Y-62046265D01*
X99277045Y-62040942D01*
X99242024Y-62033118D01*
X99218484Y-62022464D01*
X99200565Y-62008651D01*
X99139348Y-61959704D01*
X99043819Y-61914811D01*
X98957623Y-61917427D01*
X98879948Y-61967447D01*
X98856141Y-61995864D01*
X98824002Y-62077190D01*
X98830125Y-62160716D01*
X98869460Y-62234797D01*
X98936961Y-62287787D01*
X99027578Y-62308038D01*
X99105466Y-62296469D01*
X99162879Y-62254308D01*
X99176266Y-62239114D01*
X99193321Y-62226561D01*
X99219083Y-62217081D01*
X99259285Y-62210242D01*
X99319661Y-62205613D01*
X99405947Y-62202763D01*
X99523876Y-62201261D01*
X99679182Y-62200676D01*
X99877600Y-62200577D01*
X100057477Y-62200789D01*
X100219512Y-62201717D01*
X100342751Y-62203665D01*
X100432527Y-62206933D01*
X100494170Y-62211821D01*
X100533015Y-62218630D01*
X100554393Y-62227659D01*
X100563637Y-62239209D01*
X100566928Y-62263234D01*
X100570655Y-62331636D01*
X100573832Y-62436158D01*
X100576298Y-62569749D01*
X100577894Y-62725356D01*
X100578462Y-62895926D01*
X100578238Y-63081827D01*
X100577267Y-63231416D01*
X100575130Y-63344227D01*
X100571408Y-63426386D01*
X100565681Y-63484019D01*
X100557531Y-63523254D01*
X100546539Y-63550218D01*
X100532285Y-63571037D01*
X100486108Y-63628063D01*
X99671371Y-63630141D01*
X99671070Y-63630142D01*
X99450333Y-63630647D01*
X99273098Y-63630702D01*
X99134032Y-63629979D01*
X99027798Y-63628154D01*
X98949060Y-63624901D01*
X98892482Y-63619894D01*
X98852729Y-63612808D01*
X98824465Y-63603318D01*
X98802354Y-63591097D01*
X98781060Y-63575821D01*
X98760254Y-63561507D01*
X98663688Y-63523562D01*
X98570211Y-63529554D01*
X98489178Y-63579371D01*
X98487853Y-63580705D01*
X98438480Y-63658768D01*
X98437223Y-63740933D01*
X98044129Y-63740933D01*
X98050673Y-63238558D01*
X99058125Y-63248371D01*
X100065577Y-63258183D01*
X100065577Y-62924765D01*
X100065577Y-62591346D01*
X99247404Y-62591346D01*
X98429231Y-62591346D01*
X98429231Y-62115096D01*
X98429231Y-61638846D01*
X99247404Y-61638846D01*
X100065577Y-61638846D01*
X100065577Y-61296923D01*
X100065577Y-60955000D01*
X99115356Y-60955000D01*
X98165136Y-60955000D01*
X98147629Y-60721489D01*
X98142825Y-60638832D01*
X98139149Y-60512427D01*
X98138449Y-60377621D01*
X98140459Y-60243951D01*
X98144912Y-60120955D01*
X98151541Y-60018172D01*
X98160081Y-59945139D01*
X98170264Y-59911395D01*
X98170653Y-59911141D01*
X98201249Y-59907813D01*
X98276123Y-59904678D01*
X98391025Y-59901789D01*
X98541703Y-59899200D01*
X98723906Y-59896964D01*
X98933382Y-59895132D01*
X99165881Y-59893758D01*
X99417151Y-59892895D01*
X99682941Y-59892596D01*
X101176827Y-59892596D01*
X101183064Y-62072356D01*
X101183151Y-62102885D01*
X101189301Y-64252115D01*
G37*
G36*
X91903024Y-63479728D02*
G01*
X91995363Y-63636243D01*
X92071535Y-63765968D01*
X92127072Y-63861346D01*
X92151568Y-63903600D01*
X92213957Y-64009869D01*
X92267099Y-64098505D01*
X92306001Y-64161248D01*
X92325669Y-64189836D01*
X92333042Y-64198674D01*
X92347885Y-64233011D01*
X92336110Y-64236852D01*
X92282338Y-64241413D01*
X92191085Y-64244805D01*
X92069006Y-64246875D01*
X91922761Y-64247472D01*
X91759006Y-64246444D01*
X91170127Y-64239904D01*
X90928820Y-63824711D01*
X90861098Y-63708194D01*
X90769346Y-63550348D01*
X90679394Y-63395615D01*
X90598824Y-63257034D01*
X90535217Y-63147646D01*
X90528944Y-63136899D01*
X90470499Y-63040569D01*
X90420472Y-62964594D01*
X90384001Y-62916400D01*
X90366226Y-62903415D01*
X90360875Y-62910907D01*
X90333697Y-62955058D01*
X90288270Y-63031963D01*
X90228434Y-63134888D01*
X90158024Y-63257104D01*
X90080878Y-63391877D01*
X90000834Y-63532476D01*
X89921727Y-63672170D01*
X89847396Y-63804227D01*
X89781677Y-63921916D01*
X89728407Y-64018504D01*
X89691424Y-64087260D01*
X89605039Y-64252115D01*
X88985122Y-64252115D01*
X88365205Y-64252115D01*
X88393845Y-64197163D01*
X88397557Y-64190392D01*
X88424571Y-64143852D01*
X88472402Y-64063078D01*
X88537646Y-63953764D01*
X88616896Y-63821608D01*
X88706746Y-63672306D01*
X88712338Y-63663043D01*
X89227580Y-63663043D01*
X89234766Y-63681388D01*
X89271160Y-63720174D01*
X89318984Y-63745409D01*
X89357834Y-63744357D01*
X89363687Y-63738447D01*
X89393545Y-63697634D01*
X89441060Y-63625947D01*
X89501048Y-63531331D01*
X89568325Y-63421731D01*
X89584081Y-63395676D01*
X89748418Y-63124492D01*
X89889519Y-62892875D01*
X90008836Y-62698525D01*
X90107820Y-62539144D01*
X90187926Y-62412430D01*
X90250604Y-62316084D01*
X90297308Y-62247807D01*
X90329491Y-62205298D01*
X90348604Y-62186257D01*
X90376951Y-62188484D01*
X90422410Y-62227807D01*
X90484360Y-62307029D01*
X90563995Y-62427695D01*
X90662511Y-62591346D01*
X90708685Y-62669847D01*
X90796992Y-62817822D01*
X90889201Y-62970238D01*
X90971534Y-63104231D01*
X91031370Y-63202685D01*
X91097248Y-63315810D01*
X91152516Y-63415647D01*
X91189290Y-63488284D01*
X91231782Y-63564443D01*
X91292318Y-63624885D01*
X91355957Y-63638393D01*
X91420792Y-63604013D01*
X91463147Y-63541393D01*
X91463746Y-63468818D01*
X91421543Y-63395979D01*
X91338614Y-63329804D01*
X91326096Y-63321486D01*
X91285642Y-63283943D01*
X91235405Y-63222184D01*
X91172037Y-63131514D01*
X91092187Y-63007239D01*
X90992507Y-62844663D01*
X90984435Y-62831303D01*
X90897880Y-62688475D01*
X90813543Y-62550015D01*
X90737164Y-62425298D01*
X90674479Y-62323695D01*
X90631229Y-62254579D01*
X90626246Y-62246724D01*
X90578314Y-62167472D01*
X90554235Y-62114760D01*
X90550006Y-62076220D01*
X90561625Y-62039481D01*
X90576195Y-61981837D01*
X90557613Y-61917878D01*
X90500535Y-61874590D01*
X90410358Y-61858432D01*
X90395254Y-61855056D01*
X90358637Y-61829137D01*
X90309879Y-61775127D01*
X90246819Y-61690021D01*
X90167297Y-61570811D01*
X90069153Y-61414492D01*
X89950226Y-61218056D01*
X89948530Y-61215220D01*
X89871878Y-61088485D01*
X89814508Y-60998159D01*
X89771687Y-60938281D01*
X89738683Y-60902890D01*
X89710764Y-60886027D01*
X89683198Y-60881731D01*
X89633223Y-60893456D01*
X89612307Y-60934485D01*
X89629469Y-61003836D01*
X89684700Y-61100313D01*
X89729318Y-61167224D01*
X89799386Y-61274983D01*
X89876763Y-61396267D01*
X89956622Y-61523280D01*
X90034135Y-61648228D01*
X90104475Y-61763315D01*
X90162813Y-61860744D01*
X90204323Y-61932722D01*
X90224177Y-61971451D01*
X90226625Y-61977784D01*
X90231382Y-61992574D01*
X90232179Y-62009177D01*
X90226613Y-62032016D01*
X90212282Y-62065511D01*
X90186783Y-62114084D01*
X90147711Y-62182157D01*
X90092665Y-62274152D01*
X90019241Y-62394491D01*
X89925037Y-62547594D01*
X89807649Y-62737885D01*
X89771990Y-62795735D01*
X89698443Y-62915362D01*
X89632195Y-63023511D01*
X89579377Y-63110160D01*
X89546122Y-63165288D01*
X89523248Y-63202070D01*
X89464447Y-63289376D01*
X89403527Y-63372885D01*
X89400154Y-63377276D01*
X89316133Y-63490008D01*
X89261466Y-63571748D01*
X89232999Y-63627693D01*
X89227580Y-63663043D01*
X88712338Y-63663043D01*
X88803791Y-63511553D01*
X88874909Y-63393933D01*
X89041112Y-63119044D01*
X89184353Y-62881954D01*
X89306268Y-62679764D01*
X89408491Y-62509575D01*
X89492655Y-62368486D01*
X89560394Y-62253597D01*
X89613343Y-62162011D01*
X89653135Y-62090825D01*
X89681405Y-62037141D01*
X89699786Y-61998060D01*
X89709913Y-61970681D01*
X89713420Y-61952104D01*
X89711941Y-61939431D01*
X89707109Y-61929761D01*
X89700559Y-61920194D01*
X89665626Y-61866325D01*
X89595231Y-61756164D01*
X89511327Y-61623555D01*
X89421223Y-61480143D01*
X89332228Y-61337573D01*
X89251648Y-61207489D01*
X89186793Y-61101538D01*
X89175413Y-61082775D01*
X89114240Y-60982124D01*
X89035381Y-60852612D01*
X88945128Y-60704559D01*
X88849771Y-60548288D01*
X88755602Y-60394118D01*
X88688227Y-60283125D01*
X88604908Y-60142430D01*
X88545821Y-60037095D01*
X88509270Y-59963880D01*
X88493554Y-59919545D01*
X88496976Y-59900851D01*
X88506658Y-59898425D01*
X88559704Y-59893883D01*
X88650665Y-59890382D01*
X88772089Y-59888087D01*
X88916525Y-59887167D01*
X89076523Y-59887790D01*
X89624143Y-59892596D01*
X89983328Y-60514938D01*
X90010233Y-60561478D01*
X90100133Y-60715835D01*
X90181804Y-60854340D01*
X90252044Y-60971682D01*
X90307652Y-61062548D01*
X90345428Y-61121628D01*
X90362170Y-61143608D01*
X90375202Y-61136516D01*
X90406535Y-61097214D01*
X90444635Y-61034151D01*
X90460501Y-61005423D01*
X90501204Y-60932866D01*
X90558540Y-60831337D01*
X90627986Y-60708778D01*
X90705024Y-60573132D01*
X90785132Y-60432342D01*
X90863789Y-60294351D01*
X90936476Y-60167101D01*
X90998670Y-60058536D01*
X91045852Y-59976598D01*
X91073501Y-59929231D01*
X91092032Y-59919359D01*
X91152387Y-59907538D01*
X91245838Y-59897600D01*
X91364201Y-59889666D01*
X91499290Y-59883852D01*
X91642922Y-59880279D01*
X91786912Y-59879064D01*
X91923075Y-59880327D01*
X92043227Y-59884186D01*
X92139183Y-59890759D01*
X92202759Y-59900166D01*
X92225769Y-59912524D01*
X92225069Y-59917910D01*
X92207751Y-59962596D01*
X92171929Y-60032846D01*
X92123931Y-60116013D01*
X92075568Y-60195493D01*
X91917286Y-60455664D01*
X91781491Y-60678979D01*
X91665880Y-60869232D01*
X91568155Y-61030218D01*
X91486014Y-61165731D01*
X91417156Y-61279566D01*
X91359282Y-61375516D01*
X91310090Y-61457377D01*
X91267281Y-61528942D01*
X91215369Y-61614728D01*
X91152159Y-61716203D01*
X91097792Y-61800350D01*
X91060165Y-61854745D01*
X91030012Y-61898738D01*
X91013192Y-61946232D01*
X91023677Y-61990966D01*
X91039386Y-62020033D01*
X91077831Y-62087175D01*
X91135602Y-62186356D01*
X91209684Y-62312444D01*
X91297060Y-62460308D01*
X91394715Y-62624816D01*
X91499634Y-62800836D01*
X91573706Y-62924985D01*
X91687726Y-63116545D01*
X91798988Y-63303977D01*
X91896566Y-63468818D01*
X91903024Y-63479728D01*
G37*
G36*
X86114026Y-62072356D02*
G01*
X86115799Y-62692164D01*
X86120263Y-64252115D01*
X85623866Y-64252115D01*
X85127470Y-64252115D01*
X85124736Y-63821501D01*
X85123168Y-63700271D01*
X85119630Y-63574098D01*
X85114646Y-63472157D01*
X85108634Y-63402654D01*
X85102010Y-63373791D01*
X85092180Y-63367816D01*
X85043640Y-63348097D01*
X84974564Y-63326079D01*
X84957216Y-63320515D01*
X84852138Y-63265660D01*
X84740390Y-63175617D01*
X84613670Y-63055772D01*
X84407183Y-63293703D01*
X84396965Y-63305489D01*
X84322099Y-63392266D01*
X84222942Y-63507707D01*
X84105726Y-63644534D01*
X83976683Y-63795466D01*
X83842042Y-63953223D01*
X83708036Y-64110525D01*
X83215377Y-64689416D01*
X83262215Y-64795302D01*
X83262446Y-64795825D01*
X83300588Y-64922938D01*
X83319216Y-65075118D01*
X83318524Y-65130151D01*
X83317241Y-65232290D01*
X83293578Y-65374382D01*
X83278320Y-65431093D01*
X83257834Y-65509726D01*
X83245029Y-65562088D01*
X83244866Y-65570001D01*
X83257825Y-65611209D01*
X83291544Y-65682115D01*
X83347255Y-65784932D01*
X83426184Y-65921875D01*
X83529562Y-66095157D01*
X83658619Y-66306992D01*
X83718206Y-66404172D01*
X83821683Y-66573395D01*
X83918194Y-66731790D01*
X84004009Y-66873204D01*
X84075398Y-66991486D01*
X84128632Y-67080481D01*
X84159980Y-67134038D01*
X84199503Y-67195425D01*
X84257809Y-67266798D01*
X84309889Y-67311793D01*
X84397461Y-67382554D01*
X84451170Y-67464393D01*
X84465484Y-67486203D01*
X84515679Y-67628855D01*
X84526845Y-67667833D01*
X84552370Y-67725696D01*
X84569445Y-67764405D01*
X84630439Y-67834051D01*
X84698318Y-67893727D01*
X84776892Y-67977966D01*
X84823665Y-68059276D01*
X84845220Y-68150702D01*
X84846406Y-68197155D01*
X84848146Y-68265290D01*
X84847754Y-68319427D01*
X84856113Y-68405185D01*
X84879799Y-68493969D01*
X84923165Y-68605529D01*
X84952545Y-68675156D01*
X85003034Y-68794808D01*
X85104948Y-68794808D01*
X85259295Y-68813411D01*
X85432501Y-68872808D01*
X85599130Y-68966900D01*
X85727330Y-69072217D01*
X85748255Y-69089407D01*
X85868948Y-69234045D01*
X85892429Y-69270049D01*
X85960956Y-69392497D01*
X86011123Y-69519269D01*
X86047961Y-69665169D01*
X86076498Y-69845000D01*
X86089669Y-69993874D01*
X86087570Y-70156098D01*
X86066496Y-70290615D01*
X86027759Y-70392634D01*
X85972673Y-70457359D01*
X85902549Y-70480000D01*
X85847365Y-70476976D01*
X85798120Y-70463131D01*
X85756057Y-70432468D01*
X85716884Y-70379008D01*
X85676308Y-70296773D01*
X85630038Y-70179784D01*
X85573780Y-70022061D01*
X85525548Y-69886706D01*
X85462459Y-69725156D01*
X85404407Y-69602413D01*
X85347106Y-69513440D01*
X85286271Y-69453202D01*
X85217615Y-69416663D01*
X85136853Y-69398787D01*
X85039698Y-69394539D01*
X85034364Y-69394589D01*
X84944516Y-69398922D01*
X84869260Y-69413173D01*
X84789850Y-69442543D01*
X84687538Y-69492231D01*
X84643494Y-69515897D01*
X84494084Y-69618580D01*
X84391902Y-69731272D01*
X84337209Y-69853091D01*
X84330263Y-69983156D01*
X84371324Y-70120586D01*
X84460649Y-70264500D01*
X84494172Y-70307579D01*
X84559350Y-70390688D01*
X84637000Y-70489205D01*
X84716713Y-70589904D01*
X84765871Y-70652069D01*
X84843683Y-70752823D01*
X84895619Y-70826062D01*
X84925117Y-70878619D01*
X84935619Y-70917328D01*
X84930565Y-70949022D01*
X84913395Y-70980533D01*
X84875081Y-71021152D01*
X84820073Y-71050093D01*
X84795598Y-71053600D01*
X84723166Y-71057301D01*
X84638430Y-71056143D01*
X84606666Y-71053339D01*
X84468397Y-71015107D01*
X84323877Y-70939124D01*
X84180471Y-70832315D01*
X84045544Y-70701603D01*
X83926463Y-70553913D01*
X83830591Y-70396169D01*
X83765295Y-70235294D01*
X83744350Y-70145504D01*
X83729313Y-69957998D01*
X83745898Y-69764483D01*
X83792138Y-69580803D01*
X83866069Y-69422802D01*
X83923672Y-69330316D01*
X83859466Y-69210069D01*
X84366698Y-69210069D01*
X84370251Y-69246323D01*
X84385278Y-69269194D01*
X84429358Y-69280002D01*
X84499788Y-69255747D01*
X84599664Y-69195747D01*
X84631772Y-69173923D01*
X84691761Y-69130026D01*
X84719476Y-69099335D01*
X84721310Y-69072217D01*
X84703656Y-69039038D01*
X84691559Y-69025463D01*
X84665549Y-69020946D01*
X84619803Y-69036846D01*
X84543340Y-69075673D01*
X84539611Y-69077673D01*
X84445181Y-69131853D01*
X84389610Y-69173949D01*
X84366698Y-69210069D01*
X83859466Y-69210069D01*
X83843423Y-69180022D01*
X83805968Y-69113258D01*
X83764119Y-69055317D01*
X83719491Y-69020330D01*
X83659600Y-68995788D01*
X83599976Y-68969325D01*
X83572018Y-68947515D01*
X84125703Y-68947515D01*
X84131235Y-68973645D01*
X84146973Y-69000963D01*
X84172138Y-69010157D01*
X84214554Y-68998958D01*
X84282112Y-68965275D01*
X84382703Y-68907016D01*
X84394084Y-68900220D01*
X84519448Y-68820645D01*
X84601619Y-68757726D01*
X84642483Y-68709788D01*
X84643926Y-68675156D01*
X84630081Y-68659335D01*
X84599321Y-68651115D01*
X84550330Y-68663926D01*
X84475821Y-68700062D01*
X84368511Y-68761814D01*
X84313955Y-68794565D01*
X84222906Y-68851163D01*
X84165324Y-68891823D01*
X84134994Y-68922090D01*
X84125703Y-68947515D01*
X83572018Y-68947515D01*
X83497137Y-68889099D01*
X83413156Y-68779458D01*
X83356533Y-68652847D01*
X83344886Y-68579293D01*
X83681272Y-68579293D01*
X83707000Y-68618961D01*
X83734135Y-68639569D01*
X83768495Y-68642794D01*
X83818986Y-68623022D01*
X83897500Y-68577673D01*
X83941821Y-68550771D01*
X84030439Y-68497448D01*
X84136582Y-68433939D01*
X84245901Y-68368843D01*
X84331319Y-68317185D01*
X84414098Y-68265003D01*
X84472800Y-68225521D01*
X84498340Y-68204650D01*
X84501604Y-68197155D01*
X84492057Y-68159411D01*
X84454604Y-68125609D01*
X84404486Y-68110961D01*
X84377989Y-68117945D01*
X84314530Y-68146614D01*
X84229143Y-68192318D01*
X84132717Y-68249507D01*
X84070987Y-68287841D01*
X83962875Y-68354912D01*
X83865287Y-68415380D01*
X83793702Y-68459649D01*
X83740429Y-68494818D01*
X83691158Y-68540222D01*
X83681272Y-68579293D01*
X83344886Y-68579293D01*
X83335769Y-68521712D01*
X83332995Y-68498269D01*
X83304372Y-68452799D01*
X83237347Y-68406563D01*
X83213225Y-68391973D01*
X83145944Y-68341211D01*
X83100535Y-68292656D01*
X83054215Y-68189121D01*
X83036126Y-68087911D01*
X83440969Y-68087911D01*
X83455493Y-68130915D01*
X83478996Y-68163991D01*
X83525503Y-68182069D01*
X83580872Y-68152130D01*
X83609539Y-68131403D01*
X83673225Y-68090442D01*
X83760354Y-68036984D01*
X83860865Y-67977312D01*
X83948867Y-67925805D01*
X84043519Y-67870213D01*
X84118099Y-67826198D01*
X84161545Y-67800273D01*
X84189164Y-67775844D01*
X84209929Y-67725696D01*
X84200573Y-67678362D01*
X84161145Y-67651699D01*
X84154886Y-67652035D01*
X84110476Y-67668200D01*
X84036537Y-67703521D01*
X83942213Y-67752874D01*
X83836644Y-67811135D01*
X83728974Y-67873181D01*
X83628344Y-67933886D01*
X83543897Y-67988129D01*
X83484775Y-68030783D01*
X83459475Y-68053113D01*
X83440969Y-68087911D01*
X83036126Y-68087911D01*
X83031629Y-68062748D01*
X83039467Y-67942252D01*
X83040746Y-67936489D01*
X83045539Y-67908441D01*
X83045280Y-67880038D01*
X83037362Y-67846147D01*
X83019183Y-67801634D01*
X82988136Y-67741367D01*
X82941618Y-67660212D01*
X82877023Y-67553036D01*
X82791748Y-67414706D01*
X82683188Y-67240088D01*
X82580726Y-67075273D01*
X82472718Y-66901084D01*
X82368882Y-66733198D01*
X82274641Y-66580399D01*
X82195420Y-66451469D01*
X82136645Y-66355190D01*
X82095688Y-66288181D01*
X82034369Y-66191899D01*
X81994376Y-66136548D01*
X82444327Y-66136548D01*
X82515318Y-66162355D01*
X82523873Y-66165270D01*
X82602999Y-66175606D01*
X82706676Y-66160376D01*
X82730519Y-66155304D01*
X82813994Y-66145857D01*
X82866265Y-66154542D01*
X82882340Y-66167591D01*
X82909569Y-66200007D01*
X82947802Y-66254491D01*
X82999652Y-66335130D01*
X83067734Y-66446012D01*
X83154662Y-66591222D01*
X83263049Y-66774847D01*
X83281416Y-66805969D01*
X83360009Y-66937206D01*
X83445105Y-67076984D01*
X83521255Y-67199872D01*
X83567068Y-67274270D01*
X83620592Y-67368883D01*
X83647471Y-67431204D01*
X83649346Y-67465480D01*
X83627857Y-67475961D01*
X83624310Y-67476134D01*
X83576708Y-67495735D01*
X83521899Y-67537391D01*
X83476689Y-67586158D01*
X83457885Y-67627093D01*
X83462900Y-67651066D01*
X83488414Y-67669798D01*
X83528064Y-67661973D01*
X83600142Y-67633364D01*
X83678751Y-67591379D01*
X83750937Y-67543940D01*
X83803749Y-67498970D01*
X83824231Y-67464393D01*
X83816777Y-67440587D01*
X83788195Y-67380953D01*
X83743180Y-67298074D01*
X83687067Y-67202151D01*
X83679606Y-67189805D01*
X83620786Y-67092287D01*
X83544232Y-66965128D01*
X83456284Y-66818873D01*
X83363283Y-66664066D01*
X83271571Y-66511250D01*
X83236069Y-66452067D01*
X83156707Y-66319824D01*
X83086705Y-66203249D01*
X83030001Y-66108900D01*
X82990536Y-66043331D01*
X82972249Y-66013100D01*
X82954855Y-65999251D01*
X82920718Y-66000091D01*
X82861064Y-66018314D01*
X82766655Y-66055841D01*
X82747104Y-66063835D01*
X82651576Y-66099146D01*
X82568211Y-66124417D01*
X82513188Y-66134620D01*
X82444327Y-66136548D01*
X81994376Y-66136548D01*
X81986370Y-66125468D01*
X81944656Y-66080685D01*
X81902191Y-66049347D01*
X81851941Y-66023254D01*
X81778872Y-65980709D01*
X81666961Y-65889230D01*
X81558919Y-65774520D01*
X81466929Y-65649994D01*
X81403173Y-65529066D01*
X81377748Y-65456878D01*
X81358924Y-65373366D01*
X81349205Y-65274268D01*
X81346786Y-65170359D01*
X81752787Y-65170359D01*
X81761197Y-65254712D01*
X81808167Y-65415217D01*
X81894802Y-65547401D01*
X82021402Y-65651801D01*
X82094302Y-65688573D01*
X82235059Y-65727463D01*
X82380713Y-65734771D01*
X82512282Y-65708310D01*
X82516018Y-65706906D01*
X82667723Y-65628122D01*
X82784212Y-65524537D01*
X82866259Y-65402669D01*
X82914635Y-65269034D01*
X82930112Y-65130151D01*
X82913461Y-64992536D01*
X82865455Y-64862707D01*
X82786864Y-64747180D01*
X82678461Y-64652473D01*
X82541018Y-64585104D01*
X82375306Y-64551589D01*
X82292548Y-64550220D01*
X82130035Y-64580565D01*
X81986637Y-64652608D01*
X81868801Y-64762488D01*
X81782977Y-64906342D01*
X81776021Y-64924328D01*
X81754556Y-65029355D01*
X81752787Y-65170359D01*
X81346786Y-65170359D01*
X81346150Y-65143044D01*
X81346143Y-65141052D01*
X81346929Y-65025881D01*
X81352344Y-64943231D01*
X81365581Y-64877029D01*
X81389836Y-64811202D01*
X81428301Y-64729677D01*
X81482194Y-64634261D01*
X81552031Y-64532540D01*
X81619206Y-64453162D01*
X81708035Y-64379510D01*
X81840574Y-64298136D01*
X81983857Y-64232680D01*
X82007034Y-64225935D01*
X82651923Y-64225935D01*
X82654087Y-64235607D01*
X82682452Y-64252354D01*
X82705466Y-64257436D01*
X82764168Y-64278759D01*
X82838464Y-64311020D01*
X82963948Y-64369447D01*
X83060176Y-64268041D01*
X83123144Y-64199101D01*
X83201829Y-64109034D01*
X83276616Y-64020108D01*
X83330648Y-63955170D01*
X83412235Y-63858417D01*
X83514075Y-63738446D01*
X83630202Y-63602219D01*
X83754652Y-63456702D01*
X83881461Y-63308856D01*
X84004664Y-63165647D01*
X84118297Y-63034038D01*
X84216394Y-62920991D01*
X84292993Y-62833472D01*
X84321065Y-62801309D01*
X84379298Y-62732210D01*
X84419691Y-62680813D01*
X84434808Y-62656405D01*
X84432721Y-62653035D01*
X84399738Y-62643871D01*
X84339384Y-62640192D01*
X84335481Y-62640198D01*
X84300892Y-62641972D01*
X84269906Y-62650495D01*
X84236784Y-62670956D01*
X84195791Y-62708547D01*
X84141188Y-62768459D01*
X84067238Y-62855883D01*
X83968202Y-62976010D01*
X83908408Y-63048628D01*
X83801369Y-63177798D01*
X83696691Y-63303209D01*
X83603875Y-63413495D01*
X83532424Y-63497290D01*
X83525885Y-63504872D01*
X83445203Y-63598766D01*
X83346090Y-63714564D01*
X83240500Y-63838283D01*
X83140385Y-63955939D01*
X82908365Y-64229125D01*
X82780144Y-64214440D01*
X82743003Y-64210870D01*
X82675008Y-64211318D01*
X82651923Y-64225935D01*
X82007034Y-64225935D01*
X82117366Y-64193826D01*
X82150110Y-64184898D01*
X82188691Y-64164507D01*
X82234160Y-64128003D01*
X82292455Y-64069901D01*
X82369510Y-63984719D01*
X82471264Y-63866975D01*
X82525076Y-63804197D01*
X82633603Y-63678298D01*
X82760955Y-63531211D01*
X82898813Y-63372524D01*
X83038856Y-63211822D01*
X83172764Y-63058693D01*
X83178254Y-63052424D01*
X83291708Y-62921373D01*
X83392372Y-62802297D01*
X83476299Y-62700090D01*
X83539543Y-62619645D01*
X83549550Y-62605705D01*
X84850813Y-62605705D01*
X84854391Y-62656405D01*
X84859856Y-62733841D01*
X84911585Y-62861341D01*
X85007015Y-62980969D01*
X85044146Y-63014774D01*
X85095739Y-63048493D01*
X85156816Y-63065612D01*
X85247049Y-63073735D01*
X85282216Y-63075350D01*
X85366545Y-63073208D01*
X85431215Y-63056867D01*
X85497723Y-63021881D01*
X85504157Y-63017859D01*
X85607533Y-62926619D01*
X85672982Y-62815001D01*
X85701072Y-62692164D01*
X85692372Y-62567261D01*
X85647447Y-62449450D01*
X85566868Y-62347885D01*
X85451201Y-62271724D01*
X85344769Y-62235508D01*
X85228519Y-62232151D01*
X85106442Y-62271161D01*
X85069667Y-62289825D01*
X84956732Y-62376461D01*
X84883442Y-62484166D01*
X84850813Y-62605705D01*
X83549550Y-62605705D01*
X83578157Y-62565856D01*
X83588193Y-62543617D01*
X83584736Y-62540984D01*
X83543885Y-62519348D01*
X83482308Y-62493509D01*
X83431969Y-62471003D01*
X83321208Y-62406105D01*
X83203360Y-62321894D01*
X83094340Y-62230191D01*
X83010065Y-62142814D01*
X82965509Y-62083648D01*
X82878965Y-61943982D01*
X82803555Y-61792128D01*
X82751365Y-61651058D01*
X82745704Y-61627737D01*
X82731639Y-61543986D01*
X82718948Y-61436038D01*
X82709829Y-61321346D01*
X82709059Y-61265706D01*
X83685997Y-61265706D01*
X83688978Y-61294017D01*
X83716976Y-61428417D01*
X83770293Y-61537437D01*
X83856453Y-61632738D01*
X83982981Y-61725984D01*
X83987621Y-61728911D01*
X84016735Y-61743917D01*
X84053577Y-61755366D01*
X84105000Y-61763875D01*
X84177856Y-61770059D01*
X84278999Y-61774532D01*
X84415282Y-61777911D01*
X84593558Y-61780811D01*
X85130865Y-61788449D01*
X85129499Y-61646484D01*
X85129070Y-61603660D01*
X85128038Y-61505293D01*
X85126663Y-61377563D01*
X85125072Y-61232247D01*
X85123394Y-61081122D01*
X85118654Y-60657725D01*
X84599664Y-60666200D01*
X84548742Y-60667050D01*
X84386200Y-60670267D01*
X84263112Y-60674090D01*
X84172063Y-60679261D01*
X84105637Y-60686523D01*
X84056419Y-60696619D01*
X84016994Y-60710292D01*
X83979947Y-60728286D01*
X83972552Y-60732278D01*
X83837724Y-60830757D01*
X83743844Y-60954642D01*
X83692679Y-61100702D01*
X83685997Y-61265706D01*
X82709059Y-61265706D01*
X82707334Y-61141074D01*
X82735897Y-60895105D01*
X82804268Y-60674153D01*
X82913691Y-60474617D01*
X83065410Y-60292901D01*
X83071483Y-60286827D01*
X83201260Y-60170386D01*
X83334129Y-60080888D01*
X83485338Y-60009636D01*
X83670138Y-59947930D01*
X83689573Y-59942351D01*
X83734298Y-59930310D01*
X83778940Y-59920391D01*
X83828393Y-59912388D01*
X83887549Y-59906096D01*
X83961300Y-59901309D01*
X84054541Y-59897820D01*
X84172163Y-59895424D01*
X84319060Y-59893916D01*
X84500124Y-59893089D01*
X84720249Y-59892737D01*
X84984327Y-59892656D01*
X86107789Y-59892596D01*
X86113214Y-61788449D01*
X86114026Y-62072356D01*
G37*
%TD*%
M02*
