%TF.GenerationSoftware,KiCad,Pcbnew,9.0.7*%
%TF.CreationDate,2026-03-02T14:05:14-05:00*%
%TF.ProjectId,soft_robot_cam_usbcv2,736f6674-5f72-46f6-926f-745f63616d5f,rev?*%
%TF.SameCoordinates,Original*%
%TF.FileFunction,Soldermask,Top*%
%TF.FilePolarity,Negative*%
%FSLAX46Y46*%
G04 Gerber Fmt 4.6, Leading zero omitted, Abs format (unit mm)*
G04 Created by KiCad (PCBNEW 9.0.7) date 2026-03-02 14:05:14*
%MOMM*%
%LPD*%
G01*
G04 APERTURE LIST*
G04 Aperture macros list*
%AMRoundRect*
0 Rectangle with rounded corners*
0 $1 Rounding radius*
0 $2 $3 $4 $5 $6 $7 $8 $9 X,Y pos of 4 corners*
0 Add a 4 corners polygon primitive as box body*
4,1,4,$2,$3,$4,$5,$6,$7,$8,$9,$2,$3,0*
0 Add four circle primitives for the rounded corners*
1,1,$1+$1,$2,$3*
1,1,$1+$1,$4,$5*
1,1,$1+$1,$6,$7*
1,1,$1+$1,$8,$9*
0 Add four rect primitives between the rounded corners*
20,1,$1+$1,$2,$3,$4,$5,0*
20,1,$1+$1,$4,$5,$6,$7,0*
20,1,$1+$1,$6,$7,$8,$9,0*
20,1,$1+$1,$8,$9,$2,$3,0*%
G04 Aperture macros list end*
%ADD10RoundRect,0.244000X0.269000X-0.244000X0.269000X0.244000X-0.269000X0.244000X-0.269000X-0.244000X0*%
%ADD11RoundRect,0.219000X0.294000X-0.219000X0.294000X0.219000X-0.294000X0.219000X-0.294000X-0.219000X0*%
%ADD12C,2.200000*%
%ADD13RoundRect,0.102000X0.654000X-0.654000X0.654000X0.654000X-0.654000X0.654000X-0.654000X-0.654000X0*%
%ADD14C,1.512000*%
%ADD15RoundRect,0.244000X-0.269000X0.244000X-0.269000X-0.244000X0.269000X-0.244000X0.269000X0.244000X0*%
%ADD16RoundRect,0.244000X0.244000X0.269000X-0.244000X0.269000X-0.244000X-0.269000X0.244000X-0.269000X0*%
%ADD17RoundRect,0.219000X0.219000X0.294000X-0.219000X0.294000X-0.219000X-0.294000X0.219000X-0.294000X0*%
%ADD18RoundRect,0.219000X-0.294000X0.219000X-0.294000X-0.219000X0.294000X-0.219000X0.294000X0.219000X0*%
%ADD19C,0.700000*%
%ADD20R,0.550000X1.100000*%
%ADD21R,0.300000X1.100000*%
%ADD22O,1.100000X2.000000*%
%ADD23O,1.200000X1.800000*%
%ADD24RoundRect,0.150000X-0.512500X-0.150000X0.512500X-0.150000X0.512500X0.150000X-0.512500X0.150000X0*%
%ADD25RoundRect,0.219000X-0.219000X-0.294000X0.219000X-0.294000X0.219000X0.294000X-0.219000X0.294000X0*%
%ADD26RoundRect,0.131500X-0.206500X-0.131500X0.206500X-0.131500X0.206500X0.131500X-0.206500X0.131500X0*%
%ADD27RoundRect,0.760000X-1.140000X-1.140000X1.140000X-1.140000X1.140000X1.140000X-1.140000X1.140000X0*%
%ADD28C,4.000000*%
%ADD29RoundRect,0.244000X-0.244000X-0.269000X0.244000X-0.269000X0.244000X0.269000X-0.244000X0.269000X0*%
%ADD30R,0.800000X1.000000*%
%ADD31R,0.500000X0.280000*%
%ADD32R,0.280000X0.500000*%
%ADD33R,1.000000X1.000000*%
%ADD34C,1.000000*%
%ADD35O,1.750000X0.340000*%
%ADD36R,2.460000X3.550000*%
%ADD37RoundRect,0.159000X-0.159000X-0.189000X0.159000X-0.189000X0.159000X0.189000X-0.159000X0.189000X0*%
%ADD38RoundRect,0.159000X0.159000X0.189000X-0.159000X0.189000X-0.159000X-0.189000X0.159000X-0.189000X0*%
%ADD39R,1.600000X3.200000*%
%ADD40R,1.400000X1.400000*%
%ADD41C,1.400000*%
%ADD42RoundRect,0.102000X-0.654000X0.654000X-0.654000X-0.654000X0.654000X-0.654000X0.654000X0.654000X0*%
%ADD43RoundRect,0.159000X0.189000X-0.159000X0.189000X0.159000X-0.189000X0.159000X-0.189000X-0.159000X0*%
%ADD44RoundRect,0.239000X0.274000X-0.239000X0.274000X0.239000X-0.274000X0.239000X-0.274000X-0.239000X0*%
%ADD45R,5.720000X2.200000*%
%ADD46RoundRect,0.150000X-0.150000X0.590000X-0.150000X-0.590000X0.150000X-0.590000X0.150000X0.590000X0*%
%ADD47R,1.498600X0.812800*%
%ADD48R,0.812800X1.498600*%
%ADD49R,0.889000X0.889000*%
%ADD50R,0.300000X1.200000*%
%ADD51R,2.200000X3.300000*%
%ADD52R,1.730000X1.190000*%
%ADD53R,1.050000X1.100000*%
%ADD54C,1.050000*%
%ADD55R,1.200000X0.550000*%
G04 APERTURE END LIST*
D10*
%TO.C,C13*%
X66800000Y-60400000D03*
X66800000Y-58840000D03*
%TD*%
D11*
%TO.C,R27*%
X91800000Y-75200000D03*
X91800000Y-73560000D03*
%TD*%
D12*
%TO.C,REF\u002A\u002A*%
X54800000Y-58800000D03*
%TD*%
D13*
%TO.C,J3*%
X110350000Y-59000000D03*
D14*
X110350000Y-61000000D03*
X110350000Y-63000000D03*
%TD*%
D15*
%TO.C,C16*%
X86200000Y-92240000D03*
X86200000Y-93800000D03*
%TD*%
D16*
%TO.C,C15*%
X91780000Y-83200000D03*
X90220000Y-83200000D03*
%TD*%
D15*
%TO.C,C19*%
X87937500Y-95770000D03*
X87937500Y-97330000D03*
%TD*%
%TO.C,C14*%
X100400000Y-74020000D03*
X100400000Y-75580000D03*
%TD*%
D11*
%TO.C,R26*%
X69200000Y-83020000D03*
X69200000Y-81380000D03*
%TD*%
D17*
%TO.C,R11*%
X106570000Y-64000000D03*
X104930000Y-64000000D03*
%TD*%
D18*
%TO.C,R33*%
X66900000Y-85160000D03*
X66900000Y-86800000D03*
%TD*%
D10*
%TO.C,C20*%
X86137500Y-97330000D03*
X86137500Y-95770000D03*
%TD*%
D15*
%TO.C,C28*%
X87000000Y-82820000D03*
X87000000Y-84380000D03*
%TD*%
D19*
%TO.C,USB1*%
X65110000Y-95217500D03*
X70890000Y-95217500D03*
D20*
X64800000Y-94137500D03*
X65600000Y-94137500D03*
D21*
X66250000Y-94137500D03*
X66750000Y-94137500D03*
X67250000Y-94137500D03*
X67750000Y-94137500D03*
X68250000Y-94137500D03*
X68750000Y-94137500D03*
X69250000Y-94137500D03*
X69750000Y-94137500D03*
D20*
X70400000Y-94137500D03*
X71200000Y-94137500D03*
D22*
X63680000Y-94687500D03*
D23*
X63680000Y-98897500D03*
D22*
X72320000Y-94687500D03*
D23*
X72320000Y-98897500D03*
%TD*%
D10*
%TO.C,C18*%
X94137500Y-97330000D03*
X94137500Y-95770000D03*
%TD*%
D11*
%TO.C,R22*%
X95537500Y-97370000D03*
X95537500Y-95730000D03*
%TD*%
D12*
%TO.C,REF\u002A\u002A*%
X115000000Y-96800000D03*
%TD*%
D18*
%TO.C,R3*%
X60400000Y-85000000D03*
X60400000Y-86640000D03*
%TD*%
D24*
%TO.C,U12*%
X82000000Y-95600000D03*
X82000000Y-97500000D03*
X84275000Y-96550000D03*
%TD*%
D11*
%TO.C,R12*%
X65200000Y-62220000D03*
X65200000Y-60580000D03*
%TD*%
%TO.C,R24*%
X57200000Y-82020000D03*
X57200000Y-80380000D03*
%TD*%
%TO.C,R10*%
X63400000Y-62220000D03*
X63400000Y-60580000D03*
%TD*%
D25*
%TO.C,R31*%
X68780000Y-88000000D03*
X70420000Y-88000000D03*
%TD*%
D15*
%TO.C,C26*%
X83000000Y-92240000D03*
X83000000Y-93800000D03*
%TD*%
D18*
%TO.C,R13*%
X91800000Y-68180000D03*
X91800000Y-69820000D03*
%TD*%
D26*
%TO.C,D4*%
X59875000Y-91800000D03*
X61975000Y-91800000D03*
%TD*%
D16*
%TO.C,C25*%
X78180000Y-94200000D03*
X76620000Y-94200000D03*
%TD*%
D18*
%TO.C,R8*%
X91800000Y-64780000D03*
X91800000Y-66420000D03*
%TD*%
D27*
%TO.C,J1*%
X100000000Y-93200000D03*
D28*
X105000000Y-93200000D03*
%TD*%
D29*
%TO.C,C29*%
X90220000Y-80200000D03*
X91780000Y-80200000D03*
%TD*%
D10*
%TO.C,C11*%
X102400000Y-86380000D03*
X102400000Y-84820000D03*
%TD*%
D12*
%TO.C,REF\u002A\u002A*%
X55000000Y-97200000D03*
%TD*%
D10*
%TO.C,C22*%
X86200000Y-80180000D03*
X86200000Y-78620000D03*
%TD*%
D29*
%TO.C,C5*%
X98620000Y-58320000D03*
X100180000Y-58320000D03*
%TD*%
D17*
%TO.C,R16*%
X105820000Y-86400000D03*
X104180000Y-86400000D03*
%TD*%
D12*
%TO.C,REF\u002A\u002A*%
X115000000Y-58800000D03*
%TD*%
D15*
%TO.C,C10*%
X93400000Y-68220000D03*
X93400000Y-69780000D03*
%TD*%
D10*
%TO.C,C24*%
X78200000Y-96980000D03*
X78200000Y-95420000D03*
%TD*%
%TO.C,C17*%
X79937500Y-97130000D03*
X79937500Y-95570000D03*
%TD*%
D18*
%TO.C,R21*%
X66800000Y-61780000D03*
X66800000Y-63420000D03*
%TD*%
D17*
%TO.C,R32*%
X70420000Y-89800000D03*
X68780000Y-89800000D03*
%TD*%
D10*
%TO.C,C8*%
X98980000Y-75500000D03*
X98980000Y-73940000D03*
%TD*%
D15*
%TO.C,C21*%
X94887500Y-71040000D03*
X94887500Y-72600000D03*
%TD*%
D18*
%TO.C,R15*%
X82600000Y-78580000D03*
X82600000Y-80220000D03*
%TD*%
D17*
%TO.C,R7*%
X108620000Y-66000000D03*
X106980000Y-66000000D03*
%TD*%
%TO.C,R17*%
X105820000Y-84150000D03*
X104180000Y-84150000D03*
%TD*%
D16*
%TO.C,C23*%
X78180000Y-92400000D03*
X76620000Y-92400000D03*
%TD*%
D11*
%TO.C,R9*%
X102800000Y-65620000D03*
X102800000Y-63980000D03*
%TD*%
D30*
%TO.C,Q3*%
X94550000Y-90650000D03*
X92650000Y-90650000D03*
X93600000Y-92950000D03*
%TD*%
D17*
%TO.C,R25*%
X89420000Y-78600000D03*
X87780000Y-78600000D03*
%TD*%
D31*
%TO.C,AC1*%
X63430000Y-65450000D03*
X63430000Y-65950000D03*
X63430000Y-66450000D03*
X63430000Y-66950000D03*
D32*
X64100000Y-67130000D03*
X64600000Y-67130000D03*
X65100000Y-67130000D03*
D31*
X65770000Y-66950000D03*
X65770000Y-66450000D03*
X65770000Y-65950000D03*
X65770000Y-65450000D03*
D32*
X65100000Y-65270000D03*
X64600000Y-65270000D03*
X64100000Y-65270000D03*
%TD*%
D16*
%TO.C,C30*%
X91780000Y-84800000D03*
X90220000Y-84800000D03*
%TD*%
D33*
%TO.C,J5*%
X107600000Y-81660000D03*
D34*
X107600000Y-80400000D03*
%TD*%
D16*
%TO.C,C34*%
X65580000Y-68600000D03*
X64020000Y-68600000D03*
%TD*%
D35*
%TO.C,U4*%
X100000000Y-89260000D03*
X100000000Y-88610000D03*
X100000000Y-87960000D03*
X100000000Y-87300000D03*
X100000000Y-86650000D03*
X100000000Y-86000000D03*
X100000000Y-85350000D03*
X100000000Y-84700000D03*
X94260000Y-84700000D03*
X94260000Y-85350000D03*
X94260000Y-86000000D03*
X94260000Y-86650000D03*
X94260000Y-87300000D03*
X94260000Y-87960000D03*
X94260000Y-88610000D03*
X94260000Y-89260000D03*
D36*
X97130000Y-86980000D03*
%TD*%
D13*
%TO.C,J7*%
X106150000Y-69200000D03*
D14*
X106150000Y-71200000D03*
%TD*%
D18*
%TO.C,R14*%
X84550000Y-78560000D03*
X84550000Y-80200000D03*
%TD*%
D15*
%TO.C,C31*%
X84600000Y-92240000D03*
X84600000Y-93800000D03*
%TD*%
D37*
%TO.C,R6*%
X96480000Y-73820000D03*
X97480000Y-73820000D03*
%TD*%
D38*
%TO.C,C4*%
X97480000Y-74920000D03*
X96480000Y-74920000D03*
%TD*%
D39*
%TO.C,TP5*%
X65200000Y-73200000D03*
%TD*%
D18*
%TO.C,R23*%
X93200000Y-64780000D03*
X93200000Y-66420000D03*
%TD*%
D29*
%TO.C,C6*%
X98620000Y-59920000D03*
X100180000Y-59920000D03*
%TD*%
D40*
%TO.C,J12*%
X55200000Y-73000000D03*
D41*
X55200000Y-71000000D03*
X55200000Y-69000000D03*
X55200000Y-67000000D03*
X55200000Y-65000000D03*
%TD*%
D18*
%TO.C,R20*%
X91800000Y-61380000D03*
X91800000Y-63020000D03*
%TD*%
D42*
%TO.C,J9*%
X104200000Y-61000000D03*
D14*
X104200000Y-59000000D03*
%TD*%
D43*
%TO.C,R18*%
X101350000Y-58300000D03*
X101350000Y-57300000D03*
%TD*%
D16*
%TO.C,C12*%
X91780000Y-81800000D03*
X90220000Y-81800000D03*
%TD*%
D44*
%TO.C,D2*%
X101400000Y-64110000D03*
X101400000Y-62530000D03*
%TD*%
D45*
%TO.C,L1*%
X97400000Y-62920000D03*
X97400000Y-67920000D03*
%TD*%
D13*
%TO.C,J6*%
X106150000Y-75800000D03*
D14*
X106150000Y-77800000D03*
%TD*%
D15*
%TO.C,C32*%
X91800000Y-76620000D03*
X91800000Y-78180000D03*
%TD*%
D46*
%TO.C,Q4*%
X96750000Y-58520000D03*
X94850000Y-58520000D03*
X95800000Y-60400000D03*
%TD*%
D25*
%TO.C,R1*%
X89580000Y-92200000D03*
X91220000Y-92200000D03*
%TD*%
D47*
%TO.C,U9*%
X71815000Y-58540000D03*
X71815000Y-59810000D03*
X71815000Y-61080000D03*
X71815000Y-62350000D03*
X71815000Y-63620000D03*
X71815000Y-64890000D03*
X71815000Y-66160000D03*
X71815000Y-67430000D03*
X71815000Y-68700000D03*
X71815000Y-69970000D03*
X71815000Y-71240000D03*
X71815000Y-72510000D03*
X71815000Y-73780000D03*
X71815000Y-75050000D03*
D48*
X73580000Y-76300000D03*
X74850000Y-76300000D03*
X76120000Y-76300000D03*
X77390000Y-76300000D03*
X78660000Y-76300000D03*
X79930000Y-76300000D03*
X81200000Y-76300000D03*
X82470000Y-76300000D03*
X83740000Y-76300000D03*
X85010000Y-76300000D03*
X86280000Y-76300000D03*
X87550000Y-76300000D03*
D47*
X89315000Y-75050000D03*
X89315000Y-73780000D03*
X89315000Y-72510000D03*
X89315000Y-71240000D03*
X89315000Y-69970000D03*
X89315000Y-68700000D03*
X89315000Y-67430000D03*
X89315000Y-66160000D03*
X89315000Y-64890000D03*
X89315000Y-63620000D03*
X89315000Y-62350000D03*
X89315000Y-61080000D03*
X89315000Y-59810000D03*
X89315000Y-58540000D03*
D49*
X79065000Y-66260000D03*
X77665000Y-64860000D03*
X77665000Y-66260000D03*
X77665000Y-67660000D03*
X79065000Y-67660000D03*
X80465000Y-67660000D03*
X80465000Y-66260000D03*
X80465000Y-64860000D03*
X79065000Y-64860000D03*
%TD*%
D29*
%TO.C,C9*%
X90220000Y-86400000D03*
X91780000Y-86400000D03*
%TD*%
D16*
%TO.C,C27*%
X93380000Y-58600000D03*
X91820000Y-58600000D03*
%TD*%
D50*
%TO.C,J8*%
X86330000Y-89597500D03*
X85830000Y-89597500D03*
X85330000Y-89597500D03*
X84830000Y-89597500D03*
X84330000Y-89597500D03*
X83830000Y-89597500D03*
X83330000Y-89597500D03*
X82830000Y-89597500D03*
X82330000Y-89597500D03*
X81830000Y-89597500D03*
X81330000Y-89597500D03*
X80830000Y-89597500D03*
X80330000Y-89597500D03*
X79830000Y-89597500D03*
X79330000Y-89597500D03*
X78830000Y-89597500D03*
X78330000Y-89597500D03*
X77830000Y-89597500D03*
X77330000Y-89597500D03*
X76830000Y-89597500D03*
X76330000Y-89597500D03*
X75830000Y-89597500D03*
X75330000Y-89597500D03*
X74830000Y-89597500D03*
D51*
X87980000Y-87057500D03*
X73180000Y-87067500D03*
%TD*%
D17*
%TO.C,R2*%
X70420000Y-85300000D03*
X68780000Y-85300000D03*
%TD*%
D52*
%TO.C,F1*%
X109700000Y-95350000D03*
X109700000Y-92450000D03*
%TD*%
D13*
%TO.C,J10*%
X60400000Y-58600000D03*
D14*
X60400000Y-60600000D03*
%TD*%
D53*
%TO.C,U1*%
X54340000Y-77800000D03*
D54*
X54340000Y-76540000D03*
X55600000Y-77800000D03*
X55600000Y-76540000D03*
%TD*%
D11*
%TO.C,R30*%
X64400000Y-86800000D03*
X64400000Y-85160000D03*
%TD*%
D41*
%TO.C,TP4*%
X54600000Y-80550000D03*
X54600000Y-83090000D03*
%TD*%
D10*
%TO.C,C35*%
X69400000Y-60380000D03*
X69400000Y-58820000D03*
%TD*%
D24*
%TO.C,U13*%
X90000000Y-95600000D03*
X90000000Y-97500000D03*
X92275000Y-96550000D03*
%TD*%
D39*
%TO.C,TP1*%
X65200000Y-81000000D03*
%TD*%
D10*
%TO.C,C7*%
X90200000Y-89580000D03*
X90200000Y-88020000D03*
%TD*%
D37*
%TO.C,R4*%
X99700000Y-61120000D03*
X100700000Y-61120000D03*
%TD*%
D35*
%TO.C,U5*%
X100000000Y-83255000D03*
X100000000Y-82605000D03*
X100000000Y-81955000D03*
X100000000Y-81295000D03*
X100000000Y-80645000D03*
X100000000Y-79995000D03*
X100000000Y-79345000D03*
X100000000Y-78695000D03*
X94260000Y-78695000D03*
X94260000Y-79345000D03*
X94260000Y-79995000D03*
X94260000Y-80645000D03*
X94260000Y-81295000D03*
X94260000Y-81955000D03*
X94260000Y-82605000D03*
X94260000Y-83255000D03*
D36*
X97130000Y-80975000D03*
%TD*%
D55*
%TO.C,U14*%
X96687500Y-70670000D03*
X96687500Y-71620000D03*
X96687500Y-72570000D03*
X99087500Y-72570000D03*
X99087500Y-71620000D03*
X99087500Y-70670000D03*
%TD*%
D15*
%TO.C,C33*%
X93200000Y-61540000D03*
X93200000Y-63100000D03*
%TD*%
D25*
%TO.C,R19*%
X91780000Y-60000000D03*
X93420000Y-60000000D03*
%TD*%
D43*
%TO.C,R5*%
X95380000Y-74820000D03*
X95380000Y-73820000D03*
%TD*%
D41*
%TO.C,TP3*%
X54600000Y-88250000D03*
X54600000Y-85710000D03*
%TD*%
D26*
%TO.C,D3*%
X59875000Y-94200000D03*
X61975000Y-94200000D03*
%TD*%
D41*
%TO.C,TP2*%
X111150000Y-69250000D03*
X111150000Y-66710000D03*
%TD*%
M02*
