M48
; DRILL file {KiCad 9.0.7} date 2026-03-02T14:05:12-0500
; FORMAT={-:-/ absolute / metric / decimal}
; #@! TF.CreationDate,2026-03-02T14:05:12-05:00
; #@! TF.GenerationSoftware,Kicad,Pcbnew,9.0.7
; #@! TF.FileFunction,Plated,1,4,PTH
FMAT,2
METRIC
; #@! TA.AperFunction,Plated,PTH,ViaDrill
T1C0.300
; #@! TA.AperFunction,Plated,PTH,ComponentDrill
T2C0.600
; #@! TA.AperFunction,Plated,PTH,ComponentDrill
T3C0.700
; #@! TA.AperFunction,Plated,PTH,ComponentDrill
T4C0.750
; #@! TA.AperFunction,Plated,PTH,ComponentDrill
T5C0.800
; #@! TA.AperFunction,Plated,PTH,ComponentDrill
T6C0.900
; #@! TA.AperFunction,Plated,PTH,ComponentDrill
T7C2.700
%
G90
G05
T1
X54.0Y-92.0
X54.0Y-94.0
X56.0Y-92.0
X56.0Y-94.0
X58.0Y-59.8
X58.0Y-92.0
X58.0Y-94.0
X59.875Y-91.8
X60.0Y-96.0
X60.0Y-98.0
X60.8Y-67.5
X61.7Y-72.0
X61.975Y-91.8
X62.0Y-73.2
X62.0Y-96.0
X62.0Y-98.0
X62.1Y-88.0
X62.5Y-68.5
X63.3Y-57.2
X63.4Y-60.58
X63.4Y-62.22
X64.4Y-85.16
X64.8Y-94.138
X64.9Y-66.2
X65.2Y-81.0
X65.3Y-57.2
X66.7Y-78.0
X66.8Y-58.84
X66.8Y-61.78
X66.8Y-63.42
X66.9Y-85.16
X66.9Y-86.8
X67.3Y-57.2
X68.6Y-73.0
X68.78Y-85.3
X68.8Y-88.0
X68.8Y-91.4
X68.892Y-79.046
X69.2Y-83.02
X69.3Y-57.2
X69.4Y-58.82
X69.4Y-60.38
X69.6Y-78.4
X69.8Y-86.9
X69.9Y-72.8
X69.952Y-76.53
X70.3Y-95.835
X70.42Y-85.3
X70.42Y-88.0
X70.42Y-89.8
X71.05Y-77.93
X71.165Y-76.227
X71.2Y-94.138
X71.815Y-58.54
X71.815Y-59.81
X71.815Y-62.35
X71.815Y-63.62
X71.815Y-71.24
X71.815Y-72.575
X73.3Y-78.0
X73.365Y-72.7
X73.4Y-71.1
X73.58Y-76.3
X74.75Y-72.6
X74.8Y-91.4
X74.8Y-92.8
X74.8Y-94.4
X74.9Y-80.8
X74.9Y-86.3
X75.8Y-98.6
X76.2Y-73.2
X76.62Y-92.4
X76.62Y-94.2
X78.18Y-92.4
X78.2Y-95.42
X78.9Y-86.5
X79.065Y-64.86
X79.065Y-66.26
X79.7Y-83.9
X79.938Y-95.57
X80.3Y-80.4
X80.465Y-64.86
X80.465Y-66.26
X80.465Y-67.66
X80.9Y-81.5
X81.2Y-78.9
X81.8Y-59.8
X82.0Y-95.6
X82.4Y-82.4
X82.6Y-80.22
X82.78Y-85.5
X83.0Y-93.8
X83.361Y-83.239
X83.7Y-70.0
X83.7Y-98.6
X83.74Y-76.3
X84.2Y-57.344
X84.451Y-91.34
X84.55Y-80.2
X84.6Y-93.8
X85.01Y-76.3
X85.4Y-83.1
X86.0Y-60.1
X86.0Y-90.7
X86.138Y-95.77
X86.2Y-92.24
X86.2Y-93.8
X86.2Y-97.3
X86.5Y-74.0
X86.694Y-81.194
X87.0Y-77.512
X87.938Y-97.33
X88.291Y-82.409
X89.003Y-79.85
X89.3Y-62.3
X89.3Y-70.0
X89.315Y-58.54
X89.315Y-64.89
X89.315Y-66.16
X89.315Y-67.43
X89.42Y-78.6
X89.6Y-92.2
X90.0Y-95.6
X90.2Y-80.2
X90.2Y-84.8
X90.514Y-66.999
X90.9Y-63.8
X91.22Y-92.2
X91.78Y-86.4
X91.8Y-61.38
X91.8Y-73.775
X91.8Y-76.62
X91.8Y-78.18
X92.222Y-88.57
X92.293Y-79.3
X92.6Y-69.1
X92.6Y-85.4
X92.65Y-90.65
X92.9Y-82.7
X92.955Y-84.2
X93.015Y-80.954
X93.2Y-61.54
X93.2Y-63.1
X93.2Y-64.8
X93.2Y-66.42
X93.391Y-68.211
X93.4Y-69.78
X93.4Y-72.4
X93.42Y-60.0
X94.138Y-95.77
X94.138Y-97.33
X94.26Y-80.645
X94.26Y-84.7
X94.3Y-77.9
X94.3Y-82.6
X94.55Y-90.65
X94.85Y-58.52
X95.395Y-90.086
X95.537Y-95.73
X95.8Y-77.4
X96.1Y-83.65
X96.688Y-71.62
X96.7Y-72.546
X97.13Y-86.98
X97.2Y-79.6
X97.29Y-84.41
X97.4Y-68.0
X97.4Y-77.15
X97.48Y-73.82
X97.9Y-83.3
X98.62Y-58.32
X98.8Y-90.8
X99.0Y-75.5
X99.087Y-70.67
X99.242Y-84.006
X99.7Y-61.1
X100.0Y-80.645
X100.9Y-72.6
X101.3Y-59.9
X101.4Y-64.11
X101.4Y-84.7
X101.427Y-77.727
X101.5Y-88.7
X101.7Y-73.6
X101.7Y-74.8
X101.9Y-81.87
X102.4Y-84.82
X102.451Y-83.251
X102.5Y-78.6
X102.6Y-80.0
X103.2Y-81.8
X103.2Y-89.3
X104.18Y-84.1
X105.1Y-66.3
X105.5Y-80.8
X105.82Y-86.4
X106.2Y-61.5
X106.7Y-91.35
X106.8Y-67.0
X107.1Y-84.6
X107.401Y-96.8
X107.5Y-88.7
X107.8Y-89.9
X109.2Y-98.7
X109.4Y-88.4
X109.9Y-90.8
X111.3Y-98.7
X112.651Y-67.9
X112.7Y-90.0
X112.7Y-92.0
X112.7Y-94.0
X114.0Y-62.0
X114.0Y-64.0
X114.0Y-66.0
X116.0Y-62.0
X116.0Y-64.0
X116.0Y-66.0
X116.0Y-68.0
X116.0Y-86.0
X116.0Y-88.0
X116.0Y-90.0
X116.0Y-92.0
T3
X54.34Y-76.54
X54.34Y-77.8
X55.6Y-76.54
X55.6Y-77.8
T4
X107.6Y-80.4
X107.6Y-81.66
T5
X54.6Y-80.55
X54.6Y-83.09
X54.6Y-85.71
X54.6Y-88.25
X60.4Y-58.6
X60.4Y-60.6
X104.2Y-59.0
X104.2Y-61.0
X106.15Y-69.2
X106.15Y-71.2
X106.15Y-75.8
X106.15Y-77.8
X110.35Y-59.0
X110.35Y-61.0
X110.35Y-63.0
X111.15Y-66.71
X111.15Y-69.25
T6
X55.2Y-65.0
X55.2Y-67.0
X55.2Y-69.0
X55.2Y-71.0
X55.2Y-73.0
T7
X100.0Y-93.2
X105.0Y-93.2
T2
G00X63.68Y-94.238
M15
G01X63.68Y-95.137
M16
G05
G00X63.68Y-98.598
M15
G01X63.68Y-99.197
M16
G05
G00X72.32Y-94.237
M15
G01X72.32Y-95.138
M16
G05
G00X72.32Y-98.598
M15
G01X72.32Y-99.197
M16
G05
M30
