%TF.GenerationSoftware,KiCad,Pcbnew,9.0.7*%
%TF.CreationDate,2026-03-02T14:05:14-05:00*%
%TF.ProjectId,soft_robot_cam_usbcv2,736f6674-5f72-46f6-926f-745f63616d5f,rev?*%
%TF.SameCoordinates,Original*%
%TF.FileFunction,Copper,L1,Top*%
%TF.FilePolarity,Positive*%
%FSLAX46Y46*%
G04 Gerber Fmt 4.6, Leading zero omitted, Abs format (unit mm)*
G04 Created by KiCad (PCBNEW 9.0.7) date 2026-03-02 14:05:14*
%MOMM*%
%LPD*%
G01*
G04 APERTURE LIST*
G04 Aperture macros list*
%AMRoundRect*
0 Rectangle with rounded corners*
0 $1 Rounding radius*
0 $2 $3 $4 $5 $6 $7 $8 $9 X,Y pos of 4 corners*
0 Add a 4 corners polygon primitive as box body*
4,1,4,$2,$3,$4,$5,$6,$7,$8,$9,$2,$3,0*
0 Add four circle primitives for the rounded corners*
1,1,$1+$1,$2,$3*
1,1,$1+$1,$4,$5*
1,1,$1+$1,$6,$7*
1,1,$1+$1,$8,$9*
0 Add four rect primitives between the rounded corners*
20,1,$1+$1,$2,$3,$4,$5,0*
20,1,$1+$1,$4,$5,$6,$7,0*
20,1,$1+$1,$6,$7,$8,$9,0*
20,1,$1+$1,$8,$9,$2,$3,0*%
G04 Aperture macros list end*
%TA.AperFunction,SMDPad,CuDef*%
%ADD10RoundRect,0.225000X0.250000X-0.225000X0.250000X0.225000X-0.250000X0.225000X-0.250000X-0.225000X0*%
%TD*%
%TA.AperFunction,SMDPad,CuDef*%
%ADD11RoundRect,0.200000X0.275000X-0.200000X0.275000X0.200000X-0.275000X0.200000X-0.275000X-0.200000X0*%
%TD*%
%TA.AperFunction,ComponentPad*%
%ADD12R,1.308000X1.308000*%
%TD*%
%TA.AperFunction,ComponentPad*%
%ADD13C,1.308000*%
%TD*%
%TA.AperFunction,SMDPad,CuDef*%
%ADD14RoundRect,0.225000X-0.250000X0.225000X-0.250000X-0.225000X0.250000X-0.225000X0.250000X0.225000X0*%
%TD*%
%TA.AperFunction,SMDPad,CuDef*%
%ADD15RoundRect,0.225000X0.225000X0.250000X-0.225000X0.250000X-0.225000X-0.250000X0.225000X-0.250000X0*%
%TD*%
%TA.AperFunction,SMDPad,CuDef*%
%ADD16RoundRect,0.200000X0.200000X0.275000X-0.200000X0.275000X-0.200000X-0.275000X0.200000X-0.275000X0*%
%TD*%
%TA.AperFunction,SMDPad,CuDef*%
%ADD17RoundRect,0.200000X-0.275000X0.200000X-0.275000X-0.200000X0.275000X-0.200000X0.275000X0.200000X0*%
%TD*%
%TA.AperFunction,SMDPad,CuDef*%
%ADD18R,0.550000X1.100000*%
%TD*%
%TA.AperFunction,SMDPad,CuDef*%
%ADD19R,0.300000X1.100000*%
%TD*%
%TA.AperFunction,ComponentPad*%
%ADD20O,1.100000X2.000000*%
%TD*%
%TA.AperFunction,ComponentPad*%
%ADD21O,1.200000X1.800000*%
%TD*%
%TA.AperFunction,SMDPad,CuDef*%
%ADD22RoundRect,0.150000X-0.512500X-0.150000X0.512500X-0.150000X0.512500X0.150000X-0.512500X0.150000X0*%
%TD*%
%TA.AperFunction,SMDPad,CuDef*%
%ADD23RoundRect,0.200000X-0.200000X-0.275000X0.200000X-0.275000X0.200000X0.275000X-0.200000X0.275000X0*%
%TD*%
%TA.AperFunction,SMDPad,CuDef*%
%ADD24RoundRect,0.112500X-0.187500X-0.112500X0.187500X-0.112500X0.187500X0.112500X-0.187500X0.112500X0*%
%TD*%
%TA.AperFunction,ComponentPad*%
%ADD25RoundRect,0.760000X-1.140000X-1.140000X1.140000X-1.140000X1.140000X1.140000X-1.140000X1.140000X0*%
%TD*%
%TA.AperFunction,ComponentPad*%
%ADD26C,4.000000*%
%TD*%
%TA.AperFunction,SMDPad,CuDef*%
%ADD27RoundRect,0.225000X-0.225000X-0.250000X0.225000X-0.250000X0.225000X0.250000X-0.225000X0.250000X0*%
%TD*%
%TA.AperFunction,SMDPad,CuDef*%
%ADD28R,0.800000X1.000000*%
%TD*%
%TA.AperFunction,SMDPad,CuDef*%
%ADD29R,0.500000X0.280000*%
%TD*%
%TA.AperFunction,SMDPad,CuDef*%
%ADD30R,0.280000X0.500000*%
%TD*%
%TA.AperFunction,ComponentPad*%
%ADD31R,1.000000X1.000000*%
%TD*%
%TA.AperFunction,ComponentPad*%
%ADD32C,1.000000*%
%TD*%
%TA.AperFunction,SMDPad,CuDef*%
%ADD33O,1.750000X0.340000*%
%TD*%
%TA.AperFunction,SMDPad,CuDef*%
%ADD34R,2.460000X3.550000*%
%TD*%
%TA.AperFunction,SMDPad,CuDef*%
%ADD35RoundRect,0.140000X-0.140000X-0.170000X0.140000X-0.170000X0.140000X0.170000X-0.140000X0.170000X0*%
%TD*%
%TA.AperFunction,SMDPad,CuDef*%
%ADD36RoundRect,0.140000X0.140000X0.170000X-0.140000X0.170000X-0.140000X-0.170000X0.140000X-0.170000X0*%
%TD*%
%TA.AperFunction,SMDPad,CuDef*%
%ADD37R,1.600000X3.200000*%
%TD*%
%TA.AperFunction,ComponentPad*%
%ADD38R,1.400000X1.400000*%
%TD*%
%TA.AperFunction,ComponentPad*%
%ADD39C,1.400000*%
%TD*%
%TA.AperFunction,SMDPad,CuDef*%
%ADD40RoundRect,0.140000X0.170000X-0.140000X0.170000X0.140000X-0.170000X0.140000X-0.170000X-0.140000X0*%
%TD*%
%TA.AperFunction,SMDPad,CuDef*%
%ADD41RoundRect,0.220000X0.255000X-0.220000X0.255000X0.220000X-0.255000X0.220000X-0.255000X-0.220000X0*%
%TD*%
%TA.AperFunction,SMDPad,CuDef*%
%ADD42R,5.720000X2.200000*%
%TD*%
%TA.AperFunction,SMDPad,CuDef*%
%ADD43RoundRect,0.150000X-0.150000X0.590000X-0.150000X-0.590000X0.150000X-0.590000X0.150000X0.590000X0*%
%TD*%
%TA.AperFunction,SMDPad,CuDef*%
%ADD44R,1.498600X0.812800*%
%TD*%
%TA.AperFunction,SMDPad,CuDef*%
%ADD45R,0.812800X1.498600*%
%TD*%
%TA.AperFunction,SMDPad,CuDef*%
%ADD46R,0.889000X0.889000*%
%TD*%
%TA.AperFunction,SMDPad,CuDef*%
%ADD47R,0.300000X1.200000*%
%TD*%
%TA.AperFunction,SMDPad,CuDef*%
%ADD48R,2.200000X3.300000*%
%TD*%
%TA.AperFunction,SMDPad,CuDef*%
%ADD49R,1.730000X1.190000*%
%TD*%
%TA.AperFunction,ComponentPad*%
%ADD50R,1.050000X1.100000*%
%TD*%
%TA.AperFunction,ComponentPad*%
%ADD51C,1.050000*%
%TD*%
%TA.AperFunction,SMDPad,CuDef*%
%ADD52R,1.200000X0.550000*%
%TD*%
%TA.AperFunction,ViaPad*%
%ADD53C,0.600000*%
%TD*%
%TA.AperFunction,Conductor*%
%ADD54C,0.500000*%
%TD*%
%TA.AperFunction,Conductor*%
%ADD55C,0.300000*%
%TD*%
%TA.AperFunction,Conductor*%
%ADD56C,0.200000*%
%TD*%
%TA.AperFunction,Conductor*%
%ADD57C,0.380000*%
%TD*%
%TA.AperFunction,Conductor*%
%ADD58C,0.250000*%
%TD*%
G04 APERTURE END LIST*
D10*
%TO.P,C13,1*%
%TO.N,/EN*%
X66800000Y-60400000D03*
%TO.P,C13,2*%
%TO.N,GND*%
X66800000Y-58840000D03*
%TD*%
D11*
%TO.P,R27,1*%
%TO.N,/BOOT*%
X91800000Y-75200000D03*
%TO.P,R27,2*%
%TO.N,GND*%
X91800000Y-73560000D03*
%TD*%
D12*
%TO.P,J3,1,Pin_1*%
%TO.N,/S_PWM*%
X110350000Y-59000000D03*
D13*
%TO.P,J3,2,Pin_2*%
%TO.N,+3.3V*%
X110350000Y-61000000D03*
%TO.P,J3,3,Pin_3*%
%TO.N,GND*%
X110350000Y-63000000D03*
%TD*%
D14*
%TO.P,C16,1*%
%TO.N,+2V8*%
X86200000Y-92240000D03*
%TO.P,C16,2*%
%TO.N,GND*%
X86200000Y-93800000D03*
%TD*%
D15*
%TO.P,C15,1*%
%TO.N,+7.6V*%
X91780000Y-83200000D03*
%TO.P,C15,2*%
%TO.N,GND*%
X90220000Y-83200000D03*
%TD*%
D14*
%TO.P,C19,1*%
%TO.N,+1V2*%
X87937500Y-95770000D03*
%TO.P,C19,2*%
%TO.N,GND*%
X87937500Y-97330000D03*
%TD*%
%TO.P,C14,1*%
%TO.N,+7.6V*%
X100400000Y-74020000D03*
%TO.P,C14,2*%
%TO.N,GND*%
X100400000Y-75580000D03*
%TD*%
D11*
%TO.P,R26,1*%
%TO.N,GND*%
X69200000Y-83020000D03*
%TO.P,R26,2*%
%TO.N,Net-(U9-IO46)*%
X69200000Y-81380000D03*
%TD*%
D16*
%TO.P,R11,1*%
%TO.N,+3.3V*%
X106570000Y-64000000D03*
%TO.P,R11,2*%
%TO.N,/SCL*%
X104930000Y-64000000D03*
%TD*%
D17*
%TO.P,R33,1*%
%TO.N,GND*%
X66900000Y-85160000D03*
%TO.P,R33,2*%
%TO.N,Net-(USB1-CC2)*%
X66900000Y-86800000D03*
%TD*%
D10*
%TO.P,C20,1*%
%TO.N,+3.3V*%
X86137500Y-97330000D03*
%TO.P,C20,2*%
%TO.N,GND*%
X86137500Y-95770000D03*
%TD*%
D14*
%TO.P,C28,1*%
%TO.N,Net-(U5-CPL)*%
X87000000Y-82820000D03*
%TO.P,C28,2*%
%TO.N,Net-(U5-CPH)*%
X87000000Y-84380000D03*
%TD*%
D18*
%TO.P,USB1,1,GND*%
%TO.N,GND*%
X64800000Y-94137500D03*
%TO.P,USB1,2,VBUS*%
%TO.N,Net-(D3-Pad2)*%
X65600000Y-94137500D03*
D19*
%TO.P,USB1,3,SBU2*%
%TO.N,GND*%
X66250000Y-94137500D03*
%TO.P,USB1,4,CC1*%
%TO.N,Net-(USB1-CC1)*%
X66750000Y-94137500D03*
%TO.P,USB1,5,DN2*%
%TO.N,/D-*%
X67250000Y-94137500D03*
%TO.P,USB1,6,DP1*%
%TO.N,/D+*%
X67750000Y-94137500D03*
%TO.P,USB1,7,DN1*%
%TO.N,/D-*%
X68250000Y-94137500D03*
%TO.P,USB1,8,DP2*%
%TO.N,/D+*%
X68750000Y-94137500D03*
%TO.P,USB1,9,SBU1*%
%TO.N,GND*%
X69250000Y-94137500D03*
%TO.P,USB1,10,CC2*%
%TO.N,Net-(USB1-CC2)*%
X69750000Y-94137500D03*
D18*
%TO.P,USB1,11,VBUS*%
%TO.N,Net-(D4-Pad2)*%
X70400000Y-94137500D03*
%TO.P,USB1,12,GND*%
%TO.N,GND*%
X71200000Y-94137500D03*
D20*
%TO.P,USB1,13,SHELL*%
X63680000Y-94687500D03*
D21*
X63680000Y-98897500D03*
D20*
%TO.P,USB1,14,SHELL*%
X72320000Y-94687500D03*
D21*
X72320000Y-98897500D03*
%TD*%
D10*
%TO.P,C18,1*%
%TO.N,+3.3V*%
X94137500Y-97330000D03*
%TO.P,C18,2*%
%TO.N,GND*%
X94137500Y-95770000D03*
%TD*%
D11*
%TO.P,R22,1*%
%TO.N,+3.3V*%
X95537500Y-97370000D03*
%TO.P,R22,2*%
%TO.N,GND*%
X95537500Y-95730000D03*
%TD*%
D17*
%TO.P,R3,1*%
%TO.N,+3.3V*%
X60400000Y-85000000D03*
%TO.P,R3,2*%
%TO.N,Net-(R3-Pad2)*%
X60400000Y-86640000D03*
%TD*%
D22*
%TO.P,U12,1,GND*%
%TO.N,GND*%
X82000000Y-95600000D03*
%TO.P,U12,2,VO*%
%TO.N,+2V8*%
X82000000Y-97500000D03*
%TO.P,U12,3,VI*%
%TO.N,+3.3V*%
X84275000Y-96550000D03*
%TD*%
D11*
%TO.P,R12,1*%
%TO.N,+3.3V*%
X65200000Y-62220000D03*
%TO.P,R12,2*%
%TO.N,/EN*%
X65200000Y-60580000D03*
%TD*%
%TO.P,R24,1*%
%TO.N,+3.3V*%
X57200000Y-82020000D03*
%TO.P,R24,2*%
%TO.N,Net-(R24-Pad2)*%
X57200000Y-80380000D03*
%TD*%
%TO.P,R10,1*%
%TO.N,/LDR2*%
X63400000Y-62220000D03*
%TO.P,R10,2*%
%TO.N,GND*%
X63400000Y-60580000D03*
%TD*%
D23*
%TO.P,R31,1*%
%TO.N,+3.3V*%
X68780000Y-88000000D03*
%TO.P,R31,2*%
%TO.N,GND*%
X70420000Y-88000000D03*
%TD*%
D14*
%TO.P,C26,1*%
%TO.N,+1V2*%
X83000000Y-92240000D03*
%TO.P,C26,2*%
%TO.N,GND*%
X83000000Y-93800000D03*
%TD*%
D17*
%TO.P,R13,1*%
%TO.N,+3.3V*%
X91800000Y-68180000D03*
%TO.P,R13,2*%
%TO.N,/nFAULT_A*%
X91800000Y-69820000D03*
%TD*%
D24*
%TO.P,D4,1*%
%TO.N,+5V*%
X59875000Y-91800000D03*
%TO.P,D4,2*%
%TO.N,Net-(D4-Pad2)*%
X61975000Y-91800000D03*
%TD*%
D15*
%TO.P,C25,1*%
%TO.N,+2V8*%
X78180000Y-94200000D03*
%TO.P,C25,2*%
%TO.N,GND*%
X76620000Y-94200000D03*
%TD*%
D17*
%TO.P,R8,1*%
%TO.N,+3.3V*%
X91800000Y-64780000D03*
%TO.P,R8,2*%
%TO.N,/SCL*%
X91800000Y-66420000D03*
%TD*%
D25*
%TO.P,J1,1,Pin_1*%
%TO.N,GND*%
X100000000Y-93200000D03*
D26*
%TO.P,J1,2,Pin_2*%
%TO.N,Net-(J1-Pin_2)*%
X105000000Y-93200000D03*
%TD*%
D27*
%TO.P,C29,1*%
%TO.N,Net-(U5-VCP)*%
X90220000Y-80200000D03*
%TO.P,C29,2*%
%TO.N,+7.6V*%
X91780000Y-80200000D03*
%TD*%
D10*
%TO.P,C11,1*%
%TO.N,+3.3V*%
X102400000Y-86380000D03*
%TO.P,C11,2*%
%TO.N,GND*%
X102400000Y-84820000D03*
%TD*%
%TO.P,C22,1*%
%TO.N,GND*%
X86200000Y-80180000D03*
%TO.P,C22,2*%
%TO.N,/I_SENSE_A*%
X86200000Y-78620000D03*
%TD*%
D27*
%TO.P,C5,1*%
%TO.N,+3.3V*%
X98620000Y-58320000D03*
%TO.P,C5,2*%
%TO.N,GND*%
X100180000Y-58320000D03*
%TD*%
D16*
%TO.P,R16,1*%
%TO.N,+3.3V*%
X105820000Y-86400000D03*
%TO.P,R16,2*%
%TO.N,Net-(U4-nSLEEP)*%
X104180000Y-86400000D03*
%TD*%
D14*
%TO.P,C10,1*%
%TO.N,+3.3V*%
X93400000Y-68220000D03*
%TO.P,C10,2*%
%TO.N,GND*%
X93400000Y-69780000D03*
%TD*%
D10*
%TO.P,C24,1*%
%TO.N,+2V8*%
X78200000Y-96980000D03*
%TO.P,C24,2*%
%TO.N,GND*%
X78200000Y-95420000D03*
%TD*%
%TO.P,C17,1*%
%TO.N,+2V8*%
X79937500Y-97130000D03*
%TO.P,C17,2*%
%TO.N,GND*%
X79937500Y-95570000D03*
%TD*%
D17*
%TO.P,R21,1*%
%TO.N,+3.3V*%
X66800000Y-61780000D03*
%TO.P,R21,2*%
%TO.N,/nFAULT_B*%
X66800000Y-63420000D03*
%TD*%
D16*
%TO.P,R32,1*%
%TO.N,+5V*%
X70420000Y-89800000D03*
%TO.P,R32,2*%
%TO.N,+3.3V*%
X68780000Y-89800000D03*
%TD*%
D10*
%TO.P,C8,1*%
%TO.N,GND*%
X98980000Y-75500000D03*
%TO.P,C8,2*%
%TO.N,+7.6V*%
X98980000Y-73940000D03*
%TD*%
D14*
%TO.P,C21,1*%
%TO.N,Net-(U14-BS)*%
X94887500Y-71040000D03*
%TO.P,C21,2*%
%TO.N,Net-(U14-LX)*%
X94887500Y-72600000D03*
%TD*%
D17*
%TO.P,R15,1*%
%TO.N,/I_SENSE_A*%
X82600000Y-78580000D03*
%TO.P,R15,2*%
%TO.N,GND*%
X82600000Y-80220000D03*
%TD*%
D16*
%TO.P,R7,1*%
%TO.N,+3.3V*%
X108620000Y-66000000D03*
%TO.P,R7,2*%
%TO.N,/SDA*%
X106980000Y-66000000D03*
%TD*%
%TO.P,R17,1*%
%TO.N,Net-(U5-nSLEEP)*%
X105820000Y-84150000D03*
%TO.P,R17,2*%
%TO.N,+3.3V*%
X104180000Y-84150000D03*
%TD*%
D15*
%TO.P,C23,1*%
%TO.N,+2V8*%
X78180000Y-92400000D03*
%TO.P,C23,2*%
%TO.N,GND*%
X76620000Y-92400000D03*
%TD*%
D11*
%TO.P,R9,1*%
%TO.N,GND*%
X102800000Y-65620000D03*
%TO.P,R9,2*%
%TO.N,/LDR1*%
X102800000Y-63980000D03*
%TD*%
D28*
%TO.P,Q3,1,G*%
%TO.N,GND*%
X94550000Y-90650000D03*
%TO.P,Q3,2,S*%
%TO.N,+7.6V*%
X92650000Y-90650000D03*
%TO.P,Q3,3,D*%
%TO.N,Net-(Q3-D)*%
X93600000Y-92950000D03*
%TD*%
D16*
%TO.P,R25,1*%
%TO.N,GND*%
X89420000Y-78600000D03*
%TO.P,R25,2*%
%TO.N,Net-(U9-IO45)*%
X87780000Y-78600000D03*
%TD*%
D29*
%TO.P,AC1,1,SDO/SA0*%
%TO.N,unconnected-(AC1-SDO{slash}SA0-Pad1)*%
X63430000Y-65450000D03*
%TO.P,AC1,2,SDX*%
%TO.N,GND*%
X63430000Y-65950000D03*
%TO.P,AC1,3,SCX*%
X63430000Y-66450000D03*
%TO.P,AC1,4,INT1*%
%TO.N,unconnected-(AC1-INT1-Pad4)*%
X63430000Y-66950000D03*
D30*
%TO.P,AC1,5,VDDIO*%
%TO.N,+3.3V*%
X64100000Y-67130000D03*
%TO.P,AC1,6,GND_1*%
%TO.N,GND*%
X64600000Y-67130000D03*
%TO.P,AC1,7,GND_2*%
X65100000Y-67130000D03*
D29*
%TO.P,AC1,8,VDD*%
%TO.N,+3.3V*%
X65770000Y-66950000D03*
%TO.P,AC1,9,INT2*%
%TO.N,unconnected-(AC1-INT2-Pad9)*%
X65770000Y-66450000D03*
%TO.P,AC1,10,OCS_AUX*%
%TO.N,unconnected-(AC1-OCS_AUX-Pad10)*%
X65770000Y-65950000D03*
%TO.P,AC1,11,SDO_AUX*%
%TO.N,unconnected-(AC1-SDO_AUX-Pad11)*%
X65770000Y-65450000D03*
D30*
%TO.P,AC1,12,CS*%
%TO.N,+3.3V*%
X65100000Y-65270000D03*
%TO.P,AC1,13,SCL*%
%TO.N,/SCL*%
X64600000Y-65270000D03*
%TO.P,AC1,14,SDA*%
%TO.N,/SDA*%
X64100000Y-65270000D03*
%TD*%
D15*
%TO.P,C30,1*%
%TO.N,+7.6V*%
X91780000Y-84800000D03*
%TO.P,C30,2*%
%TO.N,GND*%
X90220000Y-84800000D03*
%TD*%
D31*
%TO.P,J5,1,Pin_1*%
%TO.N,/PMODE1*%
X107600000Y-81660000D03*
D32*
%TO.P,J5,2,Pin_2*%
%TO.N,/PMODE2*%
X107600000Y-80400000D03*
%TD*%
D15*
%TO.P,C34,1*%
%TO.N,+3.3V*%
X65580000Y-68600000D03*
%TO.P,C34,2*%
%TO.N,GND*%
X64020000Y-68600000D03*
%TD*%
D33*
%TO.P,U4,1,EN/IN1*%
%TO.N,/IN1_A*%
X100000000Y-89260000D03*
%TO.P,U4,2,PH/IN2*%
%TO.N,/IN2_A*%
X100000000Y-88610000D03*
%TO.P,U4,3,nSLEEP*%
%TO.N,Net-(U4-nSLEEP)*%
X100000000Y-87960000D03*
%TO.P,U4,4,nFAULT*%
%TO.N,/nFAULT_A*%
X100000000Y-87300000D03*
%TO.P,U4,5,VREF*%
%TO.N,+3.3V*%
X100000000Y-86650000D03*
%TO.P,U4,6,IPROPI*%
%TO.N,/I_SENSE_A*%
X100000000Y-86000000D03*
%TO.P,U4,7,IMODE*%
%TO.N,GND*%
X100000000Y-85350000D03*
%TO.P,U4,8,OUT1*%
%TO.N,/OUT1_A*%
X100000000Y-84700000D03*
%TO.P,U4,9,PGND*%
%TO.N,GND*%
X94260000Y-84700000D03*
%TO.P,U4,10,OUT2*%
%TO.N,/OUT2_A*%
X94260000Y-85350000D03*
%TO.P,U4,11,VM*%
%TO.N,+7.6V*%
X94260000Y-86000000D03*
%TO.P,U4,12,VCP*%
%TO.N,Net-(U4-VCP)*%
X94260000Y-86650000D03*
%TO.P,U4,13,CPH*%
%TO.N,Net-(U4-CPH)*%
X94260000Y-87300000D03*
%TO.P,U4,14,CPL*%
%TO.N,Net-(U4-CPL)*%
X94260000Y-87960000D03*
%TO.P,U4,15,GND*%
%TO.N,GND*%
X94260000Y-88610000D03*
%TO.P,U4,16,PMODE*%
%TO.N,/PMODE1*%
X94260000Y-89260000D03*
D34*
%TO.P,U4,17,EP*%
%TO.N,GND*%
X97130000Y-86980000D03*
%TD*%
D12*
%TO.P,J7,1,Pin_1*%
%TO.N,/OUT2_B*%
X106150000Y-69200000D03*
D13*
%TO.P,J7,2,Pin_2*%
%TO.N,/OUT1_B*%
X106150000Y-71200000D03*
%TD*%
D17*
%TO.P,R14,1*%
%TO.N,/I_SENSE_A*%
X84550000Y-78560000D03*
%TO.P,R14,2*%
%TO.N,GND*%
X84550000Y-80200000D03*
%TD*%
D14*
%TO.P,C31,1*%
%TO.N,+1V2*%
X84600000Y-92240000D03*
%TO.P,C31,2*%
%TO.N,GND*%
X84600000Y-93800000D03*
%TD*%
D35*
%TO.P,R6,1*%
%TO.N,Net-(U14-FB)*%
X96480000Y-73820000D03*
%TO.P,R6,2*%
%TO.N,GND*%
X97480000Y-73820000D03*
%TD*%
D36*
%TO.P,C4,1*%
%TO.N,+3.3V*%
X97480000Y-74920000D03*
%TO.P,C4,2*%
%TO.N,Net-(U14-FB)*%
X96480000Y-74920000D03*
%TD*%
D37*
%TO.P,TP5,1,1*%
%TO.N,/EN*%
X65200000Y-73200000D03*
%TD*%
D17*
%TO.P,R23,1*%
%TO.N,+3.3V*%
X93200000Y-64780000D03*
%TO.P,R23,2*%
%TO.N,/SDA*%
X93200000Y-66420000D03*
%TD*%
D27*
%TO.P,C6,1*%
%TO.N,+3.3V*%
X98620000Y-59920000D03*
%TO.P,C6,2*%
%TO.N,GND*%
X100180000Y-59920000D03*
%TD*%
D38*
%TO.P,J12,1,1*%
%TO.N,/XSHUT*%
X55200000Y-73000000D03*
D39*
%TO.P,J12,2,2*%
%TO.N,/SDA*%
X55200000Y-71000000D03*
%TO.P,J12,3,3*%
%TO.N,/SCL*%
X55200000Y-69000000D03*
%TO.P,J12,4,4*%
%TO.N,+3.3V*%
X55200000Y-67000000D03*
%TO.P,J12,5,5*%
%TO.N,GND*%
X55200000Y-65000000D03*
%TD*%
D17*
%TO.P,R20,1*%
%TO.N,/I_SENSE_B*%
X91800000Y-61380000D03*
%TO.P,R20,2*%
%TO.N,GND*%
X91800000Y-63020000D03*
%TD*%
D12*
%TO.P,J9,1,Pin_1*%
%TO.N,/LDR1*%
X104200000Y-61000000D03*
D13*
%TO.P,J9,2,Pin_2*%
%TO.N,+3.3V*%
X104200000Y-59000000D03*
%TD*%
D40*
%TO.P,R18,1*%
%TO.N,Net-(U9-IO1)*%
X101350000Y-58300000D03*
%TO.P,R18,2*%
%TO.N,/S_PWM*%
X101350000Y-57300000D03*
%TD*%
D15*
%TO.P,C12,1*%
%TO.N,+7.6V*%
X91780000Y-81800000D03*
%TO.P,C12,2*%
%TO.N,GND*%
X90220000Y-81800000D03*
%TD*%
D41*
%TO.P,D2,1*%
%TO.N,GND*%
X101400000Y-64110000D03*
%TO.P,D2,2*%
%TO.N,Net-(D2-Pad2)*%
X101400000Y-62530000D03*
%TD*%
D42*
%TO.P,L1,1,1*%
%TO.N,+3.3V*%
X97400000Y-62920000D03*
%TO.P,L1,2,2*%
%TO.N,Net-(U14-LX)*%
X97400000Y-67920000D03*
%TD*%
D12*
%TO.P,J6,1,Pin_1*%
%TO.N,/OUT1_A*%
X106150000Y-75800000D03*
D13*
%TO.P,J6,2,Pin_2*%
%TO.N,/OUT2_A*%
X106150000Y-77800000D03*
%TD*%
D14*
%TO.P,C32,1*%
%TO.N,GND*%
X91800000Y-76620000D03*
%TO.P,C32,2*%
%TO.N,+7.6V*%
X91800000Y-78180000D03*
%TD*%
D43*
%TO.P,Q4,1,G*%
%TO.N,+3.3V*%
X96750000Y-58520000D03*
%TO.P,Q4,2,S*%
%TO.N,Net-(Q4-S)*%
X94850000Y-58520000D03*
%TO.P,Q4,3,D*%
%TO.N,+3.3V*%
X95800000Y-60400000D03*
%TD*%
D23*
%TO.P,R1,1*%
%TO.N,+2V8*%
X89580000Y-92200000D03*
%TO.P,R1,2*%
%TO.N,/RESET*%
X91220000Y-92200000D03*
%TD*%
D44*
%TO.P,U9,1,GND*%
%TO.N,GND*%
X71815000Y-58540000D03*
%TO.P,U9,2,3V3*%
%TO.N,+3.3V*%
X71815000Y-59810000D03*
%TO.P,U9,3,EN*%
%TO.N,/EN*%
X71815000Y-61080000D03*
%TO.P,U9,4,IO4*%
%TO.N,/nFAULT_B*%
X71815000Y-62350000D03*
%TO.P,U9,5,IO5*%
%TO.N,/LDR2*%
X71815000Y-63620000D03*
%TO.P,U9,6,IO6*%
%TO.N,/VSYNC*%
X71815000Y-64890000D03*
%TO.P,U9,7,IO7*%
%TO.N,/HREF*%
X71815000Y-66160000D03*
%TO.P,U9,8,IO15*%
%TO.N,/XCLK*%
X71815000Y-67430000D03*
%TO.P,U9,9,IO16*%
%TO.N,/Y9*%
X71815000Y-68700000D03*
%TO.P,U9,10,IO17*%
%TO.N,/Y8*%
X71815000Y-69970000D03*
%TO.P,U9,11,IO18*%
%TO.N,/Y7*%
X71815000Y-71240000D03*
%TO.P,U9,12,IO8*%
%TO.N,/Y4*%
X71815000Y-72510000D03*
%TO.P,U9,13,IO19*%
%TO.N,/D-*%
X71815000Y-73780000D03*
%TO.P,U9,14,IO20*%
%TO.N,/D+*%
X71815000Y-75050000D03*
D45*
%TO.P,U9,15,IO3*%
%TO.N,+3.3V*%
X73580000Y-76300000D03*
%TO.P,U9,16,IO46*%
%TO.N,Net-(U9-IO46)*%
X74850000Y-76300000D03*
%TO.P,U9,17,IO9*%
%TO.N,/Y3*%
X76120000Y-76300000D03*
%TO.P,U9,18,IO10*%
%TO.N,/Y5*%
X77390000Y-76300000D03*
%TO.P,U9,19,IO11*%
%TO.N,/Y2*%
X78660000Y-76300000D03*
%TO.P,U9,20,IO12*%
%TO.N,/Y6*%
X79930000Y-76300000D03*
%TO.P,U9,21,IO13*%
%TO.N,/PCLK*%
X81200000Y-76300000D03*
%TO.P,U9,22,IO14*%
%TO.N,/I_SENSE_A*%
X82470000Y-76300000D03*
%TO.P,U9,23,IO21*%
%TO.N,/IN2_B*%
X83740000Y-76300000D03*
%TO.P,U9,24,IO47*%
%TO.N,/IN1_B*%
X85010000Y-76300000D03*
%TO.P,U9,25,IO48*%
%TO.N,/IN2_A*%
X86280000Y-76300000D03*
%TO.P,U9,26,IO45*%
%TO.N,Net-(U9-IO45)*%
X87550000Y-76300000D03*
D44*
%TO.P,U9,27,IO0*%
%TO.N,/BOOT*%
X89315000Y-75050000D03*
%TO.P,U9,28,IO35*%
%TO.N,unconnected-(U9-IO35-Pad28)*%
X89315000Y-73780000D03*
%TO.P,U9,29,IO36*%
%TO.N,unconnected-(U9-IO36-Pad29)*%
X89315000Y-72510000D03*
%TO.P,U9,30,IO37*%
%TO.N,unconnected-(U9-IO37-Pad30)*%
X89315000Y-71240000D03*
%TO.P,U9,31,IO38*%
%TO.N,/IN1_A*%
X89315000Y-69970000D03*
%TO.P,U9,32,IO39*%
%TO.N,/nFAULT_A*%
X89315000Y-68700000D03*
%TO.P,U9,33,IO40*%
%TO.N,/XSHUT*%
X89315000Y-67430000D03*
%TO.P,U9,34,IO41*%
%TO.N,/SDA*%
X89315000Y-66160000D03*
%TO.P,U9,35,IO42*%
%TO.N,/SCL*%
X89315000Y-64890000D03*
%TO.P,U9,36,RXD0*%
%TO.N,unconnected-(U9-RXD0-Pad36)*%
X89315000Y-63620000D03*
%TO.P,U9,37,TXD0*%
%TO.N,/LDR1*%
X89315000Y-62350000D03*
%TO.P,U9,38,IO2*%
%TO.N,/I_SENSE_B*%
X89315000Y-61080000D03*
%TO.P,U9,39,IO1*%
%TO.N,Net-(U9-IO1)*%
X89315000Y-59810000D03*
%TO.P,U9,40,GND*%
%TO.N,GND*%
X89315000Y-58540000D03*
D46*
%TO.P,U9,41,GND*%
X79065000Y-66260000D03*
%TO.P,U9,42*%
%TO.N,N/C*%
X77665000Y-64860000D03*
%TO.P,U9,43*%
X77665000Y-66260000D03*
%TO.P,U9,44*%
X77665000Y-67660000D03*
%TO.P,U9,45*%
X79065000Y-67660000D03*
%TO.P,U9,46,GND*%
%TO.N,GND*%
X80465000Y-67660000D03*
%TO.P,U9,47,GND*%
X80465000Y-66260000D03*
%TO.P,U9,48,GND*%
X80465000Y-64860000D03*
%TO.P,U9,49,GND*%
X79065000Y-64860000D03*
%TD*%
D27*
%TO.P,C9,1*%
%TO.N,Net-(U4-VCP)*%
X90220000Y-86400000D03*
%TO.P,C9,2*%
%TO.N,+7.6V*%
X91780000Y-86400000D03*
%TD*%
D15*
%TO.P,C27,1*%
%TO.N,GND*%
X93380000Y-58600000D03*
%TO.P,C27,2*%
%TO.N,/I_SENSE_B*%
X91820000Y-58600000D03*
%TD*%
D47*
%TO.P,J8,1,Pin_1*%
%TO.N,unconnected-(J8-Pin_1-Pad1)*%
X86330000Y-89597500D03*
%TO.P,J8,2,Pin_2*%
%TO.N,GND*%
X85830000Y-89597500D03*
%TO.P,J8,3,Pin_3*%
%TO.N,/SDA*%
X85330000Y-89597500D03*
%TO.P,J8,4,Pin_4*%
%TO.N,+2V8*%
X84830000Y-89597500D03*
%TO.P,J8,5,Pin_5*%
%TO.N,/SCL*%
X84330000Y-89597500D03*
%TO.P,J8,6,Pin_6*%
%TO.N,/RESET*%
X83830000Y-89597500D03*
%TO.P,J8,7,Pin_7*%
%TO.N,/VSYNC*%
X83330000Y-89597500D03*
%TO.P,J8,8,Pin_8*%
%TO.N,/PWDN*%
X82830000Y-89597500D03*
%TO.P,J8,9,Pin_9*%
%TO.N,/HREF*%
X82330000Y-89597500D03*
%TO.P,J8,10,Pin_10*%
%TO.N,+1V2*%
X81830000Y-89597500D03*
%TO.P,J8,11,Pin_11*%
%TO.N,+2V8*%
X81330000Y-89597500D03*
%TO.P,J8,12,Pin_12*%
%TO.N,/Y9*%
X80830000Y-89597500D03*
%TO.P,J8,13,Pin_13*%
%TO.N,/XCLK*%
X80330000Y-89597500D03*
%TO.P,J8,14,Pin_14*%
%TO.N,/Y8*%
X79830000Y-89597500D03*
%TO.P,J8,15,Pin_15*%
%TO.N,GND*%
X79330000Y-89597500D03*
%TO.P,J8,16,Pin_16*%
%TO.N,/Y7*%
X78830000Y-89597500D03*
%TO.P,J8,17,Pin_17*%
%TO.N,/PCLK*%
X78330000Y-89597500D03*
%TO.P,J8,18,Pin_18*%
%TO.N,/Y6*%
X77830000Y-89597500D03*
%TO.P,J8,19,Pin_19*%
%TO.N,/Y2*%
X77330000Y-89597500D03*
%TO.P,J8,20,Pin_20*%
%TO.N,/Y5*%
X76830000Y-89597500D03*
%TO.P,J8,21,Pin_21*%
%TO.N,/Y3*%
X76330000Y-89597500D03*
%TO.P,J8,22,Pin_22*%
%TO.N,/Y4*%
X75830000Y-89597500D03*
%TO.P,J8,23,Pin_23*%
%TO.N,unconnected-(J8-Pin_23-Pad23)*%
X75330000Y-89597500D03*
%TO.P,J8,24,Pin_24*%
%TO.N,unconnected-(J8-Pin_24-Pad24)*%
X74830000Y-89597500D03*
D48*
%TO.P,J8,25*%
%TO.N,N/C*%
X87980000Y-87057500D03*
%TO.P,J8,26*%
X73180000Y-87067500D03*
%TD*%
D16*
%TO.P,R2,1*%
%TO.N,/PWDN*%
X70420000Y-85300000D03*
%TO.P,R2,2*%
%TO.N,GND*%
X68780000Y-85300000D03*
%TD*%
D49*
%TO.P,F1,1,1*%
%TO.N,Net-(J1-Pin_2)*%
X109700000Y-95350000D03*
%TO.P,F1,2,2*%
%TO.N,Net-(Q3-D)*%
X109700000Y-92450000D03*
%TD*%
D12*
%TO.P,J10,1,Pin_1*%
%TO.N,+3.3V*%
X60400000Y-58600000D03*
D13*
%TO.P,J10,2,Pin_2*%
%TO.N,/LDR2*%
X60400000Y-60600000D03*
%TD*%
D50*
%TO.P,U1,1,1*%
%TO.N,+3.3V*%
X54340000Y-77800000D03*
D51*
%TO.P,U1,2,2*%
%TO.N,GND*%
X54340000Y-76540000D03*
%TO.P,U1,3,3*%
%TO.N,+3.3V*%
X55600000Y-77800000D03*
%TO.P,U1,4,4*%
%TO.N,GND*%
X55600000Y-76540000D03*
%TD*%
D11*
%TO.P,R30,1*%
%TO.N,Net-(USB1-CC1)*%
X64400000Y-86800000D03*
%TO.P,R30,2*%
%TO.N,GND*%
X64400000Y-85160000D03*
%TD*%
D39*
%TO.P,TP4,1,1*%
%TO.N,Net-(R24-Pad2)*%
X54600000Y-80550000D03*
%TO.P,TP4,2,2*%
%TO.N,GND*%
X54600000Y-83090000D03*
%TD*%
D10*
%TO.P,C35,1*%
%TO.N,+3.3V*%
X69400000Y-60380000D03*
%TO.P,C35,2*%
%TO.N,GND*%
X69400000Y-58820000D03*
%TD*%
D22*
%TO.P,U13,1,GND*%
%TO.N,GND*%
X90000000Y-95600000D03*
%TO.P,U13,2,VO*%
%TO.N,+1V2*%
X90000000Y-97500000D03*
%TO.P,U13,3,VI*%
%TO.N,+3.3V*%
X92275000Y-96550000D03*
%TD*%
D37*
%TO.P,TP1,1,1*%
%TO.N,GND*%
X65200000Y-81000000D03*
%TD*%
D10*
%TO.P,C7,1*%
%TO.N,Net-(U4-CPL)*%
X90200000Y-89580000D03*
%TO.P,C7,2*%
%TO.N,Net-(U4-CPH)*%
X90200000Y-88020000D03*
%TD*%
D35*
%TO.P,R4,1*%
%TO.N,Net-(Q4-S)*%
X99700000Y-61120000D03*
%TO.P,R4,2*%
%TO.N,Net-(D2-Pad2)*%
X100700000Y-61120000D03*
%TD*%
D33*
%TO.P,U5,1,EN/IN1*%
%TO.N,/IN1_B*%
X100000000Y-83255000D03*
%TO.P,U5,2,PH/IN2*%
%TO.N,/IN2_B*%
X100000000Y-82605000D03*
%TO.P,U5,3,nSLEEP*%
%TO.N,Net-(U5-nSLEEP)*%
X100000000Y-81955000D03*
%TO.P,U5,4,nFAULT*%
%TO.N,/nFAULT_B*%
X100000000Y-81295000D03*
%TO.P,U5,5,VREF*%
%TO.N,+3.3V*%
X100000000Y-80645000D03*
%TO.P,U5,6,IPROPI*%
%TO.N,/I_SENSE_B*%
X100000000Y-79995000D03*
%TO.P,U5,7,IMODE*%
%TO.N,GND*%
X100000000Y-79345000D03*
%TO.P,U5,8,OUT1*%
%TO.N,/OUT1_B*%
X100000000Y-78695000D03*
%TO.P,U5,9,PGND*%
%TO.N,GND*%
X94260000Y-78695000D03*
%TO.P,U5,10,OUT2*%
%TO.N,/OUT2_B*%
X94260000Y-79345000D03*
%TO.P,U5,11,VM*%
%TO.N,+7.6V*%
X94260000Y-79995000D03*
%TO.P,U5,12,VCP*%
%TO.N,Net-(U5-VCP)*%
X94260000Y-80645000D03*
%TO.P,U5,13,CPH*%
%TO.N,Net-(U5-CPH)*%
X94260000Y-81295000D03*
%TO.P,U5,14,CPL*%
%TO.N,Net-(U5-CPL)*%
X94260000Y-81955000D03*
%TO.P,U5,15,GND*%
%TO.N,GND*%
X94260000Y-82605000D03*
%TO.P,U5,16,PMODE*%
%TO.N,/PMODE2*%
X94260000Y-83255000D03*
D34*
%TO.P,U5,17,EP*%
%TO.N,GND*%
X97130000Y-80975000D03*
%TD*%
D52*
%TO.P,U14,1,BS*%
%TO.N,Net-(U14-BS)*%
X96687500Y-70670000D03*
%TO.P,U14,2,GND*%
%TO.N,GND*%
X96687500Y-71620000D03*
%TO.P,U14,3,FB*%
%TO.N,Net-(U14-FB)*%
X96687500Y-72570000D03*
%TO.P,U14,4,EN*%
%TO.N,+7.6V*%
X99087500Y-72570000D03*
%TO.P,U14,5,IN*%
X99087500Y-71620000D03*
%TO.P,U14,6,LX*%
%TO.N,Net-(U14-LX)*%
X99087500Y-70670000D03*
%TD*%
D14*
%TO.P,C33,1*%
%TO.N,+3.3V*%
X93200000Y-61540000D03*
%TO.P,C33,2*%
%TO.N,GND*%
X93200000Y-63100000D03*
%TD*%
D23*
%TO.P,R19,1*%
%TO.N,/I_SENSE_B*%
X91780000Y-60000000D03*
%TO.P,R19,2*%
%TO.N,GND*%
X93420000Y-60000000D03*
%TD*%
D40*
%TO.P,R5,1*%
%TO.N,+3.3V*%
X95380000Y-74820000D03*
%TO.P,R5,2*%
%TO.N,Net-(U14-FB)*%
X95380000Y-73820000D03*
%TD*%
D39*
%TO.P,TP3,1,1*%
%TO.N,GND*%
X54600000Y-88250000D03*
%TO.P,TP3,2,2*%
%TO.N,Net-(R3-Pad2)*%
X54600000Y-85710000D03*
%TD*%
D24*
%TO.P,D3,1*%
%TO.N,+5V*%
X59875000Y-94200000D03*
%TO.P,D3,2*%
%TO.N,Net-(D3-Pad2)*%
X61975000Y-94200000D03*
%TD*%
D39*
%TO.P,TP2,1,1*%
%TO.N,/IN1_A*%
X111150000Y-69250000D03*
%TO.P,TP2,2,2*%
%TO.N,GND*%
X111150000Y-66710000D03*
%TD*%
D53*
%TO.N,*%
X116000000Y-88000000D03*
X116000000Y-90000000D03*
X116000000Y-62000000D03*
X116000000Y-64000000D03*
X116000000Y-66000000D03*
X116000000Y-68000000D03*
X116000000Y-86000000D03*
X116000000Y-92000000D03*
%TO.N,Net-(U14-FB)*%
X96700000Y-72546000D03*
X100900000Y-72600000D03*
%TO.N,+3.3V*%
X69400000Y-60380000D03*
X93390707Y-68210707D03*
X86200000Y-97300000D03*
X106200000Y-61500000D03*
X90513643Y-66999261D03*
X93200000Y-61540000D03*
X107401000Y-96800000D03*
X95800000Y-77400000D03*
X71815000Y-59810000D03*
X60800000Y-67500000D03*
X93200000Y-64800000D03*
X66800000Y-61780000D03*
X68800000Y-91400000D03*
X68800000Y-88000000D03*
X62500000Y-68500000D03*
X62100000Y-88000000D03*
X74800000Y-92800000D03*
X104180000Y-84100000D03*
X93400000Y-72400000D03*
X94137500Y-97330000D03*
X106700000Y-91350000D03*
X83700000Y-98600000D03*
X74800000Y-91400000D03*
X73580000Y-76300000D03*
X100000000Y-80645000D03*
X97400000Y-77150000D03*
X75800000Y-98600000D03*
X105820000Y-86400000D03*
X62000000Y-73200000D03*
X98620000Y-58320000D03*
X74800000Y-94400000D03*
%TO.N,GND*%
X97200000Y-79600000D03*
X64800000Y-94137500D03*
X101400000Y-64110000D03*
X96687500Y-71620000D03*
X54000000Y-92000000D03*
X64900000Y-66200000D03*
X82000000Y-95600000D03*
X66900000Y-85160000D03*
X94300000Y-77900000D03*
X80465000Y-64860000D03*
X82600000Y-80220000D03*
X66800000Y-58840000D03*
X93400000Y-69780000D03*
X69300000Y-57200000D03*
X94137500Y-95770000D03*
X89420000Y-78600000D03*
X86137500Y-95770000D03*
X86000000Y-90700000D03*
X71815000Y-58540000D03*
X79937500Y-95570000D03*
X93420000Y-60000000D03*
X71200000Y-94137500D03*
X101300000Y-59900000D03*
X76620000Y-92400000D03*
X54000000Y-94000000D03*
X94550000Y-90650000D03*
X89315000Y-58540000D03*
X62000000Y-96000000D03*
X67300000Y-57200000D03*
X102400000Y-84820000D03*
X87937500Y-97330000D03*
X56000000Y-94000000D03*
X60000000Y-98000000D03*
X114000000Y-62000000D03*
X84550000Y-80200000D03*
X86200000Y-93800000D03*
X114000000Y-64000000D03*
X83000000Y-93800000D03*
X56000000Y-92000000D03*
X97130000Y-86980000D03*
X93200000Y-63100000D03*
X63400000Y-60580000D03*
X80465000Y-66260000D03*
X70420000Y-88000000D03*
X94260000Y-84700000D03*
X62000000Y-98000000D03*
X109200000Y-98700000D03*
X90200000Y-84800000D03*
X99000000Y-75500000D03*
X78200000Y-95420000D03*
X112700000Y-90000000D03*
X58000000Y-92000000D03*
X97480000Y-73820000D03*
X88291475Y-82408525D03*
X80465000Y-67660000D03*
X79065000Y-64860000D03*
X64400000Y-85160000D03*
X91800000Y-76620000D03*
X94300000Y-82600000D03*
X76620000Y-94200000D03*
X63300000Y-57200000D03*
X60000000Y-96000000D03*
X69200000Y-83020000D03*
X69400000Y-58820000D03*
X91800000Y-73775000D03*
X112700000Y-92000000D03*
X111300000Y-98700000D03*
X65200000Y-81000000D03*
X114000000Y-66000000D03*
X84600000Y-93800000D03*
X65300000Y-57200000D03*
X90000000Y-95600000D03*
X58000000Y-94000000D03*
X112700000Y-94000000D03*
X79065000Y-66260000D03*
X95537500Y-95730000D03*
X68780000Y-85300000D03*
%TO.N,+7.6V*%
X92650000Y-90650000D03*
X91800000Y-78180000D03*
X91780000Y-86400000D03*
X101700000Y-74800000D03*
X101700000Y-73600000D03*
%TO.N,+2V8*%
X78180000Y-92400000D03*
X86200000Y-92240000D03*
X89600000Y-92200000D03*
%TO.N,Net-(U14-LX)*%
X97400000Y-68000000D03*
X99087500Y-70670000D03*
%TO.N,/I_SENSE_A*%
X92293323Y-79300000D03*
X96100000Y-83650000D03*
X87000001Y-77512183D03*
X86693891Y-81193891D03*
%TO.N,/I_SENSE_B*%
X91800000Y-61380000D03*
X102600000Y-80000000D03*
%TO.N,Net-(U5-CPH)*%
X89002673Y-79850000D03*
X93014609Y-80954391D03*
%TO.N,Net-(U5-CPL)*%
X92221799Y-88569999D03*
X97900000Y-83300000D03*
X97289591Y-84410409D03*
X92955246Y-84200000D03*
%TO.N,Net-(U5-VCP)*%
X94260000Y-80645000D03*
X90200000Y-80200000D03*
%TO.N,+5V*%
X59875000Y-91800000D03*
X70420000Y-89800000D03*
%TO.N,Net-(Q4-S)*%
X99700000Y-61100000D03*
X94850000Y-58520000D03*
%TO.N,/RESET*%
X84451473Y-91340000D03*
X91220000Y-92200000D03*
%TO.N,/PWDN*%
X82780000Y-85500000D03*
X70420000Y-85300000D03*
%TO.N,/LDR1*%
X89300000Y-62300000D03*
%TO.N,/LDR2*%
X63400000Y-62220000D03*
X71815000Y-63620000D03*
%TO.N,/SCL*%
X86500000Y-74000000D03*
X89315000Y-64890000D03*
X58000000Y-59800000D03*
X81200000Y-78900000D03*
%TO.N,/nFAULT_A*%
X112651000Y-67900000D03*
X109900000Y-90800000D03*
X98800000Y-90800000D03*
X92600000Y-69100000D03*
%TO.N,Net-(U5-nSLEEP)*%
X99242465Y-84006066D03*
X102500000Y-78600000D03*
%TO.N,/nFAULT_B*%
X71815000Y-62350000D03*
X103200000Y-81800000D03*
X76200000Y-73200000D03*
X66800000Y-63420000D03*
%TO.N,/SDA*%
X90900000Y-63800000D03*
X83700000Y-70000000D03*
X61700000Y-72000000D03*
X89315000Y-66160000D03*
X93200000Y-66420000D03*
X106800000Y-67000000D03*
X85400000Y-83100000D03*
%TO.N,Net-(D4-Pad2)*%
X70300000Y-95835000D03*
X61975000Y-91800000D03*
%TO.N,/PMODE2*%
X92900000Y-82700000D03*
X101426692Y-77726692D03*
%TO.N,/PMODE1*%
X95395479Y-90086360D03*
X107800000Y-89900000D03*
%TO.N,/OUT1_A*%
X105500000Y-80800000D03*
X101400000Y-84700000D03*
%TO.N,/OUT2_A*%
X107100000Y-84600000D03*
X92600000Y-85400000D03*
%TO.N,/XCLK*%
X80300000Y-80400000D03*
X74750000Y-72600000D03*
%TO.N,/Y8*%
X79700000Y-83900000D03*
X66700000Y-78000000D03*
%TO.N,/Y9*%
X80900000Y-81500000D03*
X71050000Y-77930000D03*
%TO.N,/Y7*%
X71815000Y-71240000D03*
X73400000Y-71100000D03*
X74900000Y-80800000D03*
X74900000Y-86300000D03*
X78900000Y-86500000D03*
X73365300Y-72700000D03*
%TO.N,/HREF*%
X71165286Y-76227002D03*
X82400000Y-82400000D03*
X69900000Y-72800000D03*
X69600000Y-78400000D03*
%TO.N,/VSYNC*%
X68891935Y-79045968D03*
X68600000Y-73000000D03*
X69951505Y-76530001D03*
X83361091Y-83238909D03*
%TO.N,/Y4*%
X71815000Y-72575000D03*
X73300000Y-78000000D03*
%TO.N,/XSHUT*%
X89315000Y-67430000D03*
%TO.N,Net-(USB1-CC2)*%
X66900000Y-86800000D03*
X69800000Y-86900000D03*
%TO.N,/IN1_A*%
X109400000Y-88400000D03*
X103200000Y-89300000D03*
X81800000Y-59800000D03*
X84200000Y-57343600D03*
X89300000Y-70000000D03*
%TO.N,/IN2_A*%
X101500000Y-88700000D03*
X107500000Y-88700000D03*
X86000000Y-60100000D03*
X105100000Y-66300000D03*
%TO.N,/IN2_B*%
X83740000Y-76300000D03*
X101900000Y-81870000D03*
%TO.N,/IN1_B*%
X102450707Y-83250707D03*
X85010000Y-76300000D03*
%TD*%
D54*
%TO.N,+3.3V*%
X93551000Y-75151000D02*
X93551000Y-72551000D01*
X93551000Y-72551000D02*
X93400000Y-72400000D01*
X95800000Y-77400000D02*
X93551000Y-75151000D01*
X95800000Y-77400000D02*
X95380000Y-76980000D01*
X95380000Y-76980000D02*
X95380000Y-74820000D01*
D55*
%TO.N,/OUT2_B*%
X93000000Y-79260000D02*
X93085000Y-79345000D01*
X93000000Y-73900000D02*
X93000000Y-79260000D01*
X93085000Y-79345000D02*
X94260000Y-79345000D01*
X92799000Y-73699000D02*
X93000000Y-73900000D01*
X105578000Y-69772000D02*
X94930390Y-69772000D01*
X94930390Y-69772000D02*
X92799000Y-71903390D01*
X106150000Y-69200000D02*
X105578000Y-69772000D01*
X92799000Y-71903390D02*
X92799000Y-73699000D01*
D56*
%TO.N,/VSYNC*%
X68900000Y-79037903D02*
X68891935Y-79045968D01*
X70000000Y-76578496D02*
X69921504Y-76578496D01*
X69921504Y-76578496D02*
X68900000Y-77600000D01*
X69951505Y-76530001D02*
X70000000Y-76578496D01*
X68900000Y-77600000D02*
X68900000Y-79037903D01*
%TO.N,/IN2_A*%
X86280000Y-75957100D02*
X86280000Y-76300000D01*
X81900000Y-71577100D02*
X86280000Y-75957100D01*
X81900000Y-64200000D02*
X81900000Y-71577100D01*
X86000000Y-60100000D02*
X81900000Y-64200000D01*
%TO.N,/SCL*%
X86610000Y-64890000D02*
X89315000Y-64890000D01*
X83149000Y-70649000D02*
X83149000Y-68351000D01*
X83149000Y-68351000D02*
X86610000Y-64890000D01*
X86500000Y-74000000D02*
X83149000Y-70649000D01*
%TO.N,/nFAULT_A*%
X114700000Y-69949000D02*
X112651000Y-67900000D01*
X114700000Y-86000000D02*
X114700000Y-69949000D01*
X109900000Y-90800000D02*
X114700000Y-86000000D01*
%TO.N,Net-(U14-FB)*%
X99434400Y-77700000D02*
X97000000Y-77700000D01*
X96100000Y-75300000D02*
X96480000Y-74920000D01*
X96480000Y-73820000D02*
X96480000Y-74920000D01*
X96687500Y-72558500D02*
X96700000Y-72546000D01*
X96687500Y-72570000D02*
X96687500Y-72558500D01*
X97000000Y-77700000D02*
X96100000Y-76800000D01*
X95380000Y-73820000D02*
X96480000Y-73820000D01*
X101126000Y-76008400D02*
X99434400Y-77700000D01*
X101126000Y-72826000D02*
X101126000Y-76008400D01*
X100900000Y-72600000D02*
X101126000Y-72826000D01*
X96100000Y-76800000D02*
X96100000Y-75300000D01*
D54*
%TO.N,+3.3V*%
X104634484Y-85524000D02*
X106700000Y-87589516D01*
X100000000Y-86650000D02*
X102130000Y-86650000D01*
D57*
X65620000Y-64520000D02*
X65200000Y-64100000D01*
X65620000Y-64640000D02*
X65620000Y-64520000D01*
X66032000Y-64640000D02*
X65620000Y-64640000D01*
D54*
X102130000Y-86650000D02*
X102400000Y-86380000D01*
X103092364Y-80701000D02*
X104180000Y-81788636D01*
D57*
X64100000Y-67238320D02*
X63229000Y-68109320D01*
X63229000Y-68109320D02*
X63229000Y-69090680D01*
D54*
X103380000Y-85400000D02*
X104820000Y-85400000D01*
X103725516Y-85524000D02*
X104634484Y-85524000D01*
D57*
X62921000Y-61321000D02*
X62895368Y-61321000D01*
D56*
X97500000Y-74900000D02*
X97480000Y-74920000D01*
D57*
X65580000Y-68600000D02*
X65770000Y-68410000D01*
X63554320Y-69416000D02*
X63554320Y-71645680D01*
X62584000Y-60784000D02*
X60400000Y-58600000D01*
D54*
X100000000Y-80645000D02*
X100056000Y-80701000D01*
X100056000Y-80701000D02*
X103092364Y-80701000D01*
X93400000Y-68220000D02*
X93390707Y-68210707D01*
X104180000Y-84100000D02*
X104180000Y-84150000D01*
X68780000Y-91380000D02*
X68800000Y-91400000D01*
X100000000Y-86650000D02*
X102599516Y-86650000D01*
X60180000Y-85000000D02*
X57200000Y-82020000D01*
D55*
X93200000Y-64780000D02*
X93200000Y-64800000D01*
D54*
X107401000Y-97139000D02*
X107170000Y-97370000D01*
D57*
X65200000Y-62220000D02*
X66360000Y-62220000D01*
D54*
X58076000Y-79925516D02*
X58076000Y-81144000D01*
X107401000Y-96800000D02*
X107401000Y-97139000D01*
D57*
X65620000Y-64640000D02*
X65100000Y-65160000D01*
X63554320Y-69416000D02*
X64764000Y-69416000D01*
D54*
X55950484Y-77800000D02*
X58076000Y-79925516D01*
D56*
X57200000Y-82020000D02*
X57200000Y-82000000D01*
D54*
X86137500Y-97330000D02*
X86170000Y-97330000D01*
D57*
X66361000Y-66931000D02*
X66361000Y-64969000D01*
D56*
X108620000Y-66000000D02*
X108600000Y-66000000D01*
D54*
X95800000Y-60400000D02*
X95800000Y-60500000D01*
X97480000Y-74920000D02*
X97480000Y-77070000D01*
X106600000Y-64000000D02*
X108600000Y-66000000D01*
X60400000Y-85000000D02*
X60180000Y-85000000D01*
X107170000Y-97370000D02*
X95537500Y-97370000D01*
D57*
X65770000Y-68410000D02*
X65770000Y-66950000D01*
D54*
X102400000Y-86380000D02*
X103380000Y-85400000D01*
D57*
X65100000Y-65160000D02*
X65100000Y-65270000D01*
X63554320Y-71645680D02*
X62000000Y-73200000D01*
D54*
X104180000Y-81788636D02*
X104180000Y-84100000D01*
D57*
X65770000Y-66950000D02*
X66342000Y-66950000D01*
D54*
X97480000Y-77070000D02*
X97400000Y-77150000D01*
X86170000Y-97330000D02*
X86200000Y-97300000D01*
X106700000Y-87589516D02*
X106700000Y-91350000D01*
D57*
X63229000Y-69090680D02*
X63554320Y-69416000D01*
D54*
X91734382Y-68220000D02*
X93400000Y-68220000D01*
D57*
X64380000Y-61400000D02*
X63000000Y-61400000D01*
X62584000Y-61009632D02*
X62584000Y-60784000D01*
X64100000Y-67130000D02*
X64100000Y-67238320D01*
D54*
X58076000Y-81144000D02*
X57200000Y-82020000D01*
X104820000Y-85400000D02*
X105820000Y-86400000D01*
X68780000Y-88000000D02*
X68800000Y-88000000D01*
D57*
X66342000Y-66950000D02*
X66361000Y-66931000D01*
X64764000Y-69416000D02*
X65580000Y-68600000D01*
X66361000Y-64969000D02*
X66032000Y-64640000D01*
X62895368Y-61321000D02*
X62584000Y-61009632D01*
X65200000Y-62220000D02*
X64380000Y-61400000D01*
D54*
X68780000Y-89800000D02*
X68780000Y-91380000D01*
D57*
X65200000Y-64100000D02*
X65200000Y-62220000D01*
D54*
X55600000Y-77800000D02*
X55950484Y-77800000D01*
D57*
X66360000Y-62220000D02*
X66800000Y-61780000D01*
D54*
X55600000Y-77800000D02*
X54340000Y-77800000D01*
X90513643Y-66999261D02*
X91734382Y-68220000D01*
D57*
X63000000Y-61400000D02*
X62921000Y-61321000D01*
D54*
X106570000Y-64000000D02*
X106600000Y-64000000D01*
X102599516Y-86650000D02*
X103725516Y-85524000D01*
D56*
%TO.N,GND*%
X94260000Y-78695000D02*
X94260000Y-77940000D01*
X85830000Y-90530000D02*
X86000000Y-90700000D01*
D55*
X93120000Y-63020000D02*
X93200000Y-63100000D01*
D56*
X77000000Y-91600000D02*
X76620000Y-91980000D01*
X66199000Y-93336500D02*
X66250000Y-93387500D01*
D55*
X91880000Y-63100000D02*
X91800000Y-63020000D01*
D58*
X93420000Y-60000000D02*
X93420000Y-58640000D01*
D56*
X72320000Y-98897500D02*
X72062500Y-98897500D01*
D55*
X64020000Y-68600000D02*
X64600000Y-68020000D01*
D58*
X94250000Y-90650000D02*
X94550000Y-90650000D01*
D56*
X102400000Y-84820000D02*
X101870000Y-85350000D01*
X94295000Y-82605000D02*
X94300000Y-82600000D01*
X66250000Y-93387500D02*
X66250000Y-94137500D01*
D55*
X98980000Y-75500000D02*
X99000000Y-75500000D01*
X101280000Y-59920000D02*
X101300000Y-59900000D01*
D58*
X94260000Y-88610000D02*
X93574261Y-88610000D01*
D56*
X72062500Y-98897500D02*
X69250000Y-96085000D01*
X94260000Y-77940000D02*
X94300000Y-77900000D01*
D58*
X90220000Y-84800000D02*
X90200000Y-84800000D01*
D56*
X69250000Y-96085000D02*
X69250000Y-94137500D01*
X91800000Y-73560000D02*
X91800000Y-73775000D01*
D55*
X100180000Y-58320000D02*
X100180000Y-59920000D01*
X64600000Y-66638000D02*
X64412000Y-66450000D01*
D56*
X78127500Y-91600000D02*
X77000000Y-91600000D01*
D55*
X64650000Y-65950000D02*
X64900000Y-66200000D01*
D56*
X76620000Y-91980000D02*
X76620000Y-92400000D01*
X97130000Y-80975000D02*
X98760000Y-79345000D01*
D55*
X99845110Y-59920000D02*
X100180000Y-59920000D01*
X64600000Y-67130000D02*
X65100000Y-67130000D01*
D58*
X93420000Y-58640000D02*
X93380000Y-58600000D01*
D56*
X97130000Y-80975000D02*
X97130000Y-79670000D01*
X64800000Y-93387500D02*
X64851000Y-93336500D01*
D55*
X100320000Y-75500000D02*
X100400000Y-75580000D01*
X64412000Y-66450000D02*
X63430000Y-66450000D01*
D58*
X93574261Y-88610000D02*
X93109000Y-89075261D01*
X93109000Y-89075261D02*
X93109000Y-89509000D01*
D55*
X64600000Y-68020000D02*
X64600000Y-67130000D01*
X102710000Y-65620000D02*
X102800000Y-65620000D01*
D58*
X93109000Y-89509000D02*
X94250000Y-90650000D01*
X88900000Y-81800000D02*
X88291475Y-82408525D01*
D55*
X99000000Y-75500000D02*
X100320000Y-75500000D01*
D56*
X85830000Y-89597500D02*
X85830000Y-90530000D01*
X101870000Y-85350000D02*
X100000000Y-85350000D01*
X79330000Y-90397500D02*
X78127500Y-91600000D01*
D55*
X64600000Y-67130000D02*
X64600000Y-66638000D01*
D56*
X98760000Y-79345000D02*
X100000000Y-79345000D01*
X97130000Y-79670000D02*
X97200000Y-79600000D01*
X79330000Y-89597500D02*
X79330000Y-90397500D01*
D55*
X101400000Y-64310000D02*
X102710000Y-65620000D01*
D56*
X86180000Y-80200000D02*
X86200000Y-80180000D01*
X84550000Y-80200000D02*
X86180000Y-80200000D01*
D55*
X101400000Y-64110000D02*
X101400000Y-64310000D01*
X100180000Y-59920000D02*
X101280000Y-59920000D01*
D56*
X94260000Y-82605000D02*
X94295000Y-82605000D01*
D55*
X93200000Y-63100000D02*
X91880000Y-63100000D01*
D56*
X64800000Y-94137500D02*
X64800000Y-93387500D01*
D55*
X63430000Y-65950000D02*
X64650000Y-65950000D01*
D56*
X97130000Y-80975000D02*
X97130000Y-80430000D01*
D58*
X90220000Y-81800000D02*
X88900000Y-81800000D01*
D56*
X64851000Y-93336500D02*
X66199000Y-93336500D01*
D58*
X90220000Y-83200000D02*
X90220000Y-81800000D01*
D56*
%TO.N,Net-(U4-CPH)*%
X90200000Y-88020000D02*
X92835000Y-88020000D01*
X93555000Y-87300000D02*
X94260000Y-87300000D01*
X92835000Y-88020000D02*
X93555000Y-87300000D01*
%TO.N,Net-(U4-CPL)*%
X93609616Y-87960000D02*
X94260000Y-87960000D01*
X91989616Y-89580000D02*
X93609616Y-87960000D01*
X90200000Y-89580000D02*
X91989616Y-89580000D01*
%TO.N,Net-(U4-VCP)*%
X90220000Y-86400000D02*
X90946000Y-87126000D01*
X93133616Y-87126000D02*
X93609616Y-86650000D01*
X90946000Y-87126000D02*
X93133616Y-87126000D01*
X93609616Y-86650000D02*
X94260000Y-86650000D01*
D58*
%TO.N,/EN*%
X67551000Y-70849000D02*
X67551000Y-61151000D01*
X65200000Y-73200000D02*
X67551000Y-70849000D01*
X71815000Y-61080000D02*
X71744000Y-61151000D01*
X71744000Y-61151000D02*
X67551000Y-61151000D01*
X67551000Y-61151000D02*
X66800000Y-60400000D01*
X66800000Y-60400000D02*
X65380000Y-60400000D01*
X65380000Y-60400000D02*
X65200000Y-60580000D01*
D55*
%TO.N,+2V8*%
X81630000Y-97130000D02*
X82000000Y-97500000D01*
X86200000Y-92240000D02*
X84830000Y-90870000D01*
X79937500Y-97130000D02*
X81630000Y-97130000D01*
X77845110Y-94200000D02*
X78180000Y-94200000D01*
X89580000Y-92200000D02*
X89600000Y-92200000D01*
X78200000Y-96980000D02*
X79787500Y-96980000D01*
X78180000Y-92400000D02*
X79379500Y-92400000D01*
X84830000Y-90870000D02*
X84830000Y-89597500D01*
X79787500Y-96980000D02*
X79937500Y-97130000D01*
X77200000Y-95980000D02*
X77200000Y-94845110D01*
X78200000Y-96980000D02*
X77200000Y-95980000D01*
X81330000Y-90449500D02*
X81330000Y-89597500D01*
X77200000Y-94845110D02*
X77845110Y-94200000D01*
X79379500Y-92400000D02*
X81330000Y-90449500D01*
X78180000Y-92400000D02*
X78180000Y-94200000D01*
%TO.N,+1V2*%
X84600000Y-92240000D02*
X83000000Y-92240000D01*
X84600000Y-92240000D02*
X85360000Y-93000000D01*
X89667500Y-97500000D02*
X87937500Y-95770000D01*
X86625110Y-93000000D02*
X87937500Y-94312390D01*
X90000000Y-97500000D02*
X89667500Y-97500000D01*
X87937500Y-94312390D02*
X87937500Y-95770000D01*
X83000000Y-92240000D02*
X81830000Y-91070000D01*
X81830000Y-91070000D02*
X81830000Y-89597500D01*
X85360000Y-93000000D02*
X86625110Y-93000000D01*
D56*
%TO.N,Net-(U14-LX)*%
X97400000Y-67920000D02*
X97400000Y-68000000D01*
X97538500Y-73096000D02*
X95383500Y-73096000D01*
X95383500Y-73096000D02*
X94887500Y-72600000D01*
X97538500Y-71861500D02*
X97538500Y-73096000D01*
X99087500Y-70670000D02*
X98730000Y-70670000D01*
X99514500Y-70670000D02*
X99087500Y-70670000D01*
X98730000Y-70670000D02*
X97538500Y-71861500D01*
%TO.N,Net-(U14-BS)*%
X96317500Y-71040000D02*
X96687500Y-70670000D01*
X94887500Y-71040000D02*
X96317500Y-71040000D01*
%TO.N,/I_SENSE_A*%
X88769000Y-79118782D02*
X86693891Y-81193891D01*
X84550000Y-78560000D02*
X86140000Y-78560000D01*
X89422648Y-77479000D02*
X88769000Y-78132648D01*
X92379000Y-77479000D02*
X89422648Y-77479000D01*
X82600000Y-78580000D02*
X84530000Y-78580000D01*
X97333000Y-83676000D02*
X96126000Y-83676000D01*
X82600000Y-76430000D02*
X82470000Y-76300000D01*
X98874000Y-85217000D02*
X98874000Y-85674000D01*
X86140000Y-78560000D02*
X86200000Y-78620000D01*
X84530000Y-78580000D02*
X84550000Y-78560000D01*
X88769000Y-78132648D02*
X88769000Y-79118782D01*
X92600000Y-77700000D02*
X92600000Y-78993323D01*
X92600000Y-78993323D02*
X92293323Y-79300000D01*
X92600000Y-77700000D02*
X92379000Y-77479000D01*
X98874000Y-85674000D02*
X99200000Y-86000000D01*
X97333000Y-83676000D02*
X98874000Y-85217000D01*
X82600000Y-78580000D02*
X82600000Y-76430000D01*
X86200000Y-78620000D02*
X86200000Y-78312184D01*
X86200000Y-78312184D02*
X87000001Y-77512183D01*
X96126000Y-83676000D02*
X96100000Y-83650000D01*
X99200000Y-86000000D02*
X100000000Y-86000000D01*
D58*
%TO.N,/I_SENSE_B*%
X91820000Y-59960000D02*
X91780000Y-60000000D01*
X89315000Y-61080000D02*
X89615000Y-61380000D01*
X91780000Y-61360000D02*
X91800000Y-61380000D01*
X91780000Y-60000000D02*
X91780000Y-61360000D01*
X91820000Y-58600000D02*
X91820000Y-59960000D01*
X102600000Y-80000000D02*
X102595000Y-79995000D01*
X89615000Y-61380000D02*
X91800000Y-61380000D01*
X102595000Y-79995000D02*
X100000000Y-79995000D01*
D56*
%TO.N,Net-(U5-CPH)*%
X88815600Y-79850000D02*
X86274000Y-82391600D01*
X94260000Y-81295000D02*
X93355218Y-81295000D01*
X93355218Y-81295000D02*
X93014609Y-80954391D01*
X86274000Y-83654000D02*
X87000000Y-84380000D01*
X86274000Y-82391600D02*
X86274000Y-83654000D01*
X89002673Y-79850000D02*
X88815600Y-79850000D01*
%TO.N,Net-(U5-CPL)*%
X95800000Y-83100000D02*
X95600000Y-82900000D01*
X89474000Y-88448400D02*
X89746600Y-88721000D01*
X92955246Y-84200000D02*
X92955246Y-84126898D01*
X92070798Y-88721000D02*
X92221799Y-88569999D01*
X89474000Y-84819000D02*
X89474000Y-88448400D01*
X94579232Y-84200000D02*
X97079182Y-84200000D01*
X92955246Y-84126898D02*
X93033144Y-84049000D01*
X94910384Y-81955000D02*
X94260000Y-81955000D01*
X97900000Y-83300000D02*
X97700000Y-83100000D01*
X93033144Y-84049000D02*
X94428232Y-84049000D01*
X95600000Y-82900000D02*
X95600000Y-82644616D01*
X89746600Y-88721000D02*
X92070798Y-88721000D01*
X95600000Y-82644616D02*
X94910384Y-81955000D01*
X87475000Y-82820000D02*
X89474000Y-84819000D01*
X97700000Y-83100000D02*
X95800000Y-83100000D01*
X97079182Y-84200000D02*
X97289591Y-84410409D01*
X94428232Y-84049000D02*
X94579232Y-84200000D01*
X87000000Y-82820000D02*
X87475000Y-82820000D01*
D58*
%TO.N,Net-(U5-VCP)*%
X90220000Y-80200000D02*
X90200000Y-80200000D01*
D57*
%TO.N,+5V*%
X59875000Y-94200000D02*
X59875000Y-91800000D01*
D55*
%TO.N,Net-(D2-Pad2)*%
X101200000Y-62530000D02*
X101400000Y-62330000D01*
X101400000Y-62330000D02*
X101400000Y-61820000D01*
X101400000Y-61820000D02*
X100700000Y-61120000D01*
D56*
%TO.N,Net-(J1-Pin_2)*%
X107150000Y-95350000D02*
X109700000Y-95350000D01*
X105000000Y-93200000D02*
X107150000Y-95350000D01*
%TO.N,/D-*%
X67250000Y-92729999D02*
X67626000Y-92353999D01*
X68151000Y-94938500D02*
X67301000Y-94938500D01*
X71508600Y-74086400D02*
X71815000Y-73780000D01*
X67250000Y-93555000D02*
X67250000Y-92729999D01*
X67626000Y-79077612D02*
X68049000Y-78654612D01*
X67626000Y-92353999D02*
X67626000Y-79077612D01*
X71416387Y-73780000D02*
X71815000Y-73780000D01*
X68049000Y-77147388D02*
X71416387Y-73780000D01*
X68049000Y-78654612D02*
X68049000Y-77147388D01*
X67301000Y-94938500D02*
X67250000Y-94887500D01*
X67250000Y-94887500D02*
X67250000Y-94137500D01*
X68250000Y-94137500D02*
X68250000Y-94839500D01*
X68250000Y-94839500D02*
X68151000Y-94938500D01*
X67250000Y-94257000D02*
X67250000Y-93555000D01*
%TO.N,/D+*%
X67977000Y-91800000D02*
X67977000Y-91377000D01*
X67750000Y-92729999D02*
X67977000Y-92502999D01*
X67750000Y-93555000D02*
X67750000Y-92729999D01*
X71255376Y-74437400D02*
X72000000Y-74437400D01*
X68750000Y-92350000D02*
X68200000Y-91800000D01*
X72200000Y-74665000D02*
X71815000Y-75050000D01*
X71150000Y-75050000D02*
X71815000Y-75050000D01*
X68400000Y-77303688D02*
X70800000Y-74903688D01*
X68750000Y-94137500D02*
X68750000Y-92350000D01*
X68200000Y-91800000D02*
X67977000Y-91800000D01*
X70800000Y-74892776D02*
X71255376Y-74437400D01*
X67977000Y-92502999D02*
X67977000Y-91800000D01*
X72000000Y-74437400D02*
X72200000Y-74637400D01*
X67977000Y-91377000D02*
X67977000Y-79223000D01*
X72200000Y-74637400D02*
X72200000Y-74665000D01*
X67977000Y-79223000D02*
X68400000Y-78800000D01*
X68400000Y-78800000D02*
X68400000Y-77303688D01*
X70800000Y-74903688D02*
X70800000Y-74892776D01*
D55*
%TO.N,Net-(Q4-S)*%
X99700000Y-61120000D02*
X99700000Y-61100000D01*
D56*
%TO.N,/RESET*%
X83830000Y-89597500D02*
X83830000Y-90718527D01*
X83830000Y-90718527D02*
X84451473Y-91340000D01*
%TO.N,/PWDN*%
X82830000Y-89597500D02*
X82830000Y-85550000D01*
X82830000Y-85550000D02*
X82780000Y-85500000D01*
%TO.N,Net-(R3-Pad2)*%
X60400000Y-86640000D02*
X55530000Y-86640000D01*
X55530000Y-86640000D02*
X54600000Y-85710000D01*
%TO.N,/LDR1*%
X89315000Y-62315000D02*
X89300000Y-62300000D01*
D55*
X102800000Y-63980000D02*
X102800000Y-62200000D01*
X102800000Y-62200000D02*
X104000000Y-61000000D01*
D56*
X89315000Y-62350000D02*
X89315000Y-62315000D01*
%TO.N,/LDR2*%
X62020000Y-62220000D02*
X63400000Y-62220000D01*
X60400000Y-60600000D02*
X62020000Y-62220000D01*
D58*
%TO.N,/SCL*%
X54224000Y-63376000D02*
X56400000Y-61200000D01*
D55*
X58000000Y-59800000D02*
X57800000Y-60000000D01*
D56*
X84330000Y-89597500D02*
X84330000Y-83430000D01*
D55*
X94239000Y-67833890D02*
X93526110Y-67121000D01*
D58*
X54224000Y-68024000D02*
X54224000Y-63376000D01*
X62400000Y-66400000D02*
X61900000Y-66900000D01*
D55*
X57800000Y-60000000D02*
X57600000Y-60000000D01*
X104930000Y-64000000D02*
X104930000Y-64952000D01*
X90270000Y-64890000D02*
X89315000Y-64890000D01*
X92501000Y-67121000D02*
X91800000Y-66420000D01*
X93526110Y-67121000D02*
X92501000Y-67121000D01*
D56*
X84330000Y-83430000D02*
X81200000Y-80300000D01*
D58*
X62400000Y-64970900D02*
X62400000Y-66400000D01*
D55*
X91800000Y-66420000D02*
X90270000Y-64890000D01*
D58*
X64405000Y-64633000D02*
X62737900Y-64633000D01*
D55*
X100561000Y-69321000D02*
X94239000Y-69321000D01*
X57600000Y-60000000D02*
X56400000Y-61200000D01*
X94239000Y-69321000D02*
X94239000Y-67833890D01*
D58*
X57300000Y-66900000D02*
X55200000Y-69000000D01*
X64600000Y-65270000D02*
X64600000Y-64828000D01*
X64600000Y-64828000D02*
X64405000Y-64633000D01*
X62737900Y-64633000D02*
X62400000Y-64970900D01*
D55*
X104930000Y-64952000D02*
X100561000Y-69321000D01*
D56*
X81200000Y-80300000D02*
X81200000Y-78900000D01*
D58*
X61900000Y-66900000D02*
X57300000Y-66900000D01*
X55200000Y-69000000D02*
X54224000Y-68024000D01*
D56*
%TO.N,/nFAULT_A*%
X92520000Y-69100000D02*
X92020000Y-69600000D01*
X99295000Y-87300000D02*
X98800000Y-87795000D01*
X92600000Y-69100000D02*
X92520000Y-69100000D01*
X92020000Y-69600000D02*
X91800000Y-69600000D01*
X98800000Y-87795000D02*
X98800000Y-90800000D01*
X90800000Y-68800000D02*
X91600000Y-69600000D01*
X88800000Y-68800000D02*
X90800000Y-68800000D01*
X91600000Y-69600000D02*
X91800000Y-69600000D01*
X100000000Y-87300000D02*
X99295000Y-87300000D01*
%TO.N,Net-(U4-nSLEEP)*%
X104180000Y-86400000D02*
X102620000Y-87960000D01*
X102620000Y-87960000D02*
X100000000Y-87960000D01*
%TO.N,Net-(U5-nSLEEP)*%
X99295000Y-81955000D02*
X100000000Y-81955000D01*
X98874000Y-83429384D02*
X98874000Y-82376000D01*
X99242465Y-83797849D02*
X98874000Y-83429384D01*
X98874000Y-82376000D02*
X99295000Y-81955000D01*
X105820000Y-81920000D02*
X102500000Y-78600000D01*
X99242465Y-84006066D02*
X99242465Y-83797849D01*
X105820000Y-84150000D02*
X105820000Y-81920000D01*
D55*
%TO.N,/S_PWM*%
X110350000Y-59000000D02*
X108650000Y-57300000D01*
X108650000Y-57300000D02*
X101350000Y-57300000D01*
D58*
%TO.N,Net-(U9-IO1)*%
X88289700Y-59222400D02*
X88289700Y-57857600D01*
X88289700Y-57857600D02*
X88749300Y-57398000D01*
X88749300Y-57398000D02*
X100448000Y-57398000D01*
X89315000Y-59810000D02*
X88877300Y-59810000D01*
X100448000Y-57398000D02*
X101350000Y-58300000D01*
X88877300Y-59810000D02*
X88289700Y-59222400D01*
%TO.N,/nFAULT_B*%
X103200000Y-81800000D02*
X102700000Y-81300000D01*
X72250000Y-62350000D02*
X76200000Y-66300000D01*
X102595000Y-81295000D02*
X100000000Y-81295000D01*
X76200000Y-66300000D02*
X76200000Y-73200000D01*
X71815000Y-62350000D02*
X72250000Y-62350000D01*
X102600000Y-81300000D02*
X102595000Y-81295000D01*
X102700000Y-81300000D02*
X102600000Y-81300000D01*
D56*
%TO.N,/SDA*%
X106980000Y-66820000D02*
X106800000Y-67000000D01*
X85400000Y-89527500D02*
X85400000Y-83100000D01*
D58*
X93637708Y-64064000D02*
X93951000Y-64377292D01*
X87540000Y-66160000D02*
X89315000Y-66160000D01*
X61700000Y-68300000D02*
X61700000Y-72000000D01*
X91164000Y-64064000D02*
X93637708Y-64064000D01*
X93951000Y-64377292D02*
X93951000Y-65669000D01*
X61700000Y-72000000D02*
X59400000Y-72000000D01*
X93951000Y-65669000D02*
X93200000Y-66420000D01*
X59400000Y-72000000D02*
X58400000Y-71000000D01*
X62904000Y-67096000D02*
X61700000Y-68300000D01*
X63864000Y-65034000D02*
X62904000Y-65034000D01*
X64100000Y-65270000D02*
X63864000Y-65034000D01*
D56*
X85330000Y-89597500D02*
X85400000Y-89527500D01*
D58*
X90900000Y-63800000D02*
X91164000Y-64064000D01*
D56*
X106980000Y-66000000D02*
X106980000Y-66820000D01*
D58*
X62904000Y-65034000D02*
X62904000Y-67096000D01*
X83700000Y-70000000D02*
X87540000Y-66160000D01*
X58400000Y-71000000D02*
X55200000Y-71000000D01*
D56*
%TO.N,Net-(R24-Pad2)*%
X54770000Y-80380000D02*
X54600000Y-80550000D01*
X57200000Y-80380000D02*
X54770000Y-80380000D01*
%TO.N,Net-(U9-IO45)*%
X87550000Y-78370000D02*
X87780000Y-78600000D01*
X87550000Y-76300000D02*
X87550000Y-78370000D01*
%TO.N,Net-(U9-IO46)*%
X74699700Y-77300300D02*
X74850000Y-77150000D01*
X74850000Y-77150000D02*
X74850000Y-76300000D01*
X72922600Y-77300300D02*
X74699700Y-77300300D01*
X69200000Y-81022900D02*
X72922600Y-77300300D01*
X69200000Y-81380000D02*
X69200000Y-81022900D01*
%TO.N,Net-(D3-Pad2)*%
X61975000Y-94200000D02*
X61975000Y-94775000D01*
X65042442Y-96135000D02*
X65800000Y-95377442D01*
X65800000Y-94337500D02*
X65600000Y-94137500D01*
X61975000Y-94775000D02*
X63335000Y-96135000D01*
X65800000Y-95377442D02*
X65800000Y-94337500D01*
X63335000Y-96135000D02*
X65042442Y-96135000D01*
%TO.N,Net-(D4-Pad2)*%
X70300000Y-95835000D02*
X70289000Y-95824000D01*
X70289000Y-95824000D02*
X70289000Y-94248500D01*
X70300000Y-95835000D02*
X70189000Y-95724000D01*
X61975000Y-91800000D02*
X62000000Y-91800000D01*
X70289000Y-94248500D02*
X70400000Y-94137500D01*
%TO.N,Net-(Q3-D)*%
X111100000Y-93850000D02*
X111100000Y-96000000D01*
X110904000Y-96196000D02*
X97121852Y-96196000D01*
X93875852Y-92950000D02*
X93600000Y-92950000D01*
X109700000Y-92450000D02*
X111100000Y-93850000D01*
X97121852Y-96196000D02*
X93875852Y-92950000D01*
X111100000Y-96000000D02*
X110904000Y-96196000D01*
%TO.N,/PMODE2*%
X107600000Y-71370136D02*
X106524864Y-70295000D01*
X105245000Y-73908384D02*
X101426692Y-77726692D01*
X105245000Y-70825136D02*
X105245000Y-73908384D01*
X93455000Y-83255000D02*
X92900000Y-82700000D01*
X105775136Y-70295000D02*
X105245000Y-70825136D01*
X106524864Y-70295000D02*
X105775136Y-70295000D01*
X107600000Y-80400000D02*
X107600000Y-71370136D01*
X94260000Y-83255000D02*
X93455000Y-83255000D01*
%TO.N,/PMODE1*%
X95395479Y-90086360D02*
X94569119Y-89260000D01*
X107800000Y-89220768D02*
X107800000Y-89900000D01*
X108071768Y-82131768D02*
X108071768Y-88949000D01*
X107600000Y-81660000D02*
X108071768Y-82131768D01*
X94569119Y-89260000D02*
X94260000Y-89260000D01*
X108071768Y-88949000D02*
X107800000Y-89220768D01*
%TO.N,/OUT1_A*%
X103848194Y-78101806D02*
X103848194Y-79148194D01*
X103848194Y-79148194D02*
X105500000Y-80800000D01*
X101400000Y-84700000D02*
X100000000Y-84700000D01*
X106150000Y-75800000D02*
X103848194Y-78101806D01*
%TO.N,/OUT2_A*%
X92600000Y-85400000D02*
X94210000Y-85400000D01*
X106150000Y-77800000D02*
X106150000Y-81712000D01*
X94210000Y-85400000D02*
X94260000Y-85350000D01*
X106150000Y-81712000D02*
X107100000Y-82662000D01*
X107100000Y-82662000D02*
X107100000Y-84600000D01*
D55*
%TO.N,/OUT1_B*%
X101430000Y-78695000D02*
X100000000Y-78695000D01*
X106150000Y-71200000D02*
X106150000Y-73975000D01*
X106150000Y-73975000D02*
X101430000Y-78695000D01*
D56*
%TO.N,/PCLK*%
X81200000Y-76642900D02*
X81200000Y-76300000D01*
X78330000Y-79512900D02*
X81200000Y-76642900D01*
X78330000Y-89597500D02*
X78330000Y-79512900D01*
%TO.N,/Y2*%
X77330000Y-77972900D02*
X78660000Y-76642900D01*
X77330000Y-89597500D02*
X77330000Y-77972900D01*
X78660000Y-76642900D02*
X78660000Y-76300000D01*
%TO.N,/XCLK*%
X74750000Y-72600000D02*
X74400000Y-72250000D01*
X74400000Y-72250000D02*
X74400000Y-69672100D01*
X80330000Y-80430000D02*
X80300000Y-80400000D01*
X80330000Y-89597500D02*
X80330000Y-80430000D01*
X72157900Y-67430000D02*
X71815000Y-67430000D01*
X74400000Y-69672100D02*
X72157900Y-67430000D01*
%TO.N,/Y8*%
X79700000Y-83900000D02*
X79830000Y-84030000D01*
X79830000Y-84030000D02*
X79830000Y-89597500D01*
%TO.N,/Y3*%
X76120000Y-76300000D02*
X76330000Y-76510000D01*
X76330000Y-76510000D02*
X76330000Y-89597500D01*
%TO.N,/Y9*%
X72815300Y-76084700D02*
X72815300Y-69357400D01*
X72157900Y-68700000D02*
X71815000Y-68700000D01*
X72815300Y-69357400D02*
X72157900Y-68700000D01*
X80830000Y-89597500D02*
X80900000Y-89527500D01*
X80900000Y-89527500D02*
X80900000Y-81500000D01*
X71050000Y-77850000D02*
X72815300Y-76084700D01*
X71050000Y-77930000D02*
X71050000Y-77850000D01*
%TO.N,/Y5*%
X76830000Y-76860000D02*
X76830000Y-89597500D01*
X77390000Y-76300000D02*
X76830000Y-76860000D01*
%TO.N,/Y6*%
X79930000Y-76687700D02*
X79930000Y-76300000D01*
X77830000Y-78787700D02*
X79930000Y-76687700D01*
X77830000Y-89597500D02*
X77830000Y-78787700D01*
%TO.N,/Y7*%
X73400000Y-72665300D02*
X73365300Y-72700000D01*
X78830000Y-89597500D02*
X78830000Y-86570000D01*
X78830000Y-86570000D02*
X78900000Y-86500000D01*
X74900000Y-80800000D02*
X74900000Y-86300000D01*
X73400000Y-71100000D02*
X73400000Y-72665300D01*
X73400000Y-71100000D02*
X73500000Y-71100000D01*
%TO.N,/HREF*%
X69900000Y-72800000D02*
X69900000Y-67732100D01*
X81600000Y-88746500D02*
X81600000Y-83200000D01*
X71472100Y-66160000D02*
X71815000Y-66160000D01*
X69900000Y-67732100D02*
X71472100Y-66160000D01*
X82231000Y-88746500D02*
X81600000Y-88746500D01*
X81600000Y-83200000D02*
X82400000Y-82400000D01*
X69600000Y-78400000D02*
X69600000Y-77800000D01*
X82330000Y-89597500D02*
X82231000Y-89498500D01*
X82231000Y-89498500D02*
X82231000Y-88746500D01*
X71165286Y-76234714D02*
X71165286Y-76227002D01*
X69600000Y-77800000D02*
X71165286Y-76234714D01*
%TO.N,/VSYNC*%
X71472100Y-64890000D02*
X68600000Y-67762100D01*
X68600000Y-67762100D02*
X68600000Y-73000000D01*
X71815000Y-64890000D02*
X71472100Y-64890000D01*
X83330000Y-83270000D02*
X83330000Y-89597500D01*
X83361091Y-83238909D02*
X83330000Y-83270000D01*
%TO.N,/Y4*%
X75830000Y-80530000D02*
X73300000Y-78000000D01*
X75830000Y-89597500D02*
X75830000Y-80530000D01*
%TO.N,Net-(USB1-CC1)*%
X66750000Y-89150000D02*
X66750000Y-93555000D01*
X64400000Y-86800000D02*
X66750000Y-89150000D01*
%TO.N,Net-(USB1-CC2)*%
X69800000Y-86900000D02*
X69750000Y-86950000D01*
X69750000Y-86950000D02*
X69750000Y-93555000D01*
%TO.N,/IN1_A*%
X84200000Y-57400000D02*
X81800000Y-59800000D01*
X111150000Y-86650000D02*
X111150000Y-69250000D01*
X84200000Y-57343600D02*
X84200000Y-57400000D01*
X109400000Y-88400000D02*
X111150000Y-86650000D01*
X89315000Y-69985000D02*
X89300000Y-70000000D01*
X103200000Y-89300000D02*
X103078854Y-89421146D01*
X100161146Y-89421146D02*
X100000000Y-89260000D01*
X103078854Y-89421146D02*
X100161146Y-89421146D01*
X89315000Y-69970000D02*
X89315000Y-69985000D01*
%TO.N,/IN2_A*%
X107249000Y-88951000D02*
X107249000Y-90128232D01*
X107571768Y-90451000D02*
X108749000Y-90451000D01*
X107249000Y-90128232D02*
X107571768Y-90451000D01*
X113000000Y-69755082D02*
X110905918Y-67661000D01*
X110905918Y-67661000D02*
X106461000Y-67661000D01*
X108749000Y-90451000D02*
X113000000Y-86200000D01*
X100090000Y-88700000D02*
X100000000Y-88610000D01*
X106461000Y-67661000D02*
X105100000Y-66300000D01*
X107500000Y-88700000D02*
X107249000Y-88951000D01*
X113000000Y-86200000D02*
X113000000Y-69755082D01*
X101500000Y-88700000D02*
X100090000Y-88700000D01*
%TO.N,/IN2_B*%
X101900000Y-81870000D02*
X101165000Y-82605000D01*
X101165000Y-82605000D02*
X100000000Y-82605000D01*
%TO.N,/IN1_B*%
X102450707Y-83250707D02*
X101518892Y-83250707D01*
X101518892Y-83250707D02*
X101514599Y-83255000D01*
X101514599Y-83255000D02*
X100000000Y-83255000D01*
D58*
%TO.N,/BOOT*%
X91800000Y-75200000D02*
X89465000Y-75200000D01*
X89465000Y-75200000D02*
X89315000Y-75050000D01*
D56*
%TO.N,/Y8*%
X71815000Y-69970000D02*
X71427300Y-69970000D01*
X70463700Y-70933600D02*
X70463700Y-73036300D01*
X71427300Y-69970000D02*
X70463700Y-70933600D01*
X70463700Y-73036300D02*
X66700000Y-76800000D01*
X66700000Y-76800000D02*
X66700000Y-78000000D01*
%TD*%
%TA.AperFunction,Conductor*%
%TO.N,+7.6V*%
G36*
X103041163Y-74220739D02*
G01*
X103087855Y-74272716D01*
X103100000Y-74326237D01*
X103100000Y-75577050D01*
X103080315Y-75644089D01*
X103063681Y-75664731D01*
X101538539Y-77189873D01*
X101477216Y-77223358D01*
X101450858Y-77226192D01*
X101360800Y-77226192D01*
X101233504Y-77260300D01*
X101119378Y-77326192D01*
X101119375Y-77326194D01*
X101026194Y-77419375D01*
X101026192Y-77419378D01*
X100960300Y-77533504D01*
X100926192Y-77660800D01*
X100926192Y-77792583D01*
X100960300Y-77919879D01*
X100972182Y-77940458D01*
X101026192Y-78034006D01*
X101026194Y-78034008D01*
X101125005Y-78132819D01*
X101135617Y-78152255D01*
X101150118Y-78168989D01*
X101152034Y-78182320D01*
X101158490Y-78194142D01*
X101156910Y-78216228D01*
X101160062Y-78238147D01*
X101154466Y-78250398D01*
X101153506Y-78263834D01*
X101140235Y-78281560D01*
X101131037Y-78301703D01*
X101119705Y-78308985D01*
X101111634Y-78319767D01*
X101090888Y-78327504D01*
X101072259Y-78339477D01*
X101050340Y-78342628D01*
X101046170Y-78344184D01*
X101037324Y-78344500D01*
X100844744Y-78344500D01*
X100812652Y-78340275D01*
X100753778Y-78324500D01*
X100753777Y-78324500D01*
X99246223Y-78324500D01*
X99151990Y-78349749D01*
X99067508Y-78398526D01*
X99067505Y-78398528D01*
X98998528Y-78467505D01*
X98998526Y-78467508D01*
X98949749Y-78551990D01*
X98924500Y-78646223D01*
X98924500Y-78743776D01*
X98951330Y-78843907D01*
X98949667Y-78913756D01*
X98910504Y-78971619D01*
X98846276Y-78999123D01*
X98831555Y-79000000D01*
X98390916Y-79000000D01*
X98380738Y-78999500D01*
X98379748Y-78999500D01*
X97599984Y-78999500D01*
X97567758Y-78000500D01*
X99473960Y-78000500D01*
X99473962Y-78000500D01*
X99550389Y-77980021D01*
X99618911Y-77940460D01*
X99674860Y-77884511D01*
X101366460Y-76192911D01*
X101406022Y-76124388D01*
X101426500Y-76047962D01*
X101426500Y-75968838D01*
X101426500Y-74229937D01*
X102973785Y-74202257D01*
X103041163Y-74220739D01*
G37*
%TD.AperFunction*%
%TA.AperFunction,Conductor*%
G36*
X100825500Y-74806806D02*
G01*
X100805815Y-74873845D01*
X100753011Y-74919600D01*
X100688430Y-74928885D01*
X100688352Y-74929882D01*
X100683924Y-74929533D01*
X100683853Y-74929544D01*
X100683633Y-74929510D01*
X100683495Y-74929500D01*
X100683488Y-74929500D01*
X100116512Y-74929500D01*
X100116507Y-74929500D01*
X100016878Y-74945279D01*
X99896778Y-75006473D01*
X99801466Y-75101785D01*
X99740143Y-75135269D01*
X99670451Y-75130285D01*
X99614518Y-75088413D01*
X99603301Y-75070399D01*
X99593016Y-75050216D01*
X99578528Y-75021780D01*
X99578525Y-75021777D01*
X99578523Y-75021774D01*
X99483225Y-74926476D01*
X99483221Y-74926473D01*
X99483220Y-74926472D01*
X99363126Y-74865281D01*
X99363124Y-74865280D01*
X99363121Y-74865279D01*
X99263493Y-74849500D01*
X99263488Y-74849500D01*
X98696512Y-74849500D01*
X98696507Y-74849500D01*
X98596878Y-74865279D01*
X98476778Y-74926473D01*
X98476774Y-74926476D01*
X98381476Y-75021774D01*
X98381473Y-75021778D01*
X98320279Y-75141878D01*
X98304500Y-75241506D01*
X98304500Y-75758493D01*
X98320279Y-75858121D01*
X98320280Y-75858124D01*
X98320281Y-75858126D01*
X98366947Y-75949713D01*
X98381473Y-75978221D01*
X98381476Y-75978225D01*
X98476774Y-76073523D01*
X98476778Y-76073526D01*
X98476780Y-76073528D01*
X98596874Y-76134719D01*
X98596876Y-76134719D01*
X98596878Y-76134720D01*
X98696507Y-76150500D01*
X98696512Y-76150500D01*
X99263493Y-76150500D01*
X99363121Y-76134720D01*
X99363121Y-76134719D01*
X99363126Y-76134719D01*
X99483220Y-76073528D01*
X99578528Y-75978220D01*
X99578529Y-75978217D01*
X99578533Y-75978214D01*
X99639856Y-75944729D01*
X99709548Y-75949713D01*
X99765482Y-75991584D01*
X99776696Y-76009595D01*
X99796244Y-76047960D01*
X99801471Y-76058218D01*
X99801476Y-76058225D01*
X99896774Y-76153523D01*
X99896778Y-76153526D01*
X99896780Y-76153528D01*
X100016874Y-76214719D01*
X100016876Y-76214719D01*
X100016878Y-76214720D01*
X100116507Y-76230500D01*
X100116512Y-76230500D01*
X100179567Y-76230500D01*
X100246606Y-76250185D01*
X100292361Y-76302989D01*
X100302305Y-76372147D01*
X100273280Y-76435703D01*
X100267248Y-76442181D01*
X99346248Y-77363181D01*
X99284925Y-77396666D01*
X99258567Y-77399500D01*
X98019703Y-77399500D01*
X97995717Y-77392457D01*
X97970891Y-77389489D01*
X97962767Y-77382781D01*
X97952664Y-77379815D01*
X97936295Y-77360924D01*
X97917013Y-77345004D01*
X97913805Y-77334969D01*
X97906909Y-77327011D01*
X97903351Y-77302267D01*
X97895738Y-77278452D01*
X97897639Y-77262545D01*
X97896965Y-77257853D01*
X97899928Y-77243407D01*
X97909064Y-77209310D01*
X97918383Y-77174529D01*
X97930500Y-77129309D01*
X97930500Y-75257312D01*
X97942118Y-75204907D01*
X97953972Y-75179487D01*
X97960500Y-75129901D01*
X97960499Y-74710100D01*
X97953972Y-74660513D01*
X97903224Y-74551684D01*
X97855491Y-74503951D01*
X97822006Y-74442628D01*
X97826990Y-74372936D01*
X97868862Y-74317003D01*
X97934326Y-74292586D01*
X97940930Y-74292291D01*
X100825500Y-74240688D01*
X100825500Y-74806806D01*
G37*
%TD.AperFunction*%
%TD*%
%TA.AperFunction,Conductor*%
%TO.N,+7.6V*%
G36*
X101943039Y-71219685D02*
G01*
X101988794Y-71272489D01*
X102000000Y-71324000D01*
X102000000Y-72746665D01*
X102000000Y-72746666D01*
X101726500Y-72764900D01*
X101726500Y-72746946D01*
X101726500Y-72746943D01*
X101708253Y-72678842D01*
X101704725Y-72665675D01*
X101700500Y-72633582D01*
X101700500Y-72521155D01*
X101700499Y-72521153D01*
X101688733Y-72462001D01*
X101669737Y-72366503D01*
X101669735Y-72366498D01*
X101609397Y-72220827D01*
X101609390Y-72220814D01*
X101521789Y-72089711D01*
X101521786Y-72089707D01*
X101410292Y-71978213D01*
X101410288Y-71978210D01*
X101279185Y-71890609D01*
X101279172Y-71890602D01*
X101133501Y-71830264D01*
X101133489Y-71830261D01*
X100978845Y-71799500D01*
X100978842Y-71799500D01*
X100821158Y-71799500D01*
X100821155Y-71799500D01*
X100666510Y-71830261D01*
X100666498Y-71830264D01*
X100520827Y-71890602D01*
X100520814Y-71890609D01*
X100389711Y-71978210D01*
X100389707Y-71978213D01*
X100278213Y-72089707D01*
X100278210Y-72089711D01*
X100190609Y-72220814D01*
X100190602Y-72220827D01*
X100130264Y-72366498D01*
X100130261Y-72366510D01*
X100099500Y-72521153D01*
X100099500Y-72678846D01*
X100130261Y-72833489D01*
X100130264Y-72833501D01*
X100145506Y-72870299D01*
X99700000Y-72900000D01*
X99700000Y-73500000D01*
X99700000Y-74260822D01*
X98200000Y-74287656D01*
X98200000Y-74287655D01*
X98203487Y-74284105D01*
X98210200Y-74251697D01*
X98212494Y-74246394D01*
X98257642Y-74090997D01*
X98257643Y-74090991D01*
X98260499Y-74054697D01*
X98260500Y-74054690D01*
X98260500Y-74011599D01*
X98262883Y-73987407D01*
X98280500Y-73898844D01*
X98280500Y-73741157D01*
X98280499Y-73741154D01*
X98262883Y-73652590D01*
X98260500Y-73628399D01*
X98260500Y-73585317D01*
X98260499Y-73585302D01*
X98257643Y-73549008D01*
X98257642Y-73549002D01*
X98234194Y-73468297D01*
X98212494Y-73393605D01*
X98212493Y-73393603D01*
X98210197Y-73388295D01*
X98200000Y-73339053D01*
X98200000Y-72900000D01*
X99700000Y-72900000D01*
X99700000Y-71445499D01*
X99735371Y-71445499D01*
X99735372Y-71445499D01*
X99794983Y-71439091D01*
X99929831Y-71388796D01*
X100045046Y-71302546D01*
X100084615Y-71249687D01*
X100140548Y-71207818D01*
X100183881Y-71200000D01*
X101876000Y-71200000D01*
X101943039Y-71219685D01*
G37*
%TD.AperFunction*%
%TD*%
%TA.AperFunction,Conductor*%
%TO.N,+3.3V*%
G36*
X93043039Y-95419685D02*
G01*
X93088794Y-95472489D01*
X93100000Y-95524000D01*
X93100000Y-96400000D01*
X93200000Y-96500000D01*
X96248638Y-96500000D01*
X96278078Y-96508644D01*
X96308065Y-96515168D01*
X96313080Y-96518922D01*
X96315677Y-96519685D01*
X96336319Y-96536319D01*
X96463681Y-96663681D01*
X96497166Y-96725004D01*
X96500000Y-96751362D01*
X96500000Y-98276000D01*
X96480315Y-98343039D01*
X96427511Y-98388794D01*
X96376000Y-98400000D01*
X91424000Y-98400000D01*
X91356961Y-98380315D01*
X91311206Y-98327511D01*
X91300000Y-98276000D01*
X91300000Y-95551362D01*
X91308644Y-95521921D01*
X91315168Y-95491935D01*
X91318922Y-95486919D01*
X91319685Y-95484323D01*
X91336319Y-95463681D01*
X91363681Y-95436319D01*
X91425004Y-95402834D01*
X91451362Y-95400000D01*
X92976000Y-95400000D01*
X93043039Y-95419685D01*
G37*
%TD.AperFunction*%
%TD*%
%TA.AperFunction,Conductor*%
%TO.N,+3.3V*%
G36*
X95800000Y-64100000D02*
G01*
X95800000Y-65800000D01*
X94251222Y-65800000D01*
X94254318Y-65794638D01*
X94254319Y-65794636D01*
X94260262Y-65772453D01*
X94276500Y-65711853D01*
X94276500Y-64334439D01*
X94254318Y-64251653D01*
X94224784Y-64200500D01*
X94211465Y-64177430D01*
X94200000Y-64165965D01*
X94200000Y-63909473D01*
X94224551Y-63900316D01*
X94233397Y-63900000D01*
X95400000Y-63900000D01*
X95600000Y-63900000D01*
X95800000Y-64100000D01*
G37*
%TD.AperFunction*%
%TD*%
%TA.AperFunction,Conductor*%
%TO.N,+3.3V*%
G36*
X97100000Y-62220000D02*
G01*
X97000000Y-62320000D01*
X92624000Y-62320000D01*
X92556961Y-62300315D01*
X92511206Y-62247511D01*
X92500000Y-62196000D01*
X92500000Y-60851362D01*
X92508644Y-60821921D01*
X92515168Y-60791935D01*
X92518922Y-60786919D01*
X92519685Y-60784323D01*
X92536319Y-60763681D01*
X92563681Y-60736319D01*
X92625004Y-60702834D01*
X92651362Y-60700000D01*
X95400000Y-60700000D01*
X97100000Y-60700000D01*
X97100000Y-62220000D01*
G37*
%TD.AperFunction*%
%TD*%
%TA.AperFunction,Conductor*%
%TO.N,+3.3V*%
G36*
X61143039Y-80719685D02*
G01*
X61188794Y-80772489D01*
X61200000Y-80824000D01*
X61200000Y-84499998D01*
X61200000Y-85600000D01*
X59824000Y-85600000D01*
X59756961Y-85580315D01*
X59711206Y-85527511D01*
X59700000Y-85476000D01*
X59700000Y-80824000D01*
X59719685Y-80756961D01*
X59772489Y-80711206D01*
X59824000Y-80700000D01*
X61076000Y-80700000D01*
X61143039Y-80719685D01*
G37*
%TD.AperFunction*%
%TD*%
%TA.AperFunction,Conductor*%
%TO.N,+3.3V*%
G36*
X112615677Y-56819685D02*
G01*
X112636319Y-56836319D01*
X112863681Y-57063681D01*
X112897166Y-57125004D01*
X112900000Y-57151362D01*
X112900000Y-61676000D01*
X112880315Y-61743039D01*
X112827511Y-61788794D01*
X112776000Y-61800000D01*
X109000000Y-61800000D01*
X109000000Y-65448638D01*
X108980315Y-65515677D01*
X108963681Y-65536319D01*
X108436319Y-66063681D01*
X108374996Y-66097166D01*
X108348638Y-66100000D01*
X107704500Y-66100000D01*
X107637461Y-66080315D01*
X107591706Y-66027511D01*
X107580500Y-65976000D01*
X107580499Y-65693482D01*
X107580498Y-65693475D01*
X107565646Y-65599696D01*
X107508050Y-65486658D01*
X107508046Y-65486654D01*
X107508045Y-65486652D01*
X107418347Y-65396954D01*
X107418344Y-65396952D01*
X107418342Y-65396950D01*
X107341517Y-65357805D01*
X107305301Y-65339352D01*
X107211524Y-65324500D01*
X106748482Y-65324500D01*
X106667519Y-65337323D01*
X106654696Y-65339354D01*
X106541658Y-65396950D01*
X106541657Y-65396951D01*
X106541652Y-65396954D01*
X106451954Y-65486652D01*
X106451951Y-65486657D01*
X106394352Y-65599698D01*
X106379500Y-65693475D01*
X106379500Y-65693480D01*
X106379500Y-65693481D01*
X106379500Y-65976001D01*
X106359817Y-66043039D01*
X106307013Y-66088794D01*
X106255501Y-66100000D01*
X105634049Y-66100000D01*
X105622530Y-66096617D01*
X105610580Y-66097759D01*
X105589625Y-66086955D01*
X105567010Y-66080315D01*
X105557597Y-66070443D01*
X105548478Y-66065742D01*
X105526661Y-66037998D01*
X105516612Y-66020592D01*
X105500000Y-65958594D01*
X105500000Y-65800000D01*
X106100000Y-65200000D01*
X106100000Y-64700000D01*
X105530499Y-64130499D01*
X105530499Y-63693482D01*
X105515646Y-63599696D01*
X105513513Y-63595509D01*
X105500000Y-63539219D01*
X105500000Y-59100000D01*
X105499999Y-59099999D01*
X104490819Y-60109181D01*
X104429496Y-60142666D01*
X104403138Y-60145500D01*
X103526247Y-60145500D01*
X103467770Y-60157131D01*
X103467769Y-60157132D01*
X103401447Y-60201447D01*
X103357132Y-60267769D01*
X103357131Y-60267770D01*
X103350683Y-60300191D01*
X103318298Y-60362102D01*
X103257582Y-60396676D01*
X103229066Y-60400000D01*
X102451362Y-60400000D01*
X102384323Y-60380315D01*
X102363681Y-60363681D01*
X102136319Y-60136319D01*
X102102834Y-60074996D01*
X102100000Y-60048638D01*
X102100000Y-57774500D01*
X102119685Y-57707461D01*
X102172489Y-57661706D01*
X102224000Y-57650500D01*
X108453456Y-57650500D01*
X108520495Y-57670185D01*
X108541137Y-57686819D01*
X109459181Y-58604863D01*
X109492666Y-58666186D01*
X109495500Y-58692544D01*
X109495500Y-59673752D01*
X109507131Y-59732229D01*
X109507132Y-59732230D01*
X109551447Y-59798552D01*
X109617769Y-59842867D01*
X109617770Y-59842868D01*
X109676247Y-59854499D01*
X109676250Y-59854500D01*
X109676252Y-59854500D01*
X111023750Y-59854500D01*
X111023751Y-59854499D01*
X111038568Y-59851552D01*
X111082229Y-59842868D01*
X111082229Y-59842867D01*
X111082231Y-59842867D01*
X111148552Y-59798552D01*
X111192867Y-59732231D01*
X111192867Y-59732229D01*
X111192868Y-59732229D01*
X111204499Y-59673752D01*
X111204500Y-59673750D01*
X111204500Y-58326249D01*
X111204499Y-58326247D01*
X111192868Y-58267770D01*
X111192867Y-58267769D01*
X111148552Y-58201447D01*
X111082230Y-58157132D01*
X111082229Y-58157131D01*
X111023752Y-58145500D01*
X111023748Y-58145500D01*
X110042544Y-58145500D01*
X109975505Y-58125815D01*
X109954863Y-58109181D01*
X108859465Y-57013783D01*
X108861302Y-57011945D01*
X108827715Y-56965940D01*
X108823565Y-56896194D01*
X108857781Y-56835276D01*
X108919501Y-56802527D01*
X108944407Y-56800000D01*
X112548638Y-56800000D01*
X112615677Y-56819685D01*
G37*
%TD.AperFunction*%
%TD*%
%TA.AperFunction,Conductor*%
%TO.N,+3.3V*%
G36*
X69242539Y-86819685D02*
G01*
X69288294Y-86872489D01*
X69299500Y-86924000D01*
X69299500Y-86965891D01*
X69333608Y-87093187D01*
X69366554Y-87150250D01*
X69399500Y-87207314D01*
X69399502Y-87207316D01*
X69413181Y-87220995D01*
X69446666Y-87282318D01*
X69449500Y-87308676D01*
X69449500Y-90576000D01*
X69429815Y-90643039D01*
X69377011Y-90688794D01*
X69325500Y-90700000D01*
X68401500Y-90700000D01*
X68334461Y-90680315D01*
X68288706Y-90627511D01*
X68277500Y-90576000D01*
X68277500Y-86924000D01*
X68297185Y-86856961D01*
X68349989Y-86811206D01*
X68401500Y-86800000D01*
X69175500Y-86800000D01*
X69242539Y-86819685D01*
G37*
%TD.AperFunction*%
%TD*%
%TA.AperFunction,Conductor*%
%TO.N,+3.3V*%
G36*
X90905203Y-66021331D02*
G01*
X90911681Y-66027363D01*
X91088181Y-66203863D01*
X91121666Y-66265186D01*
X91124500Y-66291544D01*
X91124500Y-66651517D01*
X91135292Y-66719657D01*
X91139354Y-66745304D01*
X91196950Y-66858342D01*
X91196952Y-66858344D01*
X91196954Y-66858347D01*
X91286652Y-66948045D01*
X91286654Y-66948046D01*
X91286658Y-66948050D01*
X91388313Y-66999846D01*
X91399698Y-67005647D01*
X91493475Y-67020499D01*
X91493481Y-67020500D01*
X91853455Y-67020499D01*
X91920494Y-67040183D01*
X91941136Y-67056818D01*
X92285788Y-67401470D01*
X92365712Y-67447614D01*
X92454856Y-67471500D01*
X92454857Y-67471500D01*
X92547144Y-67471500D01*
X93329566Y-67471500D01*
X93396605Y-67491185D01*
X93417247Y-67507819D01*
X93852181Y-67942753D01*
X93885666Y-68004076D01*
X93888500Y-68030434D01*
X93888500Y-68876000D01*
X93868815Y-68943039D01*
X93816011Y-68988794D01*
X93764500Y-69000000D01*
X93186509Y-69000000D01*
X93119470Y-68980315D01*
X93073715Y-68927511D01*
X93066735Y-68908095D01*
X93066392Y-68906814D01*
X93000500Y-68792686D01*
X92907314Y-68699500D01*
X92850250Y-68666554D01*
X92793187Y-68633608D01*
X92725564Y-68615489D01*
X92665892Y-68599500D01*
X92534108Y-68599500D01*
X92406812Y-68633608D01*
X92292686Y-68699500D01*
X92292683Y-68699502D01*
X92199502Y-68792683D01*
X92199500Y-68792686D01*
X92151399Y-68876000D01*
X92133608Y-68906814D01*
X92133265Y-68908090D01*
X92132683Y-68909047D01*
X92130500Y-68914318D01*
X92129678Y-68913977D01*
X92096904Y-68967751D01*
X92034059Y-68998282D01*
X92013491Y-69000000D01*
X91476333Y-69000000D01*
X91409294Y-68980315D01*
X91388652Y-68963681D01*
X90984512Y-68559541D01*
X90984504Y-68559535D01*
X90915995Y-68519982D01*
X90915990Y-68519979D01*
X90890513Y-68513152D01*
X90839562Y-68499500D01*
X90824000Y-68499500D01*
X90756961Y-68479815D01*
X90711206Y-68427011D01*
X90700000Y-68375500D01*
X90700000Y-66115044D01*
X90719685Y-66048005D01*
X90772489Y-66002250D01*
X90841647Y-65992306D01*
X90905203Y-66021331D01*
G37*
%TD.AperFunction*%
%TA.AperFunction,Conductor*%
G36*
X94200000Y-66299999D02*
G01*
X94200000Y-66999846D01*
X94180315Y-67066885D01*
X94127511Y-67112640D01*
X94058353Y-67122584D01*
X93994797Y-67093559D01*
X93988319Y-67087527D01*
X93851930Y-66951138D01*
X93818445Y-66889815D01*
X93823429Y-66820123D01*
X93829116Y-66807183D01*
X93860646Y-66745304D01*
X93875500Y-66651519D01*
X93875499Y-66256187D01*
X93895183Y-66189149D01*
X93911809Y-66168516D01*
X94200000Y-65880326D01*
X94200000Y-66299999D01*
G37*
%TD.AperFunction*%
%TA.AperFunction,Conductor*%
G36*
X90833265Y-64300274D02*
G01*
X90834108Y-64300500D01*
X90891042Y-64300500D01*
X90891298Y-64300501D01*
X90924617Y-64310425D01*
X90957853Y-64320185D01*
X90958017Y-64320374D01*
X90958260Y-64320447D01*
X90963115Y-64323875D01*
X91010294Y-64351113D01*
X91038362Y-64367318D01*
X91121147Y-64389500D01*
X91206853Y-64389500D01*
X93451518Y-64389500D01*
X93480954Y-64398143D01*
X93510944Y-64404667D01*
X93515960Y-64408422D01*
X93518557Y-64409185D01*
X93539198Y-64425818D01*
X93589180Y-64475799D01*
X93622666Y-64537122D01*
X93625500Y-64563481D01*
X93625500Y-65482810D01*
X93605815Y-65549849D01*
X93589181Y-65570491D01*
X93376491Y-65783181D01*
X93315168Y-65816666D01*
X93288810Y-65819500D01*
X92893482Y-65819500D01*
X92812519Y-65832323D01*
X92799696Y-65834354D01*
X92686658Y-65891950D01*
X92686657Y-65891951D01*
X92686652Y-65891954D01*
X92590049Y-65988558D01*
X92588006Y-65986515D01*
X92544984Y-66019689D01*
X92475370Y-66025665D01*
X92413576Y-65993057D01*
X92407905Y-65986512D01*
X92313347Y-65891954D01*
X92313344Y-65891952D01*
X92313342Y-65891950D01*
X92236517Y-65852805D01*
X92200301Y-65834352D01*
X92106524Y-65819500D01*
X92106519Y-65819500D01*
X91746544Y-65819500D01*
X91679505Y-65799815D01*
X91658863Y-65783181D01*
X90736319Y-64860637D01*
X90702834Y-64799314D01*
X90700000Y-64772956D01*
X90700000Y-64424239D01*
X90702619Y-64415319D01*
X90701332Y-64406113D01*
X90712306Y-64382329D01*
X90719685Y-64357200D01*
X90726709Y-64351113D01*
X90730605Y-64342671D01*
X90752697Y-64328594D01*
X90772489Y-64311445D01*
X90781802Y-64310049D01*
X90789530Y-64305126D01*
X90824484Y-64300240D01*
X90833265Y-64300274D01*
G37*
%TD.AperFunction*%
%TD*%
%TA.AperFunction,Conductor*%
%TO.N,+3.3V*%
G36*
X66353107Y-89208644D02*
G01*
X66383094Y-89215168D01*
X66388109Y-89218922D01*
X66390706Y-89219685D01*
X66411348Y-89236319D01*
X66413181Y-89238152D01*
X66446666Y-89299475D01*
X66449500Y-89325833D01*
X66449500Y-90576000D01*
X66429815Y-90643039D01*
X66377011Y-90688794D01*
X66325500Y-90700000D01*
X61451362Y-90700000D01*
X61384323Y-90680315D01*
X61363681Y-90663681D01*
X61236319Y-90536319D01*
X61202834Y-90474996D01*
X61200000Y-90448638D01*
X61200000Y-90300000D01*
X63000000Y-90300000D01*
X63000000Y-89300000D01*
X62900000Y-89200000D01*
X66323667Y-89200000D01*
X66353107Y-89208644D01*
G37*
%TD.AperFunction*%
%TA.AperFunction,Conductor*%
G36*
X62578078Y-84408644D02*
G01*
X62608065Y-84415168D01*
X62613080Y-84418922D01*
X62615677Y-84419685D01*
X62636319Y-84436319D01*
X62763681Y-84563681D01*
X62797166Y-84625004D01*
X62800000Y-84651362D01*
X62800000Y-89100000D01*
X61200000Y-89100000D01*
X61200000Y-84500000D01*
X61263682Y-84436317D01*
X61325003Y-84402834D01*
X61351362Y-84400000D01*
X62548638Y-84400000D01*
X62578078Y-84408644D01*
G37*
%TD.AperFunction*%
%TD*%
%TA.AperFunction,Conductor*%
%TO.N,+7.6V*%
G36*
X92816060Y-79587589D02*
G01*
X92860408Y-79616090D01*
X92869788Y-79625470D01*
X92949712Y-79671614D01*
X93038856Y-79695500D01*
X93300000Y-79695500D01*
X93300000Y-79800000D01*
X92500000Y-79800000D01*
X92500000Y-79758602D01*
X92600637Y-79700500D01*
X92685049Y-79616087D01*
X92746368Y-79582605D01*
X92816060Y-79587589D01*
G37*
%TD.AperFunction*%
%TD*%
%TA.AperFunction,Conductor*%
%TO.N,+7.6V*%
G36*
X92584105Y-89909016D02*
G01*
X92610463Y-89910901D01*
X92619514Y-89916718D01*
X92626556Y-89918250D01*
X92654807Y-89939398D01*
X92710267Y-89994858D01*
X92710269Y-89994859D01*
X93563681Y-90848272D01*
X93597166Y-90909594D01*
X93600000Y-90935952D01*
X93600000Y-91276000D01*
X93580315Y-91343039D01*
X93527511Y-91388794D01*
X93476000Y-91400000D01*
X91936870Y-91400000D01*
X91869831Y-91380315D01*
X91860401Y-91373614D01*
X91855188Y-91369530D01*
X91709606Y-91281522D01*
X91691885Y-91276000D01*
X91547196Y-91230914D01*
X91547194Y-91230913D01*
X91547192Y-91230913D01*
X91497778Y-91226423D01*
X91476616Y-91224500D01*
X91124000Y-91224500D01*
X91056961Y-91204815D01*
X91011206Y-91152011D01*
X91000000Y-91100500D01*
X91000000Y-90330192D01*
X91004775Y-90313494D01*
X91004542Y-90296938D01*
X91015898Y-90274599D01*
X91018750Y-90264630D01*
X91022661Y-90258350D01*
X91022968Y-90258044D01*
X91034630Y-90239135D01*
X91034754Y-90238938D01*
X91060574Y-90215918D01*
X91086412Y-90192679D01*
X91086722Y-90192608D01*
X91086908Y-90192443D01*
X91088693Y-90192160D01*
X91140004Y-90180500D01*
X91902947Y-90180500D01*
X91902963Y-90180501D01*
X91910559Y-90180501D01*
X92068670Y-90180501D01*
X92068673Y-90180501D01*
X92221401Y-90139577D01*
X92271827Y-90110463D01*
X92358332Y-90060520D01*
X92470136Y-89948716D01*
X92470137Y-89948713D01*
X92479448Y-89939402D01*
X92487393Y-89935063D01*
X92492819Y-89927816D01*
X92517578Y-89918581D01*
X92540771Y-89905917D01*
X92549800Y-89906562D01*
X92558283Y-89903399D01*
X92584105Y-89909016D01*
G37*
%TD.AperFunction*%
%TA.AperFunction,Conductor*%
G36*
X91942539Y-78099185D02*
G01*
X91988294Y-78151989D01*
X91999500Y-78203500D01*
X91999500Y-78472395D01*
X91979815Y-78539434D01*
X91927011Y-78585189D01*
X91922960Y-78586953D01*
X91914151Y-78590602D01*
X91914137Y-78590609D01*
X91783034Y-78678210D01*
X91783030Y-78678213D01*
X91671536Y-78789707D01*
X91671533Y-78789711D01*
X91583932Y-78920814D01*
X91583925Y-78920827D01*
X91551131Y-79000000D01*
X91200000Y-79000000D01*
X91200000Y-80600000D01*
X91600000Y-81000000D01*
X92214109Y-81000000D01*
X92214109Y-81033237D01*
X92244870Y-81187880D01*
X92244873Y-81187892D01*
X92305211Y-81333563D01*
X92305218Y-81333576D01*
X92392819Y-81464679D01*
X92392822Y-81464683D01*
X92504316Y-81576177D01*
X92504320Y-81576180D01*
X92635423Y-81663781D01*
X92635432Y-81663786D01*
X92702475Y-81691556D01*
X92756878Y-81735397D01*
X92778943Y-81801691D01*
X92761664Y-81869390D01*
X92710527Y-81917001D01*
X92679215Y-81927734D01*
X92666507Y-81930261D01*
X92666498Y-81930264D01*
X92520827Y-81990602D01*
X92520814Y-81990609D01*
X92389711Y-82078210D01*
X92389707Y-82078213D01*
X92278213Y-82189707D01*
X92278210Y-82189711D01*
X92190609Y-82320814D01*
X92190602Y-82320827D01*
X92130264Y-82466498D01*
X92130261Y-82466510D01*
X92099500Y-82621153D01*
X92099500Y-82778846D01*
X92130261Y-82933489D01*
X92130264Y-82933501D01*
X92190602Y-83079172D01*
X92190609Y-83079185D01*
X92278210Y-83210288D01*
X92278213Y-83210292D01*
X92389707Y-83321786D01*
X92389711Y-83321789D01*
X92454911Y-83365355D01*
X92499716Y-83418967D01*
X92508423Y-83488292D01*
X92478268Y-83551320D01*
X92454914Y-83571557D01*
X92444958Y-83578209D01*
X92444953Y-83578213D01*
X92333459Y-83689707D01*
X92333456Y-83689711D01*
X92245855Y-83820814D01*
X92245848Y-83820827D01*
X92185510Y-83966498D01*
X92185507Y-83966510D01*
X92154746Y-84121153D01*
X92154746Y-84278846D01*
X92185507Y-84433489D01*
X92185510Y-84433501D01*
X92237631Y-84559334D01*
X92245100Y-84628804D01*
X92213824Y-84691283D01*
X92191962Y-84709888D01*
X92089707Y-84778213D01*
X91978213Y-84889707D01*
X91978210Y-84889711D01*
X91890609Y-85020814D01*
X91890602Y-85020827D01*
X91830264Y-85166498D01*
X91830261Y-85166510D01*
X91799500Y-85321153D01*
X91799500Y-85478846D01*
X91830261Y-85633489D01*
X91830264Y-85633501D01*
X91890602Y-85779172D01*
X91890609Y-85779185D01*
X91900000Y-85793239D01*
X91900000Y-86300000D01*
X92125500Y-86525500D01*
X91294499Y-86525500D01*
X91227460Y-86505815D01*
X91181705Y-86453011D01*
X91170499Y-86401500D01*
X91170499Y-86101662D01*
X91170498Y-86101644D01*
X91160349Y-86002292D01*
X91160348Y-86002289D01*
X91159755Y-86000500D01*
X91107003Y-85841303D01*
X91106999Y-85841297D01*
X91106998Y-85841294D01*
X91018462Y-85697756D01*
X91013766Y-85681198D01*
X91005023Y-85667594D01*
X91000000Y-85632659D01*
X91000000Y-85567340D01*
X91018461Y-85502244D01*
X91107003Y-85358697D01*
X91160349Y-85197708D01*
X91170500Y-85098345D01*
X91170499Y-84501656D01*
X91160349Y-84402292D01*
X91107003Y-84241303D01*
X91106999Y-84241297D01*
X91106998Y-84241294D01*
X91018462Y-84097756D01*
X91013766Y-84081198D01*
X91005023Y-84067594D01*
X91000000Y-84032659D01*
X91000000Y-83967340D01*
X91018461Y-83902244D01*
X91107003Y-83758697D01*
X91160349Y-83597708D01*
X91170500Y-83498345D01*
X91170499Y-82901656D01*
X91160349Y-82802292D01*
X91107003Y-82641303D01*
X91059997Y-82565095D01*
X91041557Y-82497706D01*
X91059996Y-82434904D01*
X91107003Y-82358697D01*
X91160349Y-82197708D01*
X91170500Y-82098345D01*
X91170499Y-81501656D01*
X91169367Y-81490578D01*
X91160349Y-81402292D01*
X91160348Y-81402289D01*
X91137577Y-81333570D01*
X91107003Y-81241303D01*
X91106999Y-81241297D01*
X91106998Y-81241294D01*
X91018462Y-81097756D01*
X91013766Y-81081198D01*
X91005023Y-81067594D01*
X91000000Y-81032659D01*
X91000000Y-80967340D01*
X91018461Y-80902244D01*
X91107003Y-80758697D01*
X91160349Y-80597708D01*
X91170500Y-80498345D01*
X91170499Y-79901656D01*
X91166837Y-79865811D01*
X91160349Y-79802292D01*
X91160348Y-79802289D01*
X91150450Y-79772419D01*
X91107003Y-79641303D01*
X91106999Y-79641297D01*
X91106998Y-79641294D01*
X91018462Y-79497756D01*
X91000000Y-79432659D01*
X91000000Y-78203500D01*
X91019685Y-78136461D01*
X91072489Y-78090706D01*
X91124000Y-78079500D01*
X91875500Y-78079500D01*
X91942539Y-78099185D01*
G37*
%TD.AperFunction*%
%TD*%
%TA.AperFunction,Conductor*%
%TO.N,GND*%
G36*
X63821400Y-65786372D02*
G01*
X63876578Y-65829235D01*
X63899822Y-65895125D01*
X63900000Y-65901762D01*
X63900000Y-66498237D01*
X63880315Y-66565276D01*
X63827511Y-66611031D01*
X63758353Y-66620975D01*
X63751811Y-66619855D01*
X63699749Y-66609500D01*
X63699748Y-66609500D01*
X63353500Y-66609500D01*
X63286461Y-66589815D01*
X63240706Y-66537011D01*
X63229500Y-66485500D01*
X63229500Y-65914500D01*
X63249185Y-65847461D01*
X63301989Y-65801706D01*
X63353500Y-65790500D01*
X63699750Y-65790500D01*
X63699751Y-65790499D01*
X63720501Y-65786372D01*
X63751809Y-65780145D01*
X63821400Y-65786372D01*
G37*
%TD.AperFunction*%
%TD*%
%TA.AperFunction,Conductor*%
%TO.N,+3.3V*%
G36*
X99518690Y-57743185D02*
G01*
X99564445Y-57795989D01*
X99574389Y-57865147D01*
X99562136Y-57903794D01*
X99545279Y-57936876D01*
X99529500Y-58036506D01*
X99529500Y-58603493D01*
X99545279Y-58703123D01*
X99545281Y-58703126D01*
X99586485Y-58783994D01*
X99600000Y-58840287D01*
X99600000Y-59399712D01*
X99586485Y-59456006D01*
X99545279Y-59536876D01*
X99529500Y-59636506D01*
X99529500Y-59733481D01*
X99520062Y-59780932D01*
X99518496Y-59784712D01*
X99494610Y-59873856D01*
X99494610Y-59966144D01*
X99518496Y-60055288D01*
X99518498Y-60055292D01*
X99520059Y-60059059D01*
X99529500Y-60106517D01*
X99529500Y-60203493D01*
X99545279Y-60303123D01*
X99562136Y-60336207D01*
X99586485Y-60383994D01*
X99589606Y-60396995D01*
X99594977Y-60405352D01*
X99600000Y-60440287D01*
X99600000Y-60490236D01*
X99580315Y-60557275D01*
X99527511Y-60603030D01*
X99492184Y-60613175D01*
X99470516Y-60616027D01*
X99470509Y-60616029D01*
X99361683Y-60666776D01*
X99276776Y-60751683D01*
X99226027Y-60860514D01*
X99219500Y-60910098D01*
X99219500Y-60943140D01*
X99215275Y-60975232D01*
X99199500Y-61034106D01*
X99199500Y-61165893D01*
X99215275Y-61224767D01*
X99219500Y-61256857D01*
X99219500Y-61329894D01*
X99219501Y-61329900D01*
X99226028Y-61379487D01*
X99276776Y-61488316D01*
X99361684Y-61573224D01*
X99470513Y-61623972D01*
X99480895Y-61625338D01*
X99492183Y-61626825D01*
X99556080Y-61655090D01*
X99594552Y-61713414D01*
X99600000Y-61749764D01*
X99600000Y-64400000D01*
X99000000Y-64400000D01*
X98800000Y-64600000D01*
X98800000Y-65800000D01*
X99600000Y-66600000D01*
X94551362Y-66600000D01*
X94484323Y-66580315D01*
X94463681Y-66563681D01*
X94200000Y-66299999D01*
X94200000Y-65880326D01*
X94211465Y-65868862D01*
X94251222Y-65800000D01*
X95800000Y-65800000D01*
X95800000Y-64100000D01*
X95600000Y-63900000D01*
X95400000Y-63900000D01*
X95400000Y-62320000D01*
X97000000Y-62320000D01*
X97100000Y-62220000D01*
X97100000Y-60700000D01*
X95400000Y-60700000D01*
X95400000Y-57847500D01*
X95419685Y-57780461D01*
X95472489Y-57734706D01*
X95524000Y-57723500D01*
X99451651Y-57723500D01*
X99518690Y-57743185D01*
G37*
%TD.AperFunction*%
%TD*%
%TA.AperFunction,Conductor*%
%TO.N,+3.3V*%
G36*
X75343039Y-90819685D02*
G01*
X75388794Y-90872489D01*
X75400000Y-90924000D01*
X75400000Y-95000000D01*
X76548638Y-95000000D01*
X76578078Y-95008644D01*
X76608065Y-95015168D01*
X76613080Y-95018922D01*
X76615677Y-95019685D01*
X76636319Y-95036319D01*
X76763681Y-95163681D01*
X76797166Y-95225004D01*
X76800000Y-95251362D01*
X76800000Y-99076000D01*
X76780315Y-99143039D01*
X76727511Y-99188794D01*
X76676000Y-99200000D01*
X74251362Y-99200000D01*
X74184323Y-99180315D01*
X74163681Y-99163681D01*
X74036319Y-99036319D01*
X74002834Y-98974996D01*
X74000000Y-98948638D01*
X74000000Y-90924000D01*
X74019685Y-90856961D01*
X74072489Y-90811206D01*
X74124000Y-90800000D01*
X75276000Y-90800000D01*
X75343039Y-90819685D01*
G37*
%TD.AperFunction*%
%TD*%
%TA.AperFunction,Conductor*%
%TO.N,+3.3V*%
G36*
X100215677Y-64419685D02*
G01*
X100236319Y-64436319D01*
X102505477Y-66705477D01*
X102538962Y-66766800D01*
X102533978Y-66836492D01*
X102505477Y-66880839D01*
X102193131Y-67193186D01*
X101841307Y-67545011D01*
X101622637Y-67763681D01*
X101561314Y-67797166D01*
X101534956Y-67800000D01*
X100851362Y-67800000D01*
X100784323Y-67780315D01*
X100763681Y-67763681D01*
X100496819Y-67496819D01*
X100463334Y-67435496D01*
X100460500Y-67409138D01*
X100460500Y-66800249D01*
X100460499Y-66800247D01*
X100448868Y-66741770D01*
X100448867Y-66741769D01*
X100404552Y-66675447D01*
X100338230Y-66631132D01*
X100338229Y-66631131D01*
X100279752Y-66619500D01*
X100279748Y-66619500D01*
X99670862Y-66619500D01*
X99624284Y-66605823D01*
X99622787Y-66609439D01*
X99600000Y-66600000D01*
X98800000Y-65800000D01*
X98800000Y-64600000D01*
X99000000Y-64400000D01*
X99600000Y-64400000D01*
X100148638Y-64400000D01*
X100215677Y-64419685D01*
G37*
%TD.AperFunction*%
%TA.AperFunction,Conductor*%
G36*
X106100000Y-64700000D02*
G01*
X106100000Y-65200000D01*
X105500000Y-65800000D01*
X105499999Y-65799999D01*
X105470272Y-65829726D01*
X105408949Y-65863211D01*
X105339257Y-65858225D01*
X105320592Y-65849431D01*
X105293188Y-65833609D01*
X105293187Y-65833608D01*
X105293186Y-65833608D01*
X105165892Y-65799500D01*
X105034108Y-65799500D01*
X104906812Y-65833608D01*
X104864246Y-65858184D01*
X104796346Y-65874656D01*
X104730319Y-65851803D01*
X104687129Y-65796881D01*
X104680488Y-65727328D01*
X104712505Y-65665226D01*
X104714524Y-65663157D01*
X105210470Y-65167212D01*
X105256614Y-65087288D01*
X105280500Y-64998144D01*
X105280500Y-64723795D01*
X105300185Y-64656756D01*
X105348207Y-64613309D01*
X105368342Y-64603050D01*
X105458050Y-64513342D01*
X105515646Y-64400304D01*
X105515646Y-64400302D01*
X105515647Y-64400301D01*
X105530499Y-64306524D01*
X105530500Y-64306519D01*
X105530499Y-64130499D01*
X106100000Y-64700000D01*
G37*
%TD.AperFunction*%
%TD*%
%TA.AperFunction,Conductor*%
%TO.N,+3.3V*%
G36*
X63000000Y-89300000D02*
G01*
X63000000Y-90300000D01*
X58324000Y-90300000D01*
X58256961Y-90280315D01*
X58211206Y-90227511D01*
X58200000Y-90176000D01*
X58200000Y-89224000D01*
X58219685Y-89156961D01*
X58272489Y-89111206D01*
X58324000Y-89100000D01*
X61200000Y-89100000D01*
X62800000Y-89100000D01*
X63000000Y-89300000D01*
G37*
%TD.AperFunction*%
%TD*%
%TA.AperFunction,Conductor*%
%TO.N,+3.3V*%
G36*
X62072929Y-67211024D02*
G01*
X62130792Y-67250186D01*
X62158297Y-67314414D01*
X62146711Y-67383316D01*
X62122855Y-67416817D01*
X61439537Y-68100135D01*
X61439533Y-68100141D01*
X61396681Y-68174361D01*
X61396682Y-68174362D01*
X61374500Y-68257147D01*
X61374500Y-68776000D01*
X61354815Y-68843039D01*
X61302011Y-68888794D01*
X61250500Y-68900000D01*
X57324000Y-68900000D01*
X57256961Y-68880315D01*
X57211206Y-68827511D01*
X57200000Y-68776000D01*
X57200000Y-67511689D01*
X57208644Y-67482248D01*
X57215168Y-67452262D01*
X57218922Y-67447246D01*
X57219685Y-67444650D01*
X57236319Y-67424008D01*
X57398508Y-67261819D01*
X57459831Y-67228334D01*
X57486189Y-67225500D01*
X61942850Y-67225500D01*
X61942853Y-67225500D01*
X62003085Y-67209361D01*
X62072929Y-67211024D01*
G37*
%TD.AperFunction*%
%TA.AperFunction,Conductor*%
G36*
X63019334Y-67543507D02*
G01*
X63075267Y-67585379D01*
X63099684Y-67650843D01*
X63100000Y-67659689D01*
X63100000Y-68776000D01*
X63080315Y-68843039D01*
X63027511Y-68888794D01*
X62976000Y-68900000D01*
X62149500Y-68900000D01*
X62082461Y-68880315D01*
X62036706Y-68827511D01*
X62025500Y-68776000D01*
X62025500Y-68486189D01*
X62045185Y-68419150D01*
X62061819Y-68398508D01*
X62888319Y-67572008D01*
X62949642Y-67538523D01*
X63019334Y-67543507D01*
G37*
%TD.AperFunction*%
%TA.AperFunction,Conductor*%
G36*
X64192539Y-66820185D02*
G01*
X64238294Y-66872989D01*
X64249500Y-66924500D01*
X64249500Y-67376000D01*
X64229815Y-67443039D01*
X64177011Y-67488794D01*
X64125500Y-67500000D01*
X63836055Y-67500000D01*
X63769016Y-67480315D01*
X63723261Y-67427511D01*
X63713317Y-67358353D01*
X63742342Y-67294797D01*
X63767164Y-67272898D01*
X63824552Y-67234552D01*
X63845422Y-67203318D01*
X63868867Y-67168231D01*
X63868867Y-67168229D01*
X63868868Y-67168229D01*
X63880499Y-67109752D01*
X63880500Y-67109750D01*
X63880500Y-66924500D01*
X63883050Y-66915814D01*
X63881762Y-66906853D01*
X63892740Y-66882812D01*
X63900185Y-66857461D01*
X63907025Y-66851533D01*
X63910787Y-66843297D01*
X63933021Y-66829007D01*
X63952989Y-66811706D01*
X63963503Y-66809418D01*
X63969565Y-66805523D01*
X64004500Y-66800500D01*
X64125500Y-66800500D01*
X64192539Y-66820185D01*
G37*
%TD.AperFunction*%
%TD*%
%TA.AperFunction,Conductor*%
%TO.N,+7.6V*%
G36*
X91826931Y-79106812D02*
G01*
X91801962Y-79200000D01*
X91792823Y-79234108D01*
X91792823Y-79365892D01*
X91800295Y-79393777D01*
X91826931Y-79493187D01*
X91859877Y-79550250D01*
X91892823Y-79607314D01*
X91986009Y-79700500D01*
X92100137Y-79766392D01*
X92227431Y-79800500D01*
X92227433Y-79800500D01*
X92359213Y-79800500D01*
X92359215Y-79800500D01*
X92486509Y-79766392D01*
X92500000Y-79758602D01*
X92500000Y-79800000D01*
X93300000Y-79800000D01*
X93300000Y-79695500D01*
X93415256Y-79695500D01*
X93447348Y-79699725D01*
X93478232Y-79707999D01*
X93506223Y-79715500D01*
X93506225Y-79715500D01*
X95013775Y-79715500D01*
X95013777Y-79715500D01*
X95108008Y-79690251D01*
X95192492Y-79641474D01*
X95261474Y-79572492D01*
X95310251Y-79488008D01*
X95335500Y-79393777D01*
X95335500Y-79296223D01*
X95310251Y-79201992D01*
X95310250Y-79201991D01*
X95310250Y-79201989D01*
X95309102Y-79200000D01*
X95600000Y-79200000D01*
X95600000Y-80876000D01*
X95580315Y-80943039D01*
X95527511Y-80988794D01*
X95476000Y-81000000D01*
X95402632Y-81000000D01*
X95335593Y-80980315D01*
X95289838Y-80927511D01*
X95279894Y-80858353D01*
X95295245Y-80814000D01*
X95310249Y-80788011D01*
X95310251Y-80788008D01*
X95335500Y-80693777D01*
X95335500Y-80596223D01*
X95310251Y-80501992D01*
X95261474Y-80417508D01*
X95192492Y-80348526D01*
X95150250Y-80324137D01*
X95108009Y-80299749D01*
X95060892Y-80287124D01*
X95013777Y-80274500D01*
X95013776Y-80274500D01*
X94648503Y-80274500D01*
X94581464Y-80254815D01*
X94573017Y-80248876D01*
X94567317Y-80244502D01*
X94453187Y-80178608D01*
X94389539Y-80161554D01*
X94325892Y-80144500D01*
X94194108Y-80144500D01*
X94066812Y-80178608D01*
X93952682Y-80244502D01*
X93946983Y-80248876D01*
X93881814Y-80274070D01*
X93871497Y-80274500D01*
X93506223Y-80274500D01*
X93411990Y-80299749D01*
X93327508Y-80348526D01*
X93258520Y-80417513D01*
X93255443Y-80421524D01*
X93199014Y-80462724D01*
X93129267Y-80466876D01*
X93124980Y-80465808D01*
X93080504Y-80453891D01*
X93080501Y-80453891D01*
X92948717Y-80453891D01*
X92821421Y-80487999D01*
X92707295Y-80553891D01*
X92707292Y-80553893D01*
X92614111Y-80647074D01*
X92614109Y-80647077D01*
X92548217Y-80761203D01*
X92514109Y-80888499D01*
X92514109Y-81000000D01*
X91600000Y-81000000D01*
X91200000Y-80600000D01*
X91200000Y-79000000D01*
X91888600Y-79000000D01*
X91826931Y-79106812D01*
G37*
%TD.AperFunction*%
%TA.AperFunction,Conductor*%
G36*
X95300000Y-79184237D02*
G01*
X95295745Y-79176868D01*
X95280138Y-79149835D01*
X95263665Y-79081938D01*
X95265529Y-79065633D01*
X95277474Y-79000000D01*
X95300000Y-79000000D01*
X95300000Y-79184237D01*
G37*
%TD.AperFunction*%
%TD*%
%TA.AperFunction,Conductor*%
%TO.N,+7.6V*%
G36*
X99700000Y-72900000D02*
G01*
X98200000Y-72900000D01*
X98200000Y-71676333D01*
X98219685Y-71609294D01*
X98236319Y-71588652D01*
X98588652Y-71236319D01*
X98649975Y-71202834D01*
X98676333Y-71200000D01*
X99700000Y-71200000D01*
X99700000Y-72900000D01*
G37*
%TD.AperFunction*%
%TD*%
%TA.AperFunction,Conductor*%
%TO.N,+7.6V*%
G36*
X96443502Y-77569713D02*
G01*
X96454532Y-77579503D01*
X96759540Y-77884511D01*
X96815489Y-77940460D01*
X96815491Y-77940461D01*
X96815495Y-77940464D01*
X96884004Y-77980017D01*
X96884011Y-77980021D01*
X96960438Y-78000500D01*
X96960440Y-78000500D01*
X97567758Y-78000500D01*
X97599984Y-78999500D01*
X95880247Y-78999500D01*
X95821770Y-79011131D01*
X95821769Y-79011132D01*
X95755447Y-79055447D01*
X95711132Y-79121768D01*
X95710434Y-79123456D01*
X95707926Y-79126567D01*
X95704348Y-79131923D01*
X95703868Y-79131602D01*
X95700050Y-79136339D01*
X95694042Y-79151757D01*
X95678579Y-79162982D01*
X95666591Y-79177858D01*
X95650408Y-79183433D01*
X95637501Y-79192804D01*
X95608823Y-79197761D01*
X95602907Y-79199800D01*
X95600036Y-79199963D01*
X95600000Y-79200000D01*
X95309102Y-79200000D01*
X95300000Y-79184236D01*
X95300000Y-78887421D01*
X95308260Y-78845889D01*
X95308147Y-78845859D01*
X95308611Y-78844125D01*
X95309438Y-78839970D01*
X95310246Y-78838016D01*
X95310251Y-78838008D01*
X95335500Y-78743777D01*
X95335500Y-78646223D01*
X95310251Y-78551992D01*
X95310249Y-78551988D01*
X95310247Y-78551981D01*
X95309435Y-78550020D01*
X95308609Y-78545868D01*
X95308147Y-78544143D01*
X95308260Y-78544112D01*
X95300000Y-78502578D01*
X95300000Y-77904026D01*
X95319685Y-77836987D01*
X95372489Y-77791232D01*
X95441647Y-77781288D01*
X95486001Y-77796639D01*
X95492682Y-77800496D01*
X95492686Y-77800500D01*
X95606814Y-77866392D01*
X95734108Y-77900500D01*
X95734110Y-77900500D01*
X95865890Y-77900500D01*
X95865892Y-77900500D01*
X95993186Y-77866392D01*
X96107314Y-77800500D01*
X96200500Y-77707314D01*
X96259464Y-77605184D01*
X96310030Y-77556969D01*
X96378637Y-77543745D01*
X96443502Y-77569713D01*
G37*
%TD.AperFunction*%
%TD*%
%TA.AperFunction,Conductor*%
%TO.N,+7.6V*%
G36*
X92099500Y-85465892D02*
G01*
X92106469Y-85491902D01*
X92133608Y-85593187D01*
X92164372Y-85646471D01*
X92199500Y-85707314D01*
X92292686Y-85800500D01*
X92406814Y-85866392D01*
X92534108Y-85900500D01*
X92534110Y-85900500D01*
X92665890Y-85900500D01*
X92665892Y-85900500D01*
X92793186Y-85866392D01*
X92907314Y-85800500D01*
X92970995Y-85736819D01*
X93032318Y-85703334D01*
X93058676Y-85700500D01*
X93415256Y-85700500D01*
X93447348Y-85704725D01*
X93478232Y-85712999D01*
X93506223Y-85720500D01*
X93506225Y-85720500D01*
X95013775Y-85720500D01*
X95013777Y-85720500D01*
X95108008Y-85695251D01*
X95192492Y-85646474D01*
X95261474Y-85577492D01*
X95310251Y-85493008D01*
X95310547Y-85491900D01*
X95311051Y-85491074D01*
X95313360Y-85485501D01*
X95314229Y-85485861D01*
X95325041Y-85468124D01*
X95336608Y-85442797D01*
X95342974Y-85438705D01*
X95346914Y-85432243D01*
X95371962Y-85420076D01*
X95395386Y-85405023D01*
X95406135Y-85403477D01*
X95409762Y-85401716D01*
X95430321Y-85400000D01*
X95575500Y-85400000D01*
X95642539Y-85419685D01*
X95688294Y-85472489D01*
X95699500Y-85524000D01*
X95699500Y-86476000D01*
X95679815Y-86543039D01*
X95627011Y-86588794D01*
X95575500Y-86600000D01*
X95430321Y-86600000D01*
X95363282Y-86580315D01*
X95317527Y-86527511D01*
X95310547Y-86508098D01*
X95310251Y-86506992D01*
X95261474Y-86422508D01*
X95192492Y-86353526D01*
X95150250Y-86329137D01*
X95108009Y-86304749D01*
X95060892Y-86292124D01*
X95013777Y-86279500D01*
X93506223Y-86279500D01*
X93411990Y-86304749D01*
X93327508Y-86353526D01*
X93327505Y-86353528D01*
X93258528Y-86422505D01*
X93258524Y-86422511D01*
X93209750Y-86506989D01*
X93209749Y-86506991D01*
X93209453Y-86508098D01*
X93208948Y-86508925D01*
X93206640Y-86514499D01*
X93205770Y-86514138D01*
X93173086Y-86567757D01*
X93110238Y-86598284D01*
X93089679Y-86600000D01*
X92200000Y-86600000D01*
X91900000Y-86300000D01*
X91900000Y-85400000D01*
X92099500Y-85400000D01*
X92099500Y-85465892D01*
G37*
%TD.AperFunction*%
%TD*%
%TA.AperFunction,Conductor*%
%TO.N,+3.3V*%
G36*
X85243039Y-96019685D02*
G01*
X85288794Y-96072489D01*
X85300000Y-96124000D01*
X85300000Y-96400000D01*
X85720210Y-96400000D01*
X85744629Y-96403867D01*
X85744736Y-96403193D01*
X85854007Y-96420500D01*
X85854012Y-96420500D01*
X86420993Y-96420500D01*
X86530264Y-96403193D01*
X86530315Y-96403518D01*
X86554790Y-96400000D01*
X86748638Y-96400000D01*
X86815677Y-96419685D01*
X86836319Y-96436319D01*
X86963681Y-96563681D01*
X86997166Y-96625004D01*
X87000000Y-96651362D01*
X87000000Y-98448638D01*
X86980315Y-98515677D01*
X86963681Y-98536319D01*
X86936319Y-98563681D01*
X86874996Y-98597166D01*
X86848638Y-98600000D01*
X83424000Y-98600000D01*
X83356961Y-98580315D01*
X83311206Y-98527511D01*
X83300000Y-98476000D01*
X83300000Y-96151362D01*
X83308644Y-96121921D01*
X83315168Y-96091935D01*
X83318922Y-96086919D01*
X83319685Y-96084323D01*
X83336319Y-96063681D01*
X83363681Y-96036319D01*
X83425004Y-96002834D01*
X83451362Y-96000000D01*
X85176000Y-96000000D01*
X85243039Y-96019685D01*
G37*
%TD.AperFunction*%
%TD*%
%TA.AperFunction,Conductor*%
%TO.N,+7.6V*%
G36*
X100499500Y-72907314D02*
G01*
X100592686Y-73000500D01*
X100706814Y-73066392D01*
X100733595Y-73073568D01*
X100793252Y-73109929D01*
X100823783Y-73172775D01*
X100825500Y-73193341D01*
X100825500Y-74240688D01*
X99700000Y-74260822D01*
X99700000Y-73500000D01*
X99700000Y-72900000D01*
X100465801Y-72848946D01*
X100499500Y-72907314D01*
G37*
%TD.AperFunction*%
%TA.AperFunction,Conductor*%
G36*
X102635952Y-72723997D02*
G01*
X102685118Y-72773641D01*
X102700000Y-72832541D01*
X102700000Y-74207153D01*
X102700000Y-74207155D01*
X101426500Y-74229937D01*
X101426500Y-72786438D01*
X101426095Y-72784926D01*
X102567753Y-72708816D01*
X102635952Y-72723997D01*
G37*
%TD.AperFunction*%
%TD*%
M02*
